<?xml version="1.0" encoding="utf-8"?>
<!-- Generator: Adobe Illustrator 26.0.1, SVG Export Plug-In . SVG Version: 6.00 Build 0)  -->
<svg version="1.1" id="Layer_1" xmlns="http://www.w3.org/2000/svg" xmlns:xlink="http://www.w3.org/1999/xlink" x="0px" y="0px"
	 viewBox="0 0 836.6 340.1" style="enable-background:new 0 0 836.6 340.1;" xml:space="preserve">
<style type="text/css">
	.st0{fill:#00A19B;}
	.st1{fill:#008080;}
	.st2{opacity:0.5;fill:#252525;}
	.st3{opacity:0.5;fill:#00A19B;}
	.st4{opacity:0.1;fill:#252525;}
	.st5{opacity:0.1;fill:#00A19B;}
	.st6{fill:#252525;}
	.st7{fill:#EDFFFE;}
	.st8{fill:#F9F9F9;}
	.st9{opacity:0.5;}
	.st10{opacity:0.5;clip-path:url(#SVGID_00000062188922363669279810000012918405628660823689_);}
	.st11{opacity:0.5;clip-path:url(#SVGID_00000137822475185840715690000001597814640368453035_);}
	.st12{opacity:0.5;clip-path:url(#SVGID_00000024702416667136319620000006597490519696382643_);}
	.st13{opacity:0.5;clip-path:url(#SVGID_00000031172784805871106580000007856332361013301913_);}
	.st14{opacity:0.5;clip-path:url(#SVGID_00000179630397860762109610000011061272082233964945_);}
	.st15{opacity:0.5;clip-path:url(#SVGID_00000152233329621757002390000015954243628679493018_);}
	.st16{opacity:0.5;clip-path:url(#SVGID_00000041297564288995839300000000045981546419404189_);}
	.st17{opacity:0.5;clip-path:url(#SVGID_00000064340936714129878770000011830146218618695868_);}
	.st18{opacity:0.5;clip-path:url(#SVGID_00000048466443455606685920000004085614847018489526_);}
	.st19{fill:#ED1B24;}
	.st20{fill:#BCD33A;}
	.st21{fill:#FBA419;}
	.st22{fill:#D5ADD1;}
	.st23{fill:#00BBF4;}
	.st24{fill:#FEF200;}
	.st25{opacity:0.26;}
</style>
<g>
	<g>
		<path class="st7" d="M827,114.8c-4.8-1.6-9.8-2.9-14.8-3.4c-4.7-0.5-9.5,0.3-15.1,0.5c1.6-5.8,3.5-10.9,4.3-16.3
			c0.7-4.6,0.5-9.5-0.2-14.1c-1-6.6-5.1-9.4-11.6-8.4c-16.7,2.5-25.5,15.2-33.4,28.8c-3.2,5.6-5.2,11.9-7.9,18.2
			c-0.4-0.4-1.1-1.4-2-1.7c-3.5-1.1-7.6-3.6-10.5-2.6c-2.5,0.8-5,5.6-5.2,8.8c-0.2,2.8-0.8,4.8-2,6.3c-4.1-0.8-8.3-1.4-12.6-1.9
			c-8.5-0.9-17.3-1.2-26.5-0.9c-14,0.5-27.9,2.9-41.7,4.5c5.9-10.2,13.2-19.5,16.9-30.1c4.2-12.1-0.6-23.8-9.9-32.4
			C644.5,60.5,633,52.2,615,55.8c15.1,16.1,9.5,35.1,13.5,51.7c-12.5-4.7-24.5-9.2-35.3-13.3c5.5-10,11.3-19.5,16-29.5
			c3.5-7.5,3.1-15.4-2.7-22c-5.4-6.1-12.1-5.7-18.7-2.4c-10.6,5.2-20.9,10.6-32.2,16.4c-2.4-7.6-4.7-15.7-7.7-23.5
			c-4.5-11.6-18.9-16.4-26.4-8.5c-4.7,5-9.3,11.6-10.8,18.1c-4.5,19.4-5.9,39.1,1.8,58.3c3.8,9.5,2.4,15.8-8,19.9
			c-8,3.2-9.2,13.7-1.8,16.6c11.9,4.6,9.2,11.9,6.9,20.2c-1.5,5.6-3,11.2-3.8,16.9c-3.2,23.4-2.6,28.5-34.8,22.2
			c-0.3-0.1-0.7,0-1-0.1c-10-3.4-20.2-6.4-28.9-15.1c40.3-21.6,55.6-54,46.4-96.9c-2.2-10.4,0.2-17,7.7-23.1c5.7-4.6,6-9.5,0.5-14.5
			c-5.3-4.8-10.8-9.4-15.5-14.8c-15.8-18.2-41.6-20.4-59-3.9c-6.8,6.5-11.8,14.8-17.5,22.4c-10.1,13.7-20.8,26.6-39.7,31.5
			c0-5.1,0.7-9.6-0.1-13.7c-2.5-13.2-4.4-26.8-8.8-39.4c-1.6-4.7-9.2-9.8-14.3-10.2c-5-0.3-11.4,4.3-15.4,8.5
			c-3.5,3.7-4.5,9.7-6.4,14.7c-1.6,4.2-2.9,8.5-3.9,11.4C304.5,47.8,295,41,284.4,37c-15.7-6-26.7,2.9-23.1,19.1
			c2.1,9.5,8.4,18.1,12.9,27.1c1.4,2.7,3.3,5.2,5.3,8.5c-6.2,1.6-10.9,2.3-15.3,4c-4.7,1.7-9.5,3.8-13.7,6.6
			c-10.2,6.7-12,17.4-2.1,24c9.1,6.1,20.5,10.2,31.5,12.1c11.6,2,23.9,0.5,36.5,0.5c-8.5,14.6-24.6,25-20.8,48.3
			c-27-14.5-50.9-27.4-75.9-40.8c2.8-4.6,5.1-8.3,7.3-12c8.7-14.3,11.2-28.7,3.3-44.5C219.7,68.7,202,60.2,180.7,67
			c-16.4,5.3-22.9,19.5-28.8,33.7c-0.8,1.8,2,6.7,4.2,7.7c17,7.3,34,10.1,49.9-3.1c2.9-2.4,6.2-4.4,9.6-5.7c2.6-1,7-1.9,8.2-0.6
			c2.3,2.5,4.6,7.2,3.6,9.8c-3.6,9.5-8.2,18.6-13.3,27.3c-1.2,2-6.3,2.9-9.2,2.4c-16-2.8-31.8-7.1-47.9-9.3
			c-42.6-5.7-81.8,6.7-113.5,29.1c-1,0.1-1.9,0.4-2.9,0.7c-5.6,1.9-11,5.2-15.6,8.9c-6.3,5.1-10.9,11.7-12.7,19.9
			c-0.1,0.3-0.2,0.6-0.4,0.9c7.8,2.1,15.8,1.8,15.8,1.8c6.2-0.7,11-3.4,13.7-8.7c2-4,2.9-8.6,4.6-12.8c0.3-0.8,0.8-1.6,1.3-2.4
			c7.4-5.3,15.4-10.2,23.7-14.7c12.5-6.8,27-9.6,41.4-12c-10.3,7-20.7,13.6-30.7,20.9c-18.6,13.7-32.1,31-39,53.5
			c-1.7,5.7-6,11.6-10.7,15.2C15.5,242.1,6.2,257.7,6,279c-0.1,10-3,19.9-4.6,29.8c-0.5,3-0.8,5.9-1.3,9.4c9.8,2.3,18.3,2,25.2-5.1
			c4.2-4.4,7.4-3.7,11.2,0.1c2.4,2.4,5,4.8,7.8,6.6c6.8,4.1,13.4,4.5,16.7-4.1c4-10.1,8.6-17.6,21.6-15.9c3.9,0.5,8.9-3.2,12.5-6
			c1.7-1.3,2.7-6.1,1.7-7.8c-10.1-15.7-20.6-31-31.1-46.4c-1.9-2.8-4-6.2-6.8-7.5c-12.4-5.9-9.3-14.5-5-23.7
			c22.2-48.3,82-81.1,129.3-67.1c24.8,7.4,47.7,21.3,71.2,32.8c10.9,5.4,21.2,12,32.5,18.4c-16.2,20.3-34.2,38.1-46.8,58
			c6.6,4.9,11.4,8,15.6,11.7c5.4,4.6,9,0.7,12.3-2.3c16.3-15,32.4-30.2,48.5-45.4c7.2-6.7,13.8-14.5,21.9-19.9
			c5.4-3.5,13-4.9,19.7-5c9.1-0.1,18.2,2.3,27.3,2.8c16.8,1,18.3,2,23.5,20.3c-3.8,0.3-7.4,0.7-11,0.7c-14.7,0.1-29.4-0.2-44,0.3
			c-4.8,0.2-9.6,2.5-14.4,3.8c4.6,1.4,9.2,3.8,13.9,4c16.7,0.5,33.5,0.7,50.2,0c1.6-0.1,3,0,4.2,0.1l23.1,0.2h0.1l7.4,0.1
			c13.9,0.1,28.1,0,44,0c-1.7,5.8-2.4,9.3-3.8,12.6c-8.4,20.6-7.4,39.6,8.4,56.8c3.2,3.5,5.2,8.3,8.2,14.1c2.8,3.9,5.8,8,8.2,12.2
			c1,1.4,1.9,2.8,2.7,4.3c0.8-3.8,1.9-7.4,3.7-10.8c0.2-1.2,0.9-2.6,1.9-4.3c14.8-23.2,14.7-47,1.2-70.4
			c-3.2-5.6-10.1-9.2-15.5-13.4c-5.6-4.3-11.4-8.3-17.2-12.3c0.6-1.3,1.1-2.7,1.7-4c8.2,0.6,16.8,0.1,24.6,2.1
			c19.7,5,39.2,11.1,58.7,16.9c8.2,2.4,10.8,8.1,11.8,16.7c0.9,7.6,5.1,15.1,8.9,22.1c3.7,6.8,9.3,12.6,13,19.4
			c4.2,7.6,8.5,9.3,13.4,2.5c5.4-7.4,10.1-14.5,20.4-15.6c1.7-0.2,4.3-5.2,4.2-7.9c-0.2-7.6,0.2-14,8-18c2.2-1.1,3.6-4.1,4.8-6.5
			c2.2-4.7,0.9-7-4.7-8.4c-11.8-2.9-23.1-7.5-35-10.1c-7.3-1.6-15.2-0.7-22.8-0.8c-5.1-0.1-10.5,1.3-15.2-0.1
			c-15.2-4.5-30.1-10-46.9-15.7c3.7-2.1,6.1-3.5,8.6-4.8c27.2-13.9,55.2-26.7,81.6-42.1c29.9-17.5,66.4-23.7,101.5-18.9
			c3.8,0.5,7.5,1.2,11.3,1.9c-0.1,0.7-0.2,1.5-0.4,2.2c0.3,0.1,0.7,0.1,1,0.2c0,0.1,0,0.2,0,0.3c-0.2,2.3-0.5,4.6-0.6,7
			c-0.4,9,4.7,13.3,11.9,8.9c8-5,12.5-2.5,17,4.9c9.4,15.5,23.7,23.8,40.2,28.5c7.2,2.1,14.1,1.8,19-4.8c4.8-6.5,1.6-12.8-1.9-18.6
			c-3.1-5.1-6.7-9.8-10.4-15.3c6.8-3,13-5.3,18.8-8.5c3.7-2,7.4-4.8,10-8.1C839.4,127.8,836.5,118,827,114.8z M170.2,105.5
			c-8.3-2-10.3-4.5-6.1-11.7c7.8-13.4,25.4-27.1,40.3-17.8c1.3,0.8,2.3,2.1,3.8,3.5c-28.1,5-31.4,6.6-32.9,16.3
			c11.2-1.1,21.5-10.2,34.4-4.1C197.4,102.1,186,109.3,170.2,105.5z M17.4,186.2c3.2-9.8,10.4-16,18.9-21.1
			c-2.8,4.9-6.3,9.3-9.5,13.9c-1,1.4-1.3,3.3-2,5c1.6-0.6,3.6-0.9,4.8-1.9c1.9-1.7,3.4-3.9,5-6c2.2-2.8,4.2-5.8,6.3-8.6
			C41.5,181.6,31.1,189.8,17.4,186.2z M83,292.1c-0.6,0.3-1.2,0.8-1.8,0.8c-6,0.4-22.2,10.8-26.3,15.7c-1.5,1.8-5.4,2.3-8.1,2
			c-2-0.2-4.2-2.4-5.6-4.3c-6.8-9-13.6-9-20.9-0.7c-1,1.2-2.8,1.7-7.2,4.2c1.7-18.8,1.7-35.6,5.4-51.6c1.9-8,10.6-14.5,17.7-23.5
			c1.3,18.3,2.1,32.8,3.5,47.2c0.2,2.2,3.1,4,4.8,6.1c0.9-2.4,2.5-4.9,2.6-7.3c0.2-14.8,0.1-29.6,0.1-44.6
			C58.3,239.4,84,280.2,83,292.1z M482.8,49.3l-6.5,6.5l-8.5-8.5l6.5-6.5L482.8,49.3z M470.5,35.4c0.1,0.2,0.2,0.3,0.3,0.5l-0.3-0.3
			l-9.3,9.5l-2.2,2.2l12.9,13l-2,2l-13.2-13.2L445,48.6l-4.1-0.2l-9-9.7h-6.4C433.9,23.2,459.4,20.8,470.5,35.4z M415.1,49.3
			l12.3,0.5l-9.6,12.1l-0.1,0.1c-0.5,0.8-1,1.4-1.6,2l-0.1,0.1l-2.7,3.4h-12.5L415.1,49.3z M324.8,69c0.3-11.6,3.6-23.2,6.6-34.6
			c0.9-3.2,5.1-7.6,8-7.7c3-0.1,8.1,3.5,9.1,6.6c3.8,11.1,6.3,22.6,9.4,34.5c-3,10.4-5.2,20.6-8.9,30.2c-1.3,3.4-6.1,7.8-9.1,7.6
			c-3.3-0.2-8-4.6-9.2-8.1C327.7,88.3,324.5,78.5,324.8,69z M268.6,55.3c-1.5-9.6,2.8-13.9,12.3-10.8c19.5,6.4,39.2,17.7,37.1,47.9
			C294.1,94.8,272.1,78,268.6,55.3z M288.1,133.9c-10.6-3.6-21.2-6.6-31.4-10.8c-2.8-1.1-5.6-5.3-5.9-8.3c-0.2-2.3,3.2-6,5.9-7.2
			c21.7-9.9,43.8-11.6,65.7-1c3.4,1.7,7.8,6.1,7.7,9.2c-0.1,3.2-4.6,7.8-8.1,8.9C311.4,128.4,300.2,130.7,288.1,133.9z M264.2,252.3
			c-3.6-2.8-6.2-4.8-9.9-7.6c11.6-13.7,23.2-27.3,34.8-40.9c0.7-0.8,1.7-1.3,2.1-2.2c8.4-17.3,23.6-12.3,39.4-11.9
			C307.8,211.2,286.3,231.5,264.2,252.3z M314.2,181c-2-1-6.5-2.1-9.3-4.9c-1.2-1.3,0.1-6.8,2-9c20.4-24.9,40.2-50.4,62.4-73.6
			c8-8.3,21.5-12.4,33.3-15.5c14.4-3.8,21.9,7.4,16.9,21.7c-9.3,27-29.9,44-51.9,59.7C352.3,170.3,335.6,178.3,314.2,181z
			 M387.3,182.5c-3.9-0.6-9.8-3.8-10.2-6.6c-0.8-4.4,0.9-10.8,4-14.1c8.7-9.5,19.5-17.1,27.6-27c7.4-9,13.2-19.7,18.5-30.2
			c4.2-8.5,4.5-17.6-1-26.3c-3.3-5.2-3.4-10,1.3-15.6c4.8-5.6,8.5-3.6,13.2-1.4c0.9,0.4,2,0.3,3,0.4c24.7,3.1,36.8,17.3,36.5,42.7
			c2.9,49.3-36.6,73.3-73.7,77.9C400.2,183,393.5,183.5,387.3,182.5z M426.3,212.4c-6.7-1.4-11.6-11.4-17.5-17.7
			c15.6-11.7,47.6-1.1,60.3,18.6C454.2,213.2,439.7,215.2,426.3,212.4z M496.6,252.2c2,5.7,3.3,11.6,5,17.5c1.7-0.3,3.4-0.7,5.1-1
			c-2.1-11.3-4.2-22.7-6.2-33.5c16.1,10.6,18.7,48.5,4,66.2c-20.3-22.2-30.4-45-15.6-66.9C491.7,240.7,494.5,246.3,496.6,252.2z
			 M585.2,235.9c10.1,7,18.3,12.7,28.3,19.7c0.3-16.7-16.2-17.2-22.4-28.3c17.8-4.9,29.7,8.2,47,11c-13.9,6.2-8.8,16.4-9.1,26.1H613
			c-1.7,5-3.1,9-5.4,15.5C599.3,265,583.7,257,585.2,235.9z M593.4,47.1c7.3-0.7,9.7,2.3,9,9.5c-1.8,19.3-19.8,37.4-38.9,39
			c-3,0.2-6,0.8-9.6,1.2C551.7,72.8,571,49.3,593.4,47.1z M579,101.1c11.5,2.5,21.9,4,31.9,7.2c3.8,1.2,8.1,6,8.8,9.7
			c0.4,2.7-4.2,7.6-7.7,9.4c-20,10.2-40.7,9.4-61,1.3c-4.1-1.6-9.4-6.8-9.3-10.3c0.1-3.5,5.6-8.4,9.7-10
			C560.4,105,570.1,103.3,579,101.1z M521.6,39.4c1.7-4.1,6.9-9.1,10.5-9.2c3.2-0.1,8.1,5.7,9.5,9.8c3.2,9.5,4.6,19.5,7,30.7
			c-2.8,10.2-5.2,20.9-8.9,31.3c-1.1,3.2-5.5,7.2-8.5,7.3c-2.7,0.1-6.7-4-8.3-7.2C512.3,81.5,512.5,60.3,521.6,39.4z M626.4,140
			c-36,18.9-72.3,37.1-108.6,55.5c-1.9,1-4.3,1-7.8,1.8c3-14.6,5.5-28,8.7-41.3c0.4-1.7,4.3-3,6.8-3.5c1.8-0.4,4,0.7,5.9,1.3
			c15.4,5,18.8,2,16.2-15.7c3.9,0.5,7.8,0.1,11,1.5c18.8,8.1,37,3.1,54.5-3.4c7.6-2.9,13.5-10.3,21.3-16.6c0.9,0.8,3.3,2.6,7.2,5.8
			C636.2,130.5,632.2,136.9,626.4,140z M645,113c-1.5,0.3-3,0.6-4.5,0.9c-9.7-13.9-3.6-30.9-8.5-46.1c17.4,0.7,28.6,18.6,23.6,37.9
			c-3.3-8.8-6.1-16.3-8.9-23.8c-1.6,0.3-3.1,0.7-4.7,1C643.1,92.9,644.1,103,645,113z M761.5,106c5.5-10.8,13.1-19.5,23.9-24.9
			c6-3,9.6-1.3,10.5,5c2.2,16.1-18.7,46.7-33.8,49.2c-1.5,0.3-3.1,0.2-5.1,0.3C753.1,124.1,756.9,114.9,761.5,106z M810.2,172.9
			c4.2,7.8,1.5,12.2-7.2,12c-14.8-0.2-38.5-17.9-43.9-32.6c-0.3-0.8-0.5-1.6-0.6-2.3c-0.4-2.7,0.5-4.8,3.2-6.2
			c1.6-0.8,3.8-1.5,6.6-1.9c2.2,0.7,6.4,1.9,10.6,3.5C792.5,150.8,803.1,159.8,810.2,172.9z M828.9,126c-0.9,3.5-2.7,7.8-5.4,9.6
			c-12.9,8.8-26.4,14.8-41.2,4c-1.3-0.9-2.8-1.5-4.8-2.5c10.1-17.6,29.4-24.3,46.2-16.5C825.8,121.7,829.2,124.7,828.9,126z"/>
		<ellipse transform="matrix(0.9732 -0.2298 0.2298 0.9732 2.72 105.0573)" class="st7" cx="452.5" cy="40.8" rx="5.2" ry="5.2"/>
	</g>
</g>
<g class="st9">
	<defs>
		<rect id="SVGID_1_" x="-0.1" y="-571.7" class="st9" width="2489.1" height="229.7"/>
	</defs>
	<clipPath id="SVGID_00000044889516966872347450000000877765873940400033_">
		<use xlink:href="#SVGID_1_"  style="overflow:visible;"/>
	</clipPath>
	<g style="opacity:0.5;clip-path:url(#SVGID_00000044889516966872347450000000877765873940400033_);">
		<g>
			<g>
				<path class="st6" d="M668-173c-7.9-2.4-15.3-1.8-22.5,1.8c-2.9,1.5-5.4,3.9-8,5.8c-1.3-9.9-2.6-19.2-3.6-28.5
					c-0.7-6.6,2.3-11.5,7.8-14.7c7.4-4.2,10.1-3.1,13.1,4.7c3.8,9.9,11.2,16.1,20.7,19.8c4.4,1.7,8.8,1.8,12.3-2.3
					c3.2-3.9,4.5-8,2.3-13c-4.1-9.6-11.6-15.8-21.2-18.2c-5.9-1.5-12.7,0-19,1.2c-5.3,1-10.4,3.5-15.4,5.7c-2,0.9-3.5,2.7-6.3,4.9
					c-2.5-6.2-4-11.6-6.8-16.3c-1.3-2.2-5.5-4.7-7.5-4.1c-2.7,0.7-5.6,4.1-6.3,6.9c-0.5,1.8,2.5,6.5,4.2,6.7
					c10.2,0.7,12.7,8.3,15.3,15.9c3.4,10.1,5.3,20.3,3.2,29.4c-6.7-8.2-13.1-17-20.5-24.9c-4.5-4.8-11.3-5.3-15.8-0.4
					c-5.7,6.2-10.1,13.8-14.9,20.7c-0.7,1.1-1.2,2.3-1.9,3.5c-0.2-7.9-0.3-15.8,2.6-22.4c6.7-15.1,14.3-30,22.5-44.3
					c6.5-11.3,7.2-10.9,19.1-4.5c1.5,0.8,3,1.3,4.5,2.1c14.9,8.5,38.8-8.1,39.9-22.4c1-13.4-11.2-31.2-24.4-32.6
					c-1.9-0.2-5.1,2.1-5.9,4.1c-4.9,11.5-5.4,22.7,3,33.1c1.6,2,2.5,4.5,3.7,6.8c2.8,5,0.2,8.1-4.3,7.1c-7.5-1.8-14.8-5.1-21.9-8.3
					c-1.3-0.6-2.1-4.1-1.7-6c1.7-7.5,4.4-14.7,5.9-22.2c6.8-33.9-0.4-64.8-21.6-92.1c-25.5-32.7-58.3-51.2-100.6-49.6
					c-9.7,0.3-19.3,2-28.7,3.1c4-7,9.1-13.4,11.7-20.8c2.9-8.3-0.4-16.4-6.8-22.3c-7.2-6.6-15.1-12.3-27.5-9.9
					c10.4,11.1,6.6,24.2,9.3,35.6c-8.6-3.2-16.9-6.4-24.3-9.1c3.8-6.9,7.8-13.4,11-20.3c2.4-5.2,2.2-10.6-1.9-15.1
					c-3.7-4.2-8.3-3.9-12.9-1.7c-7.3,3.6-14.4,7.3-22.2,11.3c-1.7-5.2-3.2-10.8-5.3-16.2c-3.1-8-13-11.3-18.2-5.8
					c-3.3,3.5-6.4,8-7.4,12.5c-3.1,13.4-4,27,1.2,40.1c2.6,6.5,1.7,10.9-5.5,13.7c-5.5,2.2-6.4,9.4-1.2,11.4
					c8.2,3.2,6.3,8.2,4.8,13.9c-1,3.8-2.1,7.7-2.6,11.6c-2.2,16.1-1.8,19.6-24,15.3c-0.2,0-0.5,0-0.7-0.1
					c-6.9-2.4-13.9-4.4-19.9-10.4c27.8-14.9,38.3-37.2,32-66.7c-1.5-7.2,0.1-11.7,5.3-15.9c3.9-3.2,4.1-6.5,0.3-10
					c-3.6-3.3-7.5-6.5-10.7-10.2c-10.9-12.5-28.7-14-40.6-2.7c-4.7,4.5-8.1,10.2-12,15.4c-7,9.4-14.3,18.3-27.3,21.7
					c0-3.5,0.5-6.6-0.1-9.5c-1.7-9.1-3.1-18.4-6-27.1c-1.1-3.2-6.3-6.8-9.9-7c-3.5-0.2-7.9,3-10.6,5.9c-2.4,2.5-3.1,6.7-4.4,10.1
					c-1.1,2.9-2,5.9-2.7,7.9c-7.6-4.2-14.1-8.9-21.4-11.6c-10.8-4.1-18.4,2-15.9,13.1c1.5,6.6,5.8,12.5,8.9,18.6
					c1,1.9,2.2,3.6,3.7,5.8c-4.3,1.1-7.5,1.6-10.5,2.7c-3.3,1.2-6.6,2.6-9.5,4.5c-7.1,4.6-8.3,12-1.4,16.6c6.3,4.2,14.1,7,21.7,8.3
					c8,1.4,16.5,0.3,25.1,0.3c-5.9,10.1-16.9,17.2-14.3,33.3c-18.6-10-35.1-18.9-52.3-28.1c2-3.2,3.5-5.7,5-8.3
					c6-9.8,7.7-19.8,2.3-30.7c-7.3-14.4-19.5-20.3-34.1-15.6c-11.3,3.6-15.8,13.4-19.9,23.2c-0.5,1.2,1.4,4.6,2.9,5.3
					c11.7,5.1,23.4,7,34.4-2.1c2-1.6,4.3-3,6.6-3.9c1.8-0.7,4.8-1.3,5.7-0.4c1.6,1.7,3.2,5,2.5,6.8c-2.5,6.5-5.6,12.8-9.2,18.8
					c-0.8,1.4-4.3,2-6.3,1.6c-11.1-1.9-21.9-4.9-33-6.4c-56.1-7.5-103.6,30.6-122.6,75c-10.8,25.2-10,51-4.7,79.4
					c-12.9-14.2-26.6-20.8-42.1-8.7c-7.7,6-12.7,14.7-12.1,26.4c2.8-0.7,4.7-1.3,6.7-1.7c6.6-1.3,13.2-3.9,19.8-3.6
					c9.1,0.3,16.7-0.9,21.5-10.5c15.3,11.5,19.6,28.9,30.4,44.7c-15.9,0-29.7-1.8-42.8,0.4c-24.4,4.1-49,22.2-48.2,65.3
					c0.3,18.5,2.4,28.5,8.7,30c0-7.8-0.9-15.5,0.2-23c1.7-11.3,5-22.3,17.8-26.3c8.5-2.7,16.3,0.7,23.6,4.4
					c10.3,5.3,20.8,8.2,32.4,7.8c5.8-0.2,8.3-2.2,7.4-8.1c-0.3-1.8-0.3-3.8-0.9-5.5c-2.7-7.6-5.5-15.2-8.1-22.2
					c5-4.3,9.8-8.5,15.5-13.4c3.1,6.9,6.4,13.8,9.3,20.8c5.4,13.3,8.6,27,4.6,41.2c-0.7,2.5-4.2,5.7-6.8,6.1
					c-14.8,2.3-28.7,6.8-41.6,14.4c-9.5,5.6-19,11.3-28.8,16.2c-11.5,5.8-27.5-0.6-32.6-11.2c-4.6-9.5-5-19.3-6.1-29.3
					c-0.2-2-1.5-3.9-2.3-5.9c-1.4,1.8-3.8,3.6-4,5.5c-0.7,6.8-1,13.6-0.9,20.4c0,17.8,4,34.7,16.1,48.3
					c9.4,10.6,19.8,20.3,30.2,30.8c-6.1,5.1-13,11-20.1,16.6c-1.8,1.4-4.5,2.9-6.3,2.5c-3.2-0.7-7-2.1-8.7-4.5
					c-1-1.5,0.7-6.5,2.7-7.9c2.2-1.6,6-0.9,9.2-1.2c0.1,0.7,0.1,1.5,0.2,2.2c-2.1,1.8-4.5,3.3-6.1,5.4c-0.5,0.6,1.4,2.9,2.1,4.4
					c3.4-2.6,7.9-4.5,9.7-8c1-2-1.5-7.2-3.9-9.4c-4.6-4.4-13.8-1.4-18.2,5.2c-4.3,6.4-2.9,14.4,3,17.7c7,3.9,16.9,2.4,23.4-3.6
					c4.1-3.8,8.1-7.8,12.5-11.3c1.9-1.5,4.5-2.1,8.2-3.6c-1.9,5.1-3.5,8.3-4,11.6c-0.2,1.5,1.9,4.8,2.8,4.8c9-0.3,18.8,2,26.6-4.2
					c13-10.3,28.8-5.5,42.8-9.8c0.6,0.6,1.2,1.3,1.9,1.9C41.1-27.3,34.2-12.6,27.3,2.1c-0.7-0.3-1.4-0.5-2.1-0.8
					c-1.6-5-2.9-10.2-4.9-15c-4.7-11.1-16-16-26.5-11.9c-7.8,3.1-12.2,12.4-9.8,21C-13.9,2.8-6.8,7.4,0.8,6.2
					C6.2,5.3,8.9,0.5,8.1-6.3c-0.5-4-2-6.1-6.6-4.4C1.7-9.4,2.1-8.3,2-7.2C1.9-5,2.3-2.1,1.1-1C0,0.1-3.2,0-5-0.6
					c-6.8-2.4-8.4-10.9-3.2-16c6.4-6.3,16.8-5.2,21.7,2.9c8.3,13.6,6.4,27.2-1,41.1c-1.6-1.2-2.9-2-4.1-3
					c-8.3-6.8-17.5-9.3-28.2-6.4c-12.8,3.4-22.6,14.2-23,26.2c-0.5,13.5,8.3,25.8,21.3,29.9c4.2,1.3,8.3,1.4,9.6-3.8
					c2.8-10.8,4.4-21.4-3.2-31.6c-2.7-3.7-3.1-9.2-4.5-13.9c5.4-0.4,10.8-0.7,16.1-1.1c0.4,0,0.9,0.3,1.3,0.5c9.3,4,11,8.5,8.1,18.4
					c-2.2,7.4-3.8,15-4.9,22.6c-6.8,48.3,12.3,85.6,49.9,114.6c27.8,21.4,59.5,26.4,93.4,21.1c2.8-0.4,5.7-0.5,8.5-0.7
					c0.4,0.8,0.9,1.5,1.3,2.3c-2.1,1.5-4.9,2.5-6.1,4.5c-2.8,4.5-6,9.2-6.8,14.2c-2.8,18.3,12.1,28.9,27.7,31.9
					c4.7,0.9,5.6-2.6,3.6-5.6c-5.1-7.5-5-16-5.2-24.4c-0.3-7.6-0.9-14.6-10.6-18.7c5.1-4.6,8.7-9.2,13.3-11.9
					c17.5-10,35.2-19.8,53.2-28.9c13.1-6.6,27-10.8,42-10c2,0.1,4,2.5,5.9,3.8c-3,3.7-5.4,8.4-9.2,10.9c-5.2,3.4-11.7,4.7-17.4,7.4
					c-23,10.9-42.7,25.6-53.4,49.6c-2.7,6.1-3.7,12.9-4.9,19.5c-0.8,3.9,0.7,6,5.5,5.3c12.1-1.6,24.2-2.5,36.3-3.7
					c8.2-0.8,16.5-0.9,24.5-2.8c11.2-2.6,22.2-6.4,33.9-9.9c-0.5,2.5-1.3,5.1-1.5,7.8c-0.5,6-1.9,12.3-0.7,17.9
					c2.4,11,10.7,17.7,21.4,20.1c12,2.6,22.7-1.1,29.5-11.7c6.3-9.7,11.6-20.1,16.7-29.1c28.3,4.1,56.5,8.1,85.6,12.3
					c-0.5-3.8-0.6-6.3-1.1-8.7c-6.1-26.4-22.6-44.9-45.3-58.2c-9.5-5.6-19.7-9.9-29.5-14.8c-4.1-2-11-12.6-9.2-13.5
					c3.9-1.8,8.8-3.2,12.9-2.4c10.3,2.1,20.9,4.2,30.3,8.6c16.7,7.9,32.7,17.4,48.9,26.5c1.3,0.7,1.8,4,1.5,5.9
					c-0.2,1.6-2.1,3-3.1,4.6c-6.3,10.2-7.5,20.4-0.7,31c5.9,9.3,13.3,15,25,15.4c14.7,0.4,25.1-15.3,27.7-25.9c0.3-1.2-1.6-4-3-4.5
					c-10.8-4.2-21.7-6.4-32.2,1.1c-2.1,1.5-4.2,3-6.4,4.3c-5.8,3.5-9.5,1.4-9.6-5.1c-0.1-9.2,4.9-15.8,10.6-21.7
					c46.6,16,89.3,11.5,126.5-22c36.7-33.1,49.4-74.2,38.2-123.1c3.1,1.7,5.1,3.4,6.9,5.3c7,7.5,19.1,9.8,29.3,5.3
					c8.4-3.7,18.5-18.6,17.8-26.3c-0.3-3.5-1.3-4.8-5.5-3.4c-6.5,2.2-13.3,4.3-20.1,4.6c-9,0.4-17.4,0.8-23.3,11
					c-4.6-5.1-9.2-8.9-12.2-13.7c-7-11.4-13.8-22.9-19.5-34.9c-6.8-14.3-12.7-29.1-18.4-43.9c-3.2-8.4-0.6-11.8,8.7-13.4
					c2.9,9.6,7.6,17.8,19.1,18.4c18.1,0.8,25.7-9.4,26.9-27.5c9.9,12.9,18.9,25.2,25.9,38.5c3.2,6,3.5,13.9,3.6,21
					c0.1,5.8-7.3,10.9-13.5,11.2c-6.5,0.3-5.4-5-6.9-8.6c-4.3-10.5-11.1-18.6-22.8-20.9c-7.5-1.5-13,3.3-12.9,10.8
					c0.1,11,16.9,27.1,27.9,25.3c11.2-1.8,24.1,1.2,33.5-12.3c1.8,6.3,3.4,10.3,4,14.5c0.7,4.3,3,6.8,6.9,6.1c2.5-0.4,6.5-3,6.5-4.5
					c0-3.2-1.9-8.9-3.7-9.2c-8.8-1.5-8.9-8.5-11-14.4c-3.4-9.6-6.5-19.4-10.3-28.9c-1.9-4.7-4.9-8.9-7.8-14c2.2,0,3.9-0.4,5.3,0.1
					c9.9,2.9,19.5,1.1,29.1-1.7c4.5-1.3,5-3,2.6-7c-4.5-7.5-8.4-15.3-12.6-23.2c18.3-5.2,21.8-8.7,25.1-26.1
					c1.2-6.4,1.1-13.1,1.9-19.6C702.2-153.5,682.8-168.4,668-173z M664.4-212.4c6.3-0.2,18.2,8.5,19.8,14.7c0.6,2.4,0.3,5.7-1.1,7.5
					c-0.8,1.1-4.7,0.8-6.8,0c-9.5-3.6-16.8-11.9-16.6-20C660.7-210.7,662.5-212.3,664.4-212.4z M641.3-285.4
					c16.4,6,22,17.8,14.8,34.3c-0.9-6.2-1.1-11-2.4-15.4c-1.2-4.1-1.8-9.5-8.9-9.3c1.7,8,3.4,15.5,5,23
					C637.7-263.4,633.4-273.4,641.3-285.4z M140.1-435c-5.7-1.4-7.1-3.1-4.2-8c5.4-9.2,17.5-18.7,27.8-12.3c0.9,0.6,1.6,1.5,2.6,2.4
					c-19.3,3.4-21.7,4.6-22.7,11.2c7.7-0.8,14.8-7,23.7-2.8C158.9-437.4,150.9-432.4,140.1-435z M-40.6-257.1
					c0.9-11.6,10.8-17.9,24.3-14.5c-5.9,2.2-11,4.1-16.1,5.9c0.3,1.1,0.5,2.3,0.8,3.5c7.1-0.8,14.1-1.5,21.4-2.3
					C-11.9-258.4-27.4-254.9-40.6-257.1z M20.5-170.6c1.7,4.5-1,6.6-4.9,5.7c-8.2-1.8-16.8-2.9-24.1-6.7c-13.4-7-26.1-9.4-39.8-1.1
					c4.6-10,11.4-17.6,21.9-20.1c8.8-2.1,17.9-2.6,26.9-3.8c5.3-0.7,9.5,1.5,11.7,6.1C15.4-184,18-177.3,20.5-170.6z M12-201
					c-9.6,0.2-19.4-0.8-28.8,0.7c-15.6,2.4-18.8,4.5-34,16c14.6-25.1,36.4-34.1,76.6-26.5C22.9-204.7,18.8-201.1,12-201z
					 M-15.8,61.7c-0.8,5-2.7,7.1-8,4.6c-10.6-4.9-18.8-21.8-9.6-30.2c2.1,8.7-0.7,19.5,11.8,24.6c-2.3-8.8-4.3-16.4-6.3-24.1
					c0.7-0.2,1.4-0.5,2.1-0.7C-17.2,42.4-14.1,51.1-15.8,61.7z M483.8,218.4c1.5,0.7,3.4,2.9,3.3,4.2c-1.1,13-19.7,21.2-31.7,13.3
					c19.6-2.5,21.4-3.3,22.7-11c-7.3,1.6-14.5,3.1-23.4,4.9C463.5,217.9,474,214.1,483.8,218.4z M664.1,39.6
					c-2.9,11.4-13.3,17.9-26.9,15.5c5.7-2,10-3.2,14-5c1.3-0.6,1.8-2.7,2.6-4.2c-1.7-0.4-3.4-1.5-4.9-1.2c-5.5,1-11,2.4-17.2,3.8
					C633.5,39.2,635.8,40.3,664.1,39.6z M633.2-3.4c-0.4,4.4-2.6,7.6-7.3,4.5c-5.4-3.5-10.8-7.3-15.2-12c-1.9-2-1.7-6.5-1.7-9.8
					c0-1.2,2.5-2.3,3.3-2.9C619.7-24,633.8-9.8,633.2-3.4z M603.5-187c0.8-0.5,1.7-1,2.5-1.5c4.1,4.6,9.7,8.5,11.9,13.9
					c3.7,9.1,5.3,19.1,7.4,28.8c0.4,1.9-0.8,4.6-2,6.4c-3.6,4.8-7.2,11.4-14.4,8.9c-6.3-2.2-5.1-9.4-5.2-14.6
					C603.2-159.1,603.5-173.1,603.5-187z M581.8-157.5c1.1-11.5,4.2-22,15.7-29.6c0.3,2.8,0.7,4.4,0.7,5.9c0.2,14.5,0.5,29,0.4,43.5
					c0,2.4-1.8,4.7-2.8,7.1c-2.5-1.3-5.7-2-7.5-3.9C582.2-140.9,580.9-149,581.8-157.5z M474.6-434.9c-2.3-6.1-4.2-11.2-6.2-16.4
					c-1.1,0.2-2.1,0.5-3.2,0.7c0.7,6.9,1.4,13.9,2,20.8c-1,0.2-2,0.4-3.1,0.6c-6.7-9.6-2.5-21.3-5.8-31.8
					C470.3-460.5,478.1-448.2,474.6-434.9z M431.7-475.2c5.1-0.5,6.7,1.6,6.2,6.5c-1.3,13.3-13.6,25.8-26.8,26.9
					c-2.1,0.2-4.2,0.5-6.6,0.8C403-457.5,416.3-473.7,431.7-475.2z M421.7-438.1c7.9,1.7,15.1,2.8,21.9,5c2.6,0.8,5.6,4.1,6,6.7
					c0.3,1.9-2.9,5.3-5.3,6.5c-13.8,7-28,6.5-42,0.9c-2.8-1.1-6.5-4.7-6.4-7.1c0-2.4,3.8-5.8,6.7-6.9
					C408.9-435.3,415.6-436.5,421.7-438.1z M382.2-480.6c1.2-2.8,4.7-6.3,7.3-6.3c2.2,0,5.6,3.9,6.5,6.8c2.2,6.5,3.2,13.5,4.8,21.2
					c-1.9,7-3.6,14.4-6.1,21.6c-0.8,2.2-3.8,4.9-5.9,5c-1.9,0.1-4.6-2.8-5.7-5C375.8-451.5,376-466.1,382.2-480.6z M380.2-400.2
					c0.3-1.2,3-2.1,4.7-2.4c1.2-0.3,2.7,0.5,4.1,0.9c10.6,3.4,13,1.4,11.1-10.8c2.7,0.3,5.4,0.1,7.6,1c13,5.6,25.5,2.1,37.6-2.4
					c5.2-2,9.3-7.1,14.7-11.4c0.6,0.5,2.2,1.8,5,4c-3.6,3.6-6.4,8-10.4,10.1c-24.8,13-49.8,25.6-74.8,38.2c-1.3,0.7-3,0.7-5.4,1.2
					C376.3-381.8,378-391.1,380.2-400.2z M355.4-354.7c-1.2,4-1.7,6.4-2.6,8.7c-5.8,14.2-5.1,27.3,5.8,39.1c2.7,3,4.1,7.1,7,12.4
					c-12.1-2.2-22.8-2.7-32.3-6.3c-11.5-4.3-17.4-14.5-18.3-26.9c-0.5-7-0.2-14.1-0.2-21.1c0-3.5,0.9-5.9,5.1-5.8
					C331.2-354.6,342.4-354.7,355.4-354.7z M367.7-345.8c11.1,7.3,12.9,33.4,2.8,45.6c-14-15.3-20.9-31-10.8-46.1
					c2,4.5,3.9,8.3,5.3,12.3c1.4,3.9,2.3,8,3.4,12c1.2-0.2,2.3-0.5,3.5-0.7C370.5-330.5,369-338.3,367.7-345.8z M320.7-301.8H304
					c2.5-3.9,4.4-6.8,7.3-11.3C314.3-309.6,316.8-306.6,320.7-301.8z M346-360.8c-10.3,0-20.2,1.4-29.5-0.6
					c-4.6-0.9-8-7.9-12.1-12.2C315.3-381.6,337.3-374.3,346-360.8z M302.9-382.1c-4.4,0.5-9,0.8-13.3,0.2c-2.7-0.4-6.7-2.6-7.1-4.6
					c-0.5-3.1,0.6-7.4,2.7-9.7c6-6.6,13.4-11.8,19-18.6c5.1-6.2,9.1-13.6,12.7-20.8c2.9-5.8,3.1-12.1-0.7-18.1
					c-2.2-3.6-2.4-6.9,0.9-10.7c3.3-3.9,5.9-2.5,9.1-1c0.6,0.3,1.4,0.2,2.1,0.3c17,2.1,25.4,11.9,25.2,29.4
					C355.7-401.8,328.5-385.3,302.9-382.1z M355.4-473.7l-4.5,4.5l-5.9-5.9l4.5-4.5L355.4-473.7z M347-483.3
					c0.1,0.1,0.2,0.2,0.2,0.4l-0.2-0.2l-6.4,6.6l-1.5,1.5l8.9,8.9l-1.4,1.4l-9.1-9.1l-8.1-0.3l-2.8-0.1l-6.2-6.7H316
					C321.8-491.7,339.4-493.4,347-483.3z M308.8-473.7l8.5,0.3l-6.6,8.3l0,0.1c-0.4,0.5-0.7,1-1.1,1.4l-0.1,0.1l-1.9,2.4H299
					L308.8-473.7z M251.2-484c0.6-2.2,3.5-5.2,5.5-5.3c2.1-0.1,5.6,2.4,6.3,4.6c2.6,7.6,4.3,15.6,6.5,23.8c-2,7.2-3.6,14.2-6.1,20.8
					c-0.9,2.4-4.2,5.4-6.3,5.3c-2.3-0.1-5.5-3.2-6.3-5.6c-2.1-6.4-4.3-13.1-4.1-19.7C246.8-468.2,249.1-476.2,251.2-484z
					 M207.9-469.6c-1-6.6,2-9.5,8.5-7.4c13.5,4.4,27,12.2,25.5,33C225.5-442.4,210.3-454,207.9-469.6z M221.3-415.4
					c-7.3-2.5-14.6-4.6-21.6-7.4c-1.9-0.8-3.9-3.7-4-5.7c-0.1-1.6,2.2-4.1,4-5c14.9-6.8,30.2-8,45.3-0.7c2.4,1.1,5.4,4.2,5.3,6.3
					c-0.1,2.2-3.2,5.3-5.6,6.2C237.3-419.2,229.6-417.6,221.3-415.4z M234.3-392.6c14.1-17.1,27.7-34.8,43-50.7
					c5.5-5.7,14.8-8.6,23-10.7c9.9-2.6,15.1,5.1,11.7,15c-6.4,18.6-20.6,30.3-35.8,41.2c-10.6,7.5-22.1,13.1-36.8,14.9
					c-1.4-0.7-4.5-1.4-6.4-3.4C232.1-387.2,233-391,234.3-392.6z M223.5-368.8c5.8-12,16.3-8.5,27.2-8.2
					c-15.7,14.8-30.6,28.8-45.8,43.2c-2.5-1.9-4.3-3.3-6.8-5.2c8-9.4,16-18.8,24-28.2C222.5-367.8,223.2-368.2,223.5-368.8z
					 M37.6-133.5C72-139.4,99.5-118,99.5-118C95.5-81,64-59.6,64-59.6s-20-14.3-30.5-30.1C23-105.6,37.6-133.5,37.6-133.5z
					 M-5.8-115.4c8.3-5.2,17.3-9.1,26.1-13.4c2.2-1.1,4.7-1.5,6.6-2c-0.9,11.6-1.5,22.3-2.6,32.9c-0.2,2-2.1,4.8-3.9,5.7
					c-16.7,7.6-34.1,11.7-52.4,7c-11.8-3-20.8-10.2-27.5-21C-39-95.9-22.4-105-5.8-115.4z M22.2-46.9C15-47.1,8.6-46,2.8-40.9
					c-5.6,4.9-12.8,6.5-22.1,5c1.9-3.6,2.8-7.1,5.1-9.1c6.4-5.5,13.5-10.3,20.1-15.5c1.3-1,2-2.6,2.9-4c-2-0.6-4.5-2.4-5.8-1.7
					c-5.5,3-10.5,6.8-16,9.9c-2.1,1.2-5.5,2.4-7.2,1.5c-18.4-10.1-33-24.2-42.6-43c13.4,14.4,30,21.8,49.4,20.4
					c11-0.8,21.9-4.8,32.6-7.9c5.7-1.7,8.6-1.5,12.3,4.4c5.1,7.9,12.6,14.3,19.1,21.3c1.5,1.6,3.4,2.9,6.5,5.5
					C44.7-49.4,33.8-46.6,22.2-46.9z M162.5,243.9c-12.3-2.6-18.9-14.9-13.4-24.8c3,11.4,3,11.4,8.1,13.8c-0.7-7.2-1.4-13.8-2.2-21
					C160.8,214.1,164.4,232.3,162.5,243.9z M268.9,131.1c7.4-14.2,5-28.1-3.9-41.1c-2.6-3.8-5.4-7.4-8.1-11.1c0.5-0.6,1-1.2,1.5-1.8
					c2.9,0.7,5.7,1.6,8.6,1.9c17,1.8,34,3.8,51,5c9.3,0.6,9.8,0.5,9.3,10c-0.7,13-5.3,24.7-13.1,35c-1.8,2.4-5.1,3.8-8,5.1
					c-7.6,3.4-15.7,5.9-23,9.9c-4.7,2.6-7.6,1.5-10.3-1.9C270.5,139,265.7,137.2,268.9,131.1z M254.5,128
					c-10.7-6.6-12.5-33.7-2.6-44.4c15.5,16.9,19.8,32.7,10.8,45.2c-2-5.1-3.6-9.2-5.2-13.3c-1.5-3.9-2.9-7.8-4.3-11.7
					c-1.2,0.4-2.4,0.7-3.6,1.1C251.2,112.6,252.9,120.2,254.5,128z M204.8,212.4c9.7,13.1,8.6,15.2-10.7,21.1
					C197.9,226.1,201.2,219.6,204.8,212.4z M209.1,241.8c-3.4,0.1-6.9,0-10.3,0c-0.3-0.7-0.7-1.4-1-2.1c5.7-3,11.3-6,17.1-9.1
					C218.7,239.9,217.7,241.5,209.1,241.8z M219.2,222.8c-4-3-6.9-9.8-6.9-14.9c0-3.8,5.3-7.7,8.3-11.5c0.8,0.4,1.6,0.8,2.3,1.2
					c1.1,3.7,1.8,7.7,3.5,11.2c1.6,3.5,4.2,6.6,7.5,11.5C228.5,221.4,221.8,224.8,219.2,222.8z M230,240.8c-5.9,1.1-7.2-3.6-7-7.9
					c0.5-8.3,8.3-6.5,12.8-7.1c7.1-0.9,2,6.6,4.7,9C240.2,242.7,233.9,240.1,230,240.8z M232.9,206.9c-0.5-0.8-1-1.6-1.4-2.4
					c-5.2-10.5-3.7-14.1,7.1-18.5c6.2,8.2,12.3,16.3,18.4,24.5C248.8,219.4,239.2,218.3,232.9,206.9z M253.9,238.2
					c-4.7,1-7-0.6-7.6-5.4c-1.4-10.3,1.1-13.2,12.9-14.3C262.7,233.1,261.7,236.5,253.9,238.2z M264,205.3
					c-4.5-3.5-9.1-7.1-12.8-11.4c-2.5-2.9-3.7-6.9-6-11.6c6.3-2.9,12-5.5,17.2-7.8c2.3,9.9,4.3,18.2,6.2,26.5
					c0.3,1.2,0.4,3.3-0.2,3.7C267.2,205.4,264.9,206,264,205.3z M279.5,228.8c-3.1,2.2-7.1,3-10.7,4.5c-0.8-4.2-2.6-8.5-2.2-12.5
					c0.3-3.9,2.9-7.6,4.5-11.4h2.6c3.2,4.1,6.9,8,9.2,12.5C283.7,223.3,281.5,227.4,279.5,228.8z M383,234.7
					c-1.6,4.9-4.5,2.8-7.2,2.2c-2.9-0.7-7.1-0.2-6.1-5.4c0.8-4.1,1.5-8.2,2.3-12.7C384.4,221.3,386.3,224.7,383,234.7z M404.6,235.8
					c-1.6,5.2-5.5,6.4-12.3,3.7c-4.2-1.7-4.3-5.6-0.4-13.6C404,228.4,406.2,230.2,404.6,235.8z M411.7,232.3c4,2.9,7.5,5.4,11.1,8
					C410.6,242.3,409.5,241.5,411.7,232.3z M417,216.8c0.6-0.2,1.3-0.4,1.9-0.6c3.2,6,6.4,12,9.7,17.9c-0.6,0.5-1.2,1-1.8,1.4
					c-4.2-3-8.4-5.9-12.8-9C415,223.2,416,220,417,216.8z M409.5,221c-4.1,6.6-8.8-0.1-14.3,0.2c3.2-6.8,5.9-12.8,8.9-19.2
					C412.4,206.9,414.3,213.3,409.5,221z M396.3,204.3c-5.9,13.8-7.1,14.2-21,8.2c3.7-7.9,7.3-15.9,11.2-24.1
					C397.6,193.2,399.7,196.6,396.3,204.3z M359.4,175.3c3,1.2,5.2,1.9,7.2,3c4.4,2.6,12.8,6.3,12.4,8c-1.6,7.2-5.6,13.9-9.3,20.6
					c-0.6,1-4.3,1.1-6,0.3c-1.8-0.8-4-3.1-4-4.8C359.1,193.8,359.4,185.2,359.4,175.3z M354.9,226.4c1.2-4.5,2.2-9,3.4-13.8
					c7.1,0.9,8,6.1,7.2,11.3c-0.5,3.2,0.5,8.7-6,8.3C355.8,231.9,353.8,230.5,354.9,226.4z M354.5,188.1c-1.6,28.3-6.8,50.9-20.1,71
					c-2.1,3.1-4.4,6.2-7,8.8c-8.1,8.1-18.6,9.1-28.3,3.2c-7.9-4.8-12-16.3-9-26c3.7-12.1,2.3-22.8-6.5-32.6
					c-11.2-12.5-17.2-26.5-11.2-43.8c5.8-16.6,19.7-27.6,37.8-28.7c16.2-1,32.8,8.4,38.9,23.9C352.5,172.8,353.3,182.8,354.5,188.1z
					 M608.6,39.3c15.9,40.6,10.9,80-18.1,114.2c-15.2,17.9-33.1,32.6-56.5,39c-4.2,1.2-8.5,2.1-13.9,3.4
					c9.2-6.4,17.6-11.7,25.3-17.8c12-9.5,20.5-21.6,25.1-36.4c1.2-3.9,4.6-7.6,7.9-10.1c10.1-7.8,16.1-17,16.2-30.3
					c0-7.8,2.5-15.6,3.6-23.5c0.3-2.4,0.6-5.4-0.5-7.2c-0.7-1.1-4.2-0.4-6.5-0.2c-1.4,0.1-3.2,0.3-4,1.2c-6.5,6.7-11.9,5.7-17.7-1.3
					c-3.4-4.1-7.4-3.4-10.4,1.2c-1.3,2-2.8,3.8-3.9,5.8c-1.9,3.4-4,5.5-8.7,5.7c-4.2,0.2-8.4,2.6-12.2,4.7c-1.1,0.6-1.7,4.3-0.9,5.6
					c5.5,9.2,11.2,18.3,17.3,27.1c3,4.4,6.6,8.8,10.8,11.9c4.5,3.3,4.9,6.7,2.7,10.8c-3.9,7.2-7.2,15.1-12.6,21
					c-20.6,22.5-45.8,35.6-77.1,29.4c-12.3-2.5-24-9-35.5-14.7c-14.3-7-27.9-15.5-42.2-22.4c-14.3-6.9-29.4-11.1-45.6-7.9
					c-2,0.4-4.7-0.1-6.6-1.2c-8.1-4.5-16-9.2-24.8-14.4c2.5-4.5,5.6-10.3,8.9-16.3c2,2.5,4.1,5.2,6.2,7.9
					c12.3,15.9,36.7,15.2,48-1.4c6.1-9,3.5-29.4-5.1-35.8c-1.9-1.4-6.6-1.3-8.7,0c-10,6.2-15.5,15.3-15,27.6
					c0.2,5.1,1.2,12-4.8,13.1c-3,0.5-7.7-4.9-10.8-8.5c-7-8-5.9-17.8-5.2-27.4c0.2-2.8,0.3-5.6,0.4-7.6c18.6-5,36.5-9.8,54.5-14.6
					c-0.1-0.2,0.1,0,0,0.1c-5.7,10.4-4.9,11.6,6.9,15.2c14.6,4.4,29.1,4.6,43.5-0.9c16.3-6.2,21.7-22.4,12.7-37.3
					c-1.8-3-3.1-6.4-4.9-10c18.9-1.5,47.1,17.7,41.9,46.1c-2.5-0.3-4.9-0.8-7.4-1c-7.1-0.5-10.3,2.7-7.9,9.2
					c2.7,7.5,0.4,11.1-6.5,14.1c-11.2,4.7-19.3,13.3-25.6,23.5c-2,3.2-3.7,6.6-4.6,10.2c-1.2,5.2-2.7,11.9,2.9,14.7
					c4.3,2.1,10.5,1.9,15.4,0.8c4.6-1,8.5-4.5,13.7-7.5c0.6,3,0.7,6,1.7,8.6c2.4,6.5,4.3,13.4,8.2,19c4.3,6.2,11.9,6.1,15.8-0.2
					c3.7-5.9,5.5-13.1,7.8-19.8c0.8-2.3,0.5-4.9,0.8-8.2c6.1,2.9,11.2,5.8,16.6,7.6c12.2,4.1,19.3-2.3,16.2-14.8
					c-3.8-15-14.4-24.8-27.4-32.3c-1.4-0.8-2.9-1.4-4.9-2.4c1-1.5,1.8-2.8,2.8-3.9c6-6.5,5.1-10.9-3.7-13.5
					c-5.3-1.5-7.1-4.4-7.4-9.4c-1.6-25.7-15.8-40.6-40.2-46.7c-2.2-0.6-4.4-1.3-7.6-2.2c5.8-6.7,10.9-12.7,16-18.7
					c1.1-1.3,2.6-2.4,3-3.8c0.5-1.5,0-3.4,0-5.1c-1.6,0.6-3.6,0.8-4.6,1.9c-5.6,6.3-10.6,13.2-16.5,19.2
					C414.5,53,377.8,71.6,334.9,77c-40,5.1-77.8-2.4-113.5-21.5c-23.7-12.7-42.7-30.4-59.5-50.9c-1.4-1.6-3.4-2.7-5.2-4.1
					c-0.8,0.7-1.5,1.3-2.3,2c2.3,3.5,4.1,7.3,6.9,10.4c3.4,3.7,3.5,6.6-0.9,8.9c-5.6,3-11.1,6.2-17,8.2c-2.5,0.8-6.4-0.6-8.7-2.4
					c-1-0.7,0.1-5,1.1-7.3c1.6-3.8,4.3-7.3,5.9-11.1c7.3-17.2,2.8-32-12.6-42.9c-3.6-2.5-6-2.8-8.3,1.7c-8.4,16.7-9.7,34-2.8,51.1
					c5.9,14.7,23.9,23,39.6,11.4c2.4-1.8,5.2-3,8-4.6c1.5,23.8-20.7,46.3-46.8,42.8c0.5-1.8,1.3-3.4,1.3-5.1
					c0.1-3.1,0.9-6.9-0.7-8.9c-1.3-1.7-5.9-2.6-8.2-1.7c-8,3.1-11.2-0.9-14.8-7.3C88,30.9,77,18.7,58.9,15.7
					c-9.2-1.5-16,6.7-12.6,15.5c2.2,5.8,5.7,11.1,8.6,16.7c-7.3,2.2-14.5,4-21.4,6.4c-5.4,1.9-9.2,5.3-9.7,11.6
					c-0.5,6.5,3.3,9.6,8.4,11.4c7.4,2.7,14.9,4.9,23,7.5c-2,3.8-4.5,8-6.2,12.4c-2.1,5.4-3.3,11.3,1.6,15.8
					c5.2,4.7,11.5,3.9,17.2,1.1c12.2-6.1,22.9-13.9,28.1-27.3c0.6-1.4,1.6-2.7,2.8-4.6c1.1,1.2,1.7,2.2,2.5,2.7
					c2.4,1.4,5.2,4.1,7.2,3.6c2.5-0.7,5.9-3.8,6.2-6.1c0.6-5.1,3.6-6.2,7.5-6.7c31-4.4,42.1-14.1,50-43.7c0.3-1.3,0.9-2.5,1.9-5
					c21.7,21.5,46.5,36.5,74.9,46.9c-1.6,3.3-3,6.2-4.4,9.1c-6.7,13-6.1,26.2-1,39.5c2.6,6.9,6.7,11.8,14.3,14.3
					c4.2,1.4,7.4,5.6,12.2,9.6c-15.6,3.4-27.9-2.3-40.5-4.8c-3.6-0.7-7.1-2.3-10.7-3.3c-10-2.7-18.1-6.2-17.7-19.4
					c0.2-4.6-4.5-9.5-7.2-14.1c-2.5-4.2-5.3-8.1-7.8-12.3c-2.3-3.8-5.1-4.1-7.9-1c-1.7,1.9-2.5,4.6-4.3,6.4c-1.7,1.8-4,4.1-6.1,4.3
					c-5.3,0.5-8,2.7-7.4,8c0.6,4.7-1,8-4.8,10.9c-1.8,1.3-3.2,3.5-4.2,5.5c-1.6,3.3-0.4,4.8,3.4,5.6c7.2,1.6,14.5,3.5,21.4,6.2
					c6.6,2.5,12.7,2.8,19.1,0c1.8-0.8,4.3-1.6,5.9-1c12.1,4.3,24,9.1,35.1,13.3c-24.3,12.6-48.9,26.2-74.3,38.2
					c-19.9,9.4-41.4,10-62.8,6c-37.1-6.9-62.3-30.3-81-61.2c-5.5-9.1-7.7-20.2-10.1-30.7c5.8,8,11.2,16.3,17.6,23.8
					c9.6,11.2,21.1,19.9,35.7,23.9c3.3,0.9,6.6,3.7,8.8,6.5c9.7,12.2,21.6,18.8,37.7,18.2c6.4-0.2,12.9,1.8,19.3,3.2
					c5.5,1.2,7.1-0.1,5.8-5.6c-0.4-1.6-0.7-3.3-1.6-4.6c-4.5-7.2-5.2-13.5,1.6-20.3c4.3-4.3,0.5-8.8-3.8-10.7
					c-7.1-3.1-10.7-7.7-10.5-15.5c0-1.3-0.9-2.7-1.5-3.9c-4.3-8.8-4.7-8.5-11.9-1.9c-4.4,4.1-10,6.7-15,10.2
					c-7,5-14.3,9.7-20.6,15.4c-2.9,2.6-4.9,3.3-8.5,2.2c-22.1-6.7-36-22.6-45.4-42.3c-4.5-9.3-6.6-20-8-30.4
					c-2-14.4,3.3-27.7,9.8-40.3C26.9,12.6,36.9-5.7,46.7-24c0.1-0.2,0.2-0.4,0.2-0.7C50-46.8,67.3-54.9,84.8-62.3
					c6.5-2.7,13.9-3.9,21.1-4.6c5.8-0.5,12.1,5.1,12.4,9.5c0.4,5.8-4.5,11.5-10.9,13c-5.6,1.3-8.9-1-11.1-8c2.1-1.7,4.3-3.4,6.5-5.1
					c-0.3-0.8-0.7-1.7-1-2.6c-2.9,0.8-7.5,0.8-8.4,2.6c-1.7,3.3-2.7,8.4-1.4,11.6c2.6,6.4,8.9,7.6,15.5,7c8-0.6,13.3-5.2,15.7-12.2
					c2.1-5.9,1.1-12.1-4.2-16.7c-8.4-7.3-17.8-5.9-27.3-3.3c-1,0.3-2,0.7-4.8,1.7c3-5.5,5.4-9.4,7.2-13.5
					c4.1-9.7,7.8-19.5,11.7-29.2c2.1-5.2,0.8-9.7-4.2-11.9C89.9-129.3,78-134,66-138.6c-3-1.2-6.4-1.1-9.7-1.7
					c4.2-10.4,8.7-12.4,18.5-8.9c13.4,4.8,25.6,3,37.2-5.6c4.6-3.4,10-5.9,15.4-7.9c4.6-1.8,4.4-4.2,1.6-6.6
					c-17.3-15.1-44.4-14.3-58.4-1.7c-1.7,1.5-2.4,3.9-3.7,5.8c-3.1,4.7-6.2,9.4-9.3,14.1c-1-0.4-2.1-0.7-3.2-1.1
					c0.3-6.1-0.3-12.4,1.2-18.2c3.3-13.2,7.6-26,11.5-39.1c1.7-5.7,4.7-8.4,11.5-8.9c5.9-0.4,11.7-4,17.1-6.8
					c4.7-2.5,8.7-6.3,13.4-8.9c4.3-2.4,4-4.7,0.9-7.5c-1.9-1.7-4.1-3-6.1-4.6c-1.2-1-3.2-2.2-3.2-3.4c-0.3-8.8-5.5-10.3-12.9-9.7
					c-1.5,0.1-3.3-1.7-4.7-2.9c-2.1-1.8-3.9-4.2-6.2-5.5c-3.3-1.8-5.5-0.9-6.5,3.4c-1.2,5.6-3.1,11.1-5,16.5
					c-3,8.3-6.1,16.4-0.8,24.9c0.7,1.1,1,2.8,0.6,4c-4.3,12.3-8.8,24.4-13.3,36.9c-5.6-11.4-11-22.7-16.8-33.9
					c-5-9.6-10.5-18.8-15.6-28.3C6.4-268.4,2.1-294.1,7.7-321c7.9-37.7,31-64,64.1-82c8.6-4.6,18.6-6.6,28.5-8.3
					c-7.1,4.8-14.3,9.4-21.2,14.4C66.3-387.4,57-375.5,52.2-360c-1.2,3.9-4.1,8-7.4,10.4c-11.4,8.7-17.8,19.4-17.9,34.1
					c0,6.9-2.1,13.7-3.2,20.6c-0.3,2-0.6,4.1-0.9,6.5c6.7,1.6,12.6,1.4,17.3-3.5c2.9-3,5.1-2.5,7.7,0.1c1.7,1.7,3.4,3.3,5.4,4.5
					c4.7,2.9,9.2,3.1,11.5-2.8c2.7-6.9,5.9-12.2,14.9-11c2.7,0.4,6.1-2.2,8.6-4.1c1.1-0.9,1.9-4.2,1.2-5.3
					c-6.9-10.8-14.2-21.4-21.4-32c-1.3-1.9-2.7-4.3-4.7-5.2c-8.6-4.1-6.4-10-3.5-16.4c15.3-33.3,56.5-55.9,89.1-46.2
					c17.1,5.1,32.9,14.7,49,22.6c7.5,3.7,14.6,8.2,22.4,12.7c-11.2,14-23.5,26.2-32.2,40c4.5,3.4,7.8,5.5,10.8,8.1
					c3.7,3.2,6.2,0.5,8.5-1.6c11.2-10.3,22.3-20.8,33.5-31.3c5-4.6,9.5-10,15.1-13.7c3.7-2.4,9-3.4,13.6-3.5
					c6.2-0.1,12.5,1.6,18.8,2c11.6,0.7,12.6,1.3,16.2,14c-2.6,0.2-5.1,0.5-7.5,0.5c-10.1,0.1-20.2-0.2-30.3,0.2
					c-3.3,0.1-6.6,1.7-9.9,2.6c3.2,1,6.4,2.6,9.6,2.7c11.5,0.3,23.1,0.5,34.6,0c6.8-0.3,8.7,2.3,8.2,8.6c-0.5,5.9-0.1,11.8-0.3,17.6
					c-0.5,16-10.1,26.2-25.5,29.4c-16.6,3.5-33,8.1-49.6,12.3c0.2,0.6-0.1,0.1,0-0.1c5.3-10.8,4.5-12.7-7.6-15.7
					c-13.7-3.4-27.6-4.2-41,0.4c-17.5,6.1-23.2,21.4-14.8,37.9c1.5,2.9,3.2,5.7,4.6,8.6c0.2,0.5-0.1,1.3-0.2,2
					c-27.3,0.7-47.1-28.5-40.5-47.1c1.9,0.5,3.9,1.1,5.9,1.5c7.4,1.6,11.7-2.3,9.1-9.1c-3-7.7-0.3-11.2,6.5-14.1
					c14.1-6,23.1-17.3,29.4-30.9c2.8-5.9,3.5-12-1.3-17.1c-4.7-5.1-10.4-3.2-15.7-0.9c-4.6,2-9.1,4.4-14.1,6.9
					c-1.5-6.3-2.5-12-4.3-17.4c-1.1-3.5-2.9-7-5.3-9.8c-5.9-6.7-14.4-5.5-18.4,2.3c-2,3.9-3.8,8.1-4.9,12.3c-1.1,4-1.1,8.3-1.7,13.1
					c-4.6-2.2-8.5-4.6-12.8-5.9c-3.7-1.2-7.8-1.7-11.7-1.8c-5.6-0.1-8.5,3.2-8.6,8.9c-0.3,14.8,8.9,24.2,19,32.9
					c4.1,3.6,9.1,6.2,13.9,9.3c-0.4,0.3-1.4,0.8-1.7,1.5c-1.5,2.9-4,6.1-3.6,8.8c0.3,2.3,3.9,5.1,6.6,5.8c4.5,1.1,6.6,3.3,6.5,7.7
					c-0.2,24.6,18.4,46.7,45.8,49.3c0.6,0.1,1.2,0.6,2.1,1.1c-5.4,10.1-16.6,16.1-20,27.3c0.6,0.6,1.2,1.1,1.8,1.7
					c1.5-1,3.5-1.7,4.5-3.1c28.2-37,65.5-60,110.3-70.8c25.9-6.2,52.3-6,78.3-0.3c43.4,9.6,79.2,32,107.9,66
					c2.3,2.8,2.9,8.6,10.6,5.9c-3.9-5.4-7.4-10.3-11.9-16.5c7.9-3.8,14.9-7.8,22.5-10.5c2.7-0.9,6.4,1.2,9.7,2c-0.7,3-1,6.2-2.3,9
					c-2.7,5.9-6.5,11.4-8.6,17.5c-2.7,8-0.7,15.8,4.7,22.7c0,0,7.7,8.4,17.7,14.3c0.2-0.5,0.3-0.9,0.6-1.3c6.7-10.1,8.7-21.4,7.7-33
					c-0.8-8.4-2.8-17.2-6.4-24.8c-5.9-12.5-20-16.1-32.5-9.6c-4.1,2.1-8.3,4.3-12.6,6.5c0.6-27.2,22.3-46.6,47.4-42.2
					c-0.6,2.2-1.4,4.3-1.9,6.5c-1.6,6.5,2,10.9,8.3,8.9c8.3-2.7,11.8,0.4,15.5,7.6c6.8,13.3,17.6,23.1,31.7,28.5
					c5.3,2,11,3.6,15.7-1.4c4.7-4.9,2.9-10.7,0.9-15.9c-1.7-4.5-4.6-8.6-7.4-13.8c3.3-0.8,6.2-1.1,8.9-2.1c6.3-2.3,13.2-4,18.6-7.7
					c6.8-4.7,6.1-13.4-1.2-17.4c-5.8-3.1-12.6-4.4-19.1-6.3c-2.2-0.6-4.6-0.5-7.7-0.8c2.7-6.1,6.1-11.3,7.3-17
					c0.9-4.3,0.5-10-1.7-13.7c-2.8-4.7-8.4-3.6-13.5-2.1c-16.9,5-26.4,17.7-34.6,32.6c-1.4-1.5-2.5-2.9-3.9-4
					c-5.1-4.1-10.8-2.6-12.6,3.7c-1.7,5.9-5.4,7.5-10.8,7.9c-22.5,1.5-38.3,14.7-44.5,36.6c-1,3.3-2.5,6.5-4,10.7
					c-6.1-5.1-11.8-9.9-17.5-14.5c-15.7-13-33.2-22.9-52.6-29.3c-4.7-1.6-4.9-3.5-2.6-7.1c10.2-16,10.1-32.4,0.8-48.5
					c-2.2-3.9-7-6.3-10.7-9.2c-3.8-3-7.9-5.7-11.9-8.5c0.4-0.9,0.8-1.9,1.2-2.8c5.7,0.4,11.5,0,17,1.4c13.6,3.4,27,7.6,40.5,11.6
					c5.6,1.7,7.5,5.6,8.1,11.5c0.6,5.3,3.5,10.4,6.2,15.2c2.6,4.7,6.4,8.7,9,13.4c2.9,5.2,5.8,6.4,9.3,1.8c3.7-5.1,7-10,14.1-10.8
					c1.2-0.1,3-3.6,2.9-5.5c-0.2-5.2,0.1-9.7,5.5-12.4c1.5-0.8,2.5-2.8,3.3-4.5c1.5-3.2,0.7-4.8-3.3-5.8c-8.1-2-15.9-5.2-24.1-7
					c-5-1.1-10.5-0.5-15.7-0.5c-3.5,0-7.2,0.9-10.4-0.1c-10.5-3.1-20.7-6.9-32.3-10.8c2.6-1.4,4.2-2.4,5.9-3.3
					c18.8-9.6,38-18.4,56.2-29c37.4-21.8,89.8-18.2,124.2,10.1c17.7,14.6,32.1,31.6,39.8,53.6c2.1,6.1,3.1,12.6,5,20.7
					c-5.9-9.1-10.1-16.9-15.5-23.8c-10.2-13.2-22.6-23.8-39.3-28.1c-2.4-0.6-5.3-1.9-6.5-3.8c-10.2-16.8-25.6-21.9-44.3-21.1
					c-4.6,0.2-9.6-1.7-14.1-3.5c-5.1-2.2-6.8-0.2-6.4,4.3c0.4,3.6,1.1,7.8,3.3,10.5c3.6,4.5,2.9,7.6-0.4,11.6
					c-6.8,8.3-6.4,11,3.2,15.8c4.9,2.4,6.5,5.5,7.2,10.7c0.5,4.2,2.7,8.4,4.9,12.1c0.5,0.8,4.6,0.6,6.2-0.4
					c7.8-4.7,15.4-9.6,22.9-14.8c5.3-3.8,10.8-7.6,14.9-12.5c2.8-3.3,5-4.1,8.9-3.1c14.3,3.8,24.8,13.3,34,24
					c12.8,15,20.3,32.5,20.3,52.7c0,14.7-6.7,27-13.5,39.4c-9.1,16.6-18.4,33.1-26.6,50.2c-3.4,7.1-4.3,15.5-7.1,23.2
					c-3.5-8.7-3.7-17.6-2.4-26.6c0.5-3.3,1.3-6.5,1.4-9.8c0.3-11.4-3-15-14.3-16.8c-2.4-0.4-4.8-1.6-6.9-3
					c-9.6-6.5-17.8-3.7-19.7,7.7c-1.4,8.4-1.3,17.2-0.8,25.7c0.3,6.7,5.6,9.5,11.8,9.7c6.3,0.1,8.8-4.1,9.7-9.9c0.9-6,2-12,3.4-17.9
					c0.5-2.3,2.3-4.2,3.5-6.3c2.6,1.9,5.5,3.5,7.8,5.8c0.8,0.8,0.4,3.2,0.3,4.8c-0.9,12.1-1.8,24.1-2.8,36.6
					c-10.8-2.3-21.7-0.3-31.9,6c-11.4,7-19.1,16.3-18.4,30.2c0.5,10.7,1.1,21.6,3.7,31.8c2.7,10.2,9.9,18.7,23,17.7
					c1.8-0.1,3.6,0.4,5.7,0.6c-2.5,7.3-4.5,14.3-7.4,20.8c-2.7,6.1-2.2,9.8,5,11c1.5,0.2,2.8,1.4,4.1,2.1C540.1-43,525.7-33,518-34
					c-8.4-1-11.3-3.8-12.2-11.4c-6,0.2-10,7.9-8.8,14.4h16.5c0.3,0.8,0.5,1.7,0.8,2.5c-4.1,6-8.7,11.8-12.1,18.2
					c-1.6,3-2.3,7.6-1.2,10.7c0.6,1.6,6.5,2.9,8.9,1.8c2.1-1,4.3-5.7,3.7-8.2c-2.2-10,0.5-17.9,10.5-22.4
					c10.1-4.6,17.8-11.7,25.5-19.3c3.8-3.7,10.7-4.2,18.1-6.8c-1.5,7.9-2,13.7-3.7,19.1c-3.2,10.3-6.9,20.4-10.9,30.4
					c-0.8,2-3.9,4.1-6,4.2c-8.4,0.6-15.3,4-21.8,8.8c-4.1,3-8.5,5.8-12.9,8.4c-3,1.8-4.6,3.5-1.5,6.4c2.3,2.2,5,4.1,7.4,6.3
					c1.4,1.3,3.6,2.9,3.6,4.4c0.1,6.8,4.8,8.3,9.8,8.5c4.3,0.2,7.3,1,9.9,5c1.6,2.4,5.7,3.2,8.1,4.4c3.4-10.9,7.2-20.7,9.4-30.8
					c1-4.8-0.9-10.3-1.5-15.4c-0.1-1.3-0.7-2.8-0.4-3.9c3.9-11.3,8-22.5,12-33.7c0.2-0.6,0.8-1.1,1.1-1.5
					C583.5-9.3,598.7,14,608.6,39.3z M568.3,119c0.1,2.7-0.5,5.5-0.8,8.3c-8.5-2-20.7-19.1-27.3-38.5c4.9,0.4,8.8,1.1,12.6,0.8
					c2-0.2,4.4-2,5.6-3.7c1.4-2,1.4-4.9,2.3-7.2c1.5-3.5,4.5-4.8,7.2-2c7.5,7.8,14.8,10,22.6-1.3c0.5,0.7,0.9,1.3,1.3,2
					c-1.9,12.6-3.2,25.4-6.1,37.8c-1.1,4.4-6.4,7.7-9.8,11.6c-0.6-0.3-1.2-0.7-1.8-1c-0.7-9.4-1.3-18.9-2.3-28.3
					c-0.2-2.1-1.8-4-2.7-6c-0.7,2-2,4-2,6C567.3,104.5,568,111.8,568.3,119z M372.1,108.3c-1.3,1.6-3,3-4,4.8
					c-1.8,3.3-3.3,6.9-4.8,10.3c-4.4-10.6-3.5-19.7,3.8-27.4c4.8-5.2,7.2-4.7,10.3,1.4c6.3,12.6,2.6,26.1-9.2,30.4
					c2-4.3,4.3-8.5,5.6-13C374.3,112.9,372.7,110.4,372.1,108.3z M437.9,73c-5.8-0.9-10-1.7-14.3-2.2c-4.9-0.6-9.8-1.3-14.6-1.3
					c-2.4,0-4.7,1.5-7.1,2.3c2.4,1.3,4.6,3.3,7.1,3.7c5.5,1,11.2,1,16.7,1.8c2,0.3,4,1.4,5.8,3c-12.6,3.9-24.9,2.7-36.9-1.7
					c-4.7-1.7-1.9-5.2,0.5-7C409.4,60.8,419.4,58.8,437.9,73z M415.1,54.3c7.1-5.1,15.1-10.9,25.2-18.2c3.4,8.8,6.7,16.4,9.2,24.3
					c0.7,2.2-0.2,6.3-1.9,7.4c-1.6,1.1-5.3-0.1-7.6-1.2C431.6,62.7,423.4,58.4,415.1,54.3z M485.6,126.7c13,12.5,15.2,27.7,6,42.4
					c-1.1,1.8-4.3,4.4-5.1,3.9c-2.9-1.5-6.3-3.8-7.5-6.6C473.2,152.3,471.5,138.3,485.6,126.7z M449,150.5c-0.7,0.1-1.4,0.2-2.3,0.3
					c-5.5,0.1-7.2-3.5-5.7-7.9c5.6-16.6,16-29,33.3-34.2c5.4-1.6,9,1.5,8.2,6.5C480.5,128.2,461.7,148,449,150.5z M488.7,114.8
					c-0.4-5.4,1.7-7.3,6.7-6.4c10.6,1.8,18.7,7.8,24.9,15.8c4.2,5.4,7.2,11.9,9.8,18.3c1.7,4.1-0.7,7.5-5.6,7.4
					C511.5,149.6,488.9,127.1,488.7,114.8z M129.5-19.1c-2.1,11.4-4,21.6-5.9,31.7c-0.6-0.1-1.2-0.1-1.8-0.2
					c-3.1-12.7-2.8-25.4,2.1-37.7c0.3-0.7,4.7-0.8,5.9,0.2c7.7,6.6,15,20.2,6.4,32.5c-1.9,2.7-3.3,5.8-5,8.6
					c-0.4-0.3-0.8-0.5-1.2-0.8c0.8-10.3,1.7-20.7,2.4-31.1C132.4-16.4,131.2-17.1,129.5-19.1z M72.9,62.6c1.1,1.1,1.4,5.1,0.6,5.7
					c-5.7,4.4-11.1,9.7-19.4,9.4c-6.1-1.5-12.4-2.5-18.2-4.8c-2.6-1-5.5-4.4-5.8-7c-0.3-1.8,3.3-5,5.7-6.1
					C48.6,53.9,61.4,51.7,72.9,62.6z M52.7,30.9c-2.4-6.3-0.1-10,7.2-9.8c3,1.6,7.7,3.8,12,6.4c9.7,5.9,17.4,13.6,20.9,24.6
					c0.9,2.8-0.1,6.2-0.3,9.4c-3.3-0.2-7,0.4-9.9-0.7C68.6,55,58.3,45.2,52.7,30.9z M69.5,78.4c4.1-3.7,9.3-6.4,14.4-8.5
					c2.6-1.1,6.9-0.9,9,0.7c1.5,1.1,1.4,5.9,0.4,8.4c-5.6,14.8-16.2,25-30.5,31.3c-6,2.6-9.4-0.2-9.1-9
					C55.5,92.9,61.9,85.1,69.5,78.4z M192.8,134.2c-13.2,2.8-21.5-5.8-31.1-8.5c2.1-3.2,4.4-5.4,5.1-8.1c0.8-3,0.2-6.3,0.2-10.2
					c7,2,12.9,2.3,13.3-7.6c7.6,7.9,17.1,13.9,15.9,27.6c-6.7-4.4-12.6-8.3-18.6-12.3c-0.5,0.6-1,1.2-1.4,1.8
					C177.7,125.5,187.4,126.8,192.8,134.2z M116.4,138.5c0.9,0.2,1.9,0.2,2.8,0.4c9.7,2.9,11.1,6.8,3.4,12.9
					c-6,4.8-5.6,8.1-0.7,12.7c1.2,1.2,1.8,3.1,2.7,4.8c-23.8,4.2-41-1.4-48.8-16.6c8.9,0,17.1,0,25.4,0c1.7,0,3.4,0.4,4.9-0.2
					c1.7-0.6,3.1-2,4.6-3c-1.6-0.9-3.2-2.7-4.7-2.7c-5.4-0.1-10.7,0.5-16.1,0.6c-4.8,0.1-9.6,0-14.4,0c-0.3-0.9-0.7-1.7-1-2.6
					c4.1-6.3,10.6-9.6,17.2-12.9c6.6-3.4,12.9-7.2,21-11.8c0,4.5,0.7,8.3-0.2,11.7C111.5,136.1,112.8,137.7,116.4,138.5z
					 M86.6-168.3c-4.2,1-8.3,2.5-13,4c8.7-11.6,34.3-14.6,45.8-3.5c-22.9,17-33.5,19.7-46,9.8c9.3-2.9,17.1-5.3,25.5-7.9
					C95-171.9,90.6-169.2,86.6-168.3z M78.9-239.2c-2.8,3.7-5.6,7.3-8.4,11c-5.7-4.7-4.4-11,7-31.4c2.1,10,9.2,6.4,15.9,6.1
					c0.2,3.7,0.4,7.3,0.6,11.3c3.5,0.7,6.2,1.3,10.8,2.3C95.3-232,89-223,76.1-223.6c2-5,3.8-9.5,5.6-13.9
					C80.8-238.1,79.9-238.6,78.9-239.2z M55.4-345c7.6,2.2,25.2,30.3,24.5,38.5c-0.4,0.2-0.8,0.6-1.2,0.6
					c-4.1,0.3-15.3,7.4-18.1,10.8c-1,1.2-3.7,1.6-5.6,1.4c-1.4-0.2-2.9-1.7-3.8-2.9c-4.7-6.2-9.3-6.2-14.4-0.5
					c-0.7,0.8-1.9,1.1-5,2.9c1.2-12.9,1.1-24.6,3.7-35.6c1.3-5.5,7.3-10,12.2-16.2c0.9,12.6,1.5,22.6,2.4,32.5
					c0.2,1.5,2.2,2.8,3.3,4.2c0.6-1.7,1.7-3.3,1.8-5C55.5-324.4,55.4-334.6,55.4-345z M186.9-289.3c11.6-1.6,23.2,6.1,34.3,0.3
					c0.1-0.8,0.2-1.6,0.3-2.4c-10.4-1.7-20.8-3.3-31.3-4.9c0.1-0.6,0.2-1.2,0.3-1.8c13.4-2.9,26.6-2,39.7,3.3
					C219.6-278.1,198.8-275.5,186.9-289.3z M207.4-271.7c-6.8,5.2-14.7,11.1-24.4,18.4c-3.9-8.6-7.7-16.4-10.7-24.6
					c-0.7-1.9,1.1-5.6,3-7c1.3-1,4.7,0.1,6.9,1C190.5-280.1,198.7-276,207.4-271.7z M140.2-347.4c-1,1-1.6,2.2-2.7,3.8
					c-13.1-11.2-15.9-28.9-7-42.3c1.2-1.8,4.2-4.2,5.2-3.8c2.8,1.2,6,3.4,7.2,6C148.2-371.3,151.3-358.8,140.2-347.4z M171.8-367.1
					c7.1-2.6,10.3,0.4,8.9,7.9c-2.3,12.8-20.3,30.9-33.3,33.5c-5,1-7.4-1.4-7.2-9.5c0.9-1.8,2.5-5.3,4.4-8.7
					C150.9-354.7,159.9-362.7,171.8-367.1z M133.7-330.5c0,1.4-0.3,2.7-0.5,4.5c-10,1.7-17.1-2.8-23.8-8
					c-8.1-6.3-14.3-14.1-17.2-24.1c-1.6-5.6,0.3-8.5,5.6-8.4C111.6-366.3,133.8-343.9,133.7-330.5z M489.3-206
					c0.1,2.3,1.8,4.5,2.8,6.8c1.1-2.3,2.7-4.6,3.2-7c1.4-7.9,2.4-15.9,4.7-23.6c3.3,13.8,4.1,27.3-2.8,40.5
					c-17.4-10.5-19.4-29.3-4.2-42.9c-0.9,5-1.9,10-2.6,15.1C489.9-213.5,489.1-209.7,489.3-206z M546.9-282.8
					c10.8-14.1,24.3-13.8,38.6-8c3.1,1.2,6.1,4.5,7.2,7.5c0.5,1.4-3.5,5.3-6.1,6.7C570.9-268.1,559.9-269.9,546.9-282.8z M570.2-246
					c0.7,7.1-3.1,8-7.5,7.5c-12-1.3-32.6-21.9-34.1-33.7c-0.6-5.2,1.7-8,6.7-7.3C549.1-277.4,568.7-259.9,570.2-246z M536.5-285.9
					c-0.9,0.2-1.9,0.2-4.7,0.4c-0.7-0.9-2-2.6-3.1-4.4c-0.3-0.5-0.2-1.4-0.2-2.1c0.3-13.2,20.8-34.8,33.8-35.8c4.9-0.4,7.8,1,7,6.7
					C567.3-308.4,548.8-288.4,536.5-285.9z M430.1-351.1c12.2-3.4,20.5,5.7,32.4,7.6c-9.6,4.3-6,11.3-6.3,18h-11
					c-1.2,3.4-2.1,6.2-3.7,10.7c-5.7-10.2-16.5-15.7-15.5-30.3c7,4.8,12.6,8.8,19.5,13.5C445.7-343.1,434.3-343.5,430.1-351.1z
					 M504.5-355.8c-10.8-2.6-11.5-5.6-4.2-14c3.5-4.1,3.8-7.8,0.1-11.8c-1.2-1.3-2.2-2.9-4-5.2c29.2-0.3,40.8-1.1,49.7,16
					c-4.6,0-8.3-0.1-12.1,0c-5.8,0.2-11.7,0.4-17.5,1.1c-1.4,0.2-2.6,2.5-3.9,3.8c1.6,0.4,3.2,1.1,4.9,1.1c10.1,0.1,20.3,0,30.5,0
					c0.4,0.9,0.7,1.7,1.1,2.6c-3.7,3.2-7.1,6.9-11.2,9.5c-6.7,4.3-13.8,7.9-20.9,11.6c-1.9,1-4.3,1.2-6.4,1.8
					c-0.6-2.7-2.4-5.9-1.5-7.9C511.5-352.7,510.1-354.4,504.5-355.8z M544.7-219.6c-1,8.9-3.2,17.7-5.4,26.5
					c-0.1,0.4-5.8,0.7-6.3-0.4c-1.8-3.3-2.4-7.3-3.1-9.6c0.8-6.8,1-12.1,2.3-17c0.7-2.4,4.4-6.1,5.4-5.7
					C540.5-224.7,544.9-221.6,544.7-219.6z M517.7,22.1c9.9-5.6,15.2-17.7,30.5-15.6c-5.1,7-9.3,12.8-13.6,18.7
					c0.6,0.5,1.2,1,1.8,1.5c7.9-2.1,11.2-9.7,16.1-15.4c4.3,3.5,0.2,19.3-8.5,30.6c-1.4-12.5-10.3-3.4-15.6-7
					C530.4,27.1,527.3,22.3,517.7,22.1z M579.2-69.2c-6.9,5.4-15.6,8.7-23.9,12.1c-2.8,1.2-6.4,0.2-9.7,0.2
					c-0.3-0.6-0.6-1.2-0.9-1.9c11.5-8.7,23.1-17.4,36.6-27.6C580.5-79,582-71.4,579.2-69.2z M575.1-90.6C565-81.3,554-73,543.4-64.3
					c-0.7-0.8-1.4-1.6-2.1-2.3c2.4-10.7,6.4-20.1,17.2-25.6c7.2-3.7,13.9-8.3,20.8-12.6c0.7,0.4,1.4,0.9,2.1,1.3
					C579.3-99.1,578.3-93.6,575.1-90.6z M550.3-124.8c-0.2,0.9-0.4,1.9-0.6,2.8c5.9,1.3,11.7,2.7,17.6,4c-0.1,0.5-0.1,1-0.2,1.5
					c-3.2,0-6.4-0.2-9.5,0.1c-1.4,0.1-2.6,1.3-4,2c1.2,1.1,2.4,3.1,3.7,3.2c5.6,0.4,11.2,0.2,17.9,0.2
					c-13.2,12.3-27.5,20.1-45.4,18.7c-2.9-0.2-6.4-3.2-8-5.8c-7.3-12.6-9.6-26.5-7.5-40.7c2.3-15.5,20.9-29.8,36.3-28
					c4.8,0.6,10.7,3,13.4,6.6c8.3,10.8,15.3,22.7,23.7,35.5H550.3z M601.2-47.7c-6.8-1.1-10.7-5.6-12.1-11.2
					c-2.8-11.7-7.3-24.1,5-34.1c-1.4,7.1-3,13.7-3.8,20.4c-0.4,3.4,0.6,7,1.5,10.3c0.4,1.4,2.2,2.4,3.3,3.6c0.8-1.7,2.3-3.3,2.3-5
					c0.1-5.3-0.7-10.6-0.5-15.9c0.1-2.3,1.6-4.5,2.4-6.8c0.6,0.1,1.2,0.2,1.8,0.3V-47.7z M600.7-98.6c-5-6.6-9-3.5-12.8,2.1
					c-0.6-0.7-1.3-1.5-1.9-2.2c1.6-2.7,3.7-7.9,4.8-7.8c3.9,0.7,7.6,3.2,11.3,5C601.7-100.5,601.2-99.6,600.7-98.6z M599.8-114.1
					c-0.8-1-1.6-1.9-2.5-2.9c2.3-2,4.5-4,6.8-6c0.9,1.4,1.9,2.8,2.9,4.2C604.6-117.2,602.2-115.6,599.8-114.1z M621.6-67.6
					c-0.8,7.8-1.2,16.9-12.9,18.7c-1.2-13.2-4.7-26.1-0.7-39.2c0.7-0.1,1.3-0.2,2-0.3c1.3,7.1,2.5,14.2,4,21.2c0.4,2,2,3.8,3,5.7
					c1-2,3-4.1,2.8-6c-0.7-6.6-2.3-13.1-2.7-19.8C624.3-82.3,622.4-74.4,621.6-67.6z M627.6-89.7c14,10.2,27.6,20.1,40.7,29.6
					C649.5-56.7,625.6-72.8,627.6-89.7z M674.3-66.4c-13.4-1-45.9-28.7-48.6-42.6c3.5,2.5,6.1,4.8,9.1,6.4c8,4.3,15.9,8.7,24.2,12.5
					C667.3-86.4,674.4-76,674.3-66.4z M693.6-126.4c-1,7.2-2.4,14.3-4.4,21.3c-2.3,8.1-7.3,11.8-15.5,11.7
					c-11.7-0.2-21.8-5.4-32.2-11.3c3.9-1.7,6.6-2.9,9.3-4.1c-2.9-1.2-5.7-2.6-8.6-3.6c-2.7-0.9-5.6-1.4-8.5-3.7
					c8.2-1.8,16.4-3.7,24.6-5.5c-0.2-1.1-0.3-2.2-0.5-3.4c-12.5-1.8-25.3,5.8-37.4,0.4c7-11.6,13.4-23.4,21-34.4
					c9.8-14.2,22-10.4,32.9-4.9C690-156.2,696.1-143.9,693.6-126.4z"/>
			</g>
		</g>
		<g>
			<g>
				<path class="st6" d="M998.3,248.3c2.4-7.9,1.8-15.3-1.8-22.5c-1.5-2.9-3.9-5.4-5.8-8c9.9-1.3,19.2-2.6,28.5-3.6
					c6.6-0.7,11.5,2.3,14.7,7.8c4.2,7.4,3.1,10.1-4.7,13.1c-9.9,3.8-16.1,11.2-19.8,20.7c-1.7,4.4-1.8,8.8,2.3,12.3
					c3.9,3.2,8,4.5,13,2.3c9.6-4.1,15.8-11.6,18.2-21.2c1.5-5.9,0-12.7-1.2-19c-1-5.3-3.5-10.4-5.7-15.4c-0.9-2-2.7-3.5-4.9-6.3
					c6.2-2.5,11.6-4,16.3-6.8c2.2-1.3,4.7-5.5,4.1-7.5c-0.7-2.7-4.1-5.6-6.9-6.3c-1.8-0.5-6.5,2.5-6.7,4.2
					c-0.7,10.2-8.3,12.7-15.9,15.3c-10.1,3.4-20.3,5.3-29.4,3.2c8.2-6.7,17-13.1,24.9-20.5c4.8-4.5,5.3-11.3,0.4-15.8
					c-6.2-5.7-13.8-10.1-20.7-14.9c-1.1-0.7-2.3-1.2-3.5-1.9c7.9-0.2,15.8-0.3,22.4,2.6c15.1,6.7,30,14.3,44.3,22.5
					c11.3,6.5,10.9,7.2,4.5,19.1c-0.8,1.5-1.3,3-2.1,4.5c-8.5,14.9,8.1,38.8,22.4,39.9c13.4,1,31.2-11.2,32.6-24.4
					c0.2-1.9-2.1-5.1-4.1-5.9c-11.5-4.9-22.7-5.4-33.1,3c-2,1.6-4.5,2.5-6.8,3.7c-5,2.8-8.1,0.2-7.1-4.3c1.8-7.5,5.1-14.8,8.3-21.9
					c0.6-1.3,4.1-2.1,6-1.7c7.5,1.7,14.7,4.4,22.2,5.9c33.9,6.8,64.8-0.4,92.1-21.6c32.7-25.5,51.2-58.3,49.6-100.6
					c-0.3-9.7-2-19.3-3.1-28.7c7,4,13.4,9.1,20.8,11.7c8.3,2.9,16.4-0.4,22.3-6.8c6.6-7.2,12.3-15.1,9.9-27.5
					c-11.1,10.4-24.2,6.6-35.6,9.3c3.2-8.6,6.4-16.9,9.1-24.3c6.9,3.8,13.4,7.8,20.3,11c5.2,2.4,10.6,2.2,15.1-1.9
					c4.2-3.7,3.9-8.3,1.7-12.9c-3.6-7.3-7.3-14.4-11.3-22.2c5.2-1.7,10.8-3.2,16.2-5.3c8-3.1,11.3-13,5.8-18.2
					c-3.5-3.3-8-6.4-12.5-7.4c-13.4-3.1-27-4-40.1,1.2c-6.5,2.6-10.9,1.7-13.7-5.5c-2.2-5.5-9.4-6.4-11.4-1.2
					c-3.2,8.2-8.2,6.3-13.9,4.8c-3.8-1-7.7-2.1-11.6-2.6c-16.1-2.2-19.6-1.8-15.3-24c0-0.2,0-0.5,0.1-0.7
					c2.4-6.9,4.4-13.9,10.4-19.9c14.9,27.8,37.2,38.3,66.7,32c7.2-1.5,11.7,0.1,15.9,5.3c3.2,3.9,6.5,4.1,10,0.3
					c3.3-3.6,6.5-7.5,10.2-10.7c12.5-10.9,14-28.7,2.7-40.6c-4.5-4.7-10.2-8.1-15.4-12c-9.4-7-18.3-14.3-21.7-27.3
					c3.5,0,6.6,0.5,9.5-0.1c9.1-1.7,18.4-3.1,27.1-6c3.2-1.1,6.8-6.3,7-9.9c0.2-3.5-3-7.9-5.9-10.6c-2.5-2.4-6.7-3.1-10.1-4.4
					c-2.9-1.1-5.9-2-7.9-2.7c4.2-7.6,8.9-14.1,11.6-21.4c4.1-10.8-2-18.4-13.1-15.9c-6.6,1.5-12.5,5.8-18.6,8.9
					c-1.9,1-3.6,2.2-5.8,3.7c-1.1-4.3-1.6-7.5-2.7-10.5c-1.2-3.3-2.6-6.6-4.5-9.5c-4.6-7.1-12-8.3-16.6-1.4
					c-4.2,6.3-7,14.1-8.3,21.7c-1.4,8-0.3,16.5-0.3,25.1c-10.1-5.9-17.2-16.9-33.3-14.3c10-18.6,18.9-35.1,28.1-52.3
					c3.2,2,5.7,3.5,8.3,5c9.8,6,19.8,7.7,30.7,2.3c14.4-7.3,20.3-19.5,15.6-34.1c-3.6-11.3-13.4-15.8-23.2-19.9
					c-1.2-0.5-4.6,1.4-5.3,2.9c-5.1,11.7-7,23.4,2.1,34.4c1.6,2,3,4.3,3.9,6.6c0.7,1.8,1.3,4.8,0.4,5.7c-1.7,1.6-5,3.2-6.8,2.5
					c-6.5-2.5-12.8-5.6-18.8-9.2c-1.4-0.8-2-4.3-1.6-6.3c1.9-11.1,4.9-21.9,6.4-33c7.5-56.1-30.6-103.6-75-122.6
					c-25.2-10.8-51-10-79.4-4.7c14.2-12.9,20.8-26.6,8.7-42.1c-6-7.7-14.7-12.7-26.4-12.1c0.7,2.8,1.3,4.7,1.7,6.7
					c1.3,6.6,3.9,13.2,3.6,19.8c-0.3,9.1,0.9,16.7,10.5,21.5c-11.5,15.3-28.9,19.6-44.7,30.4c0-15.9,1.8-29.7-0.4-42.8
					c-4.1-24.4-22.2-49-65.3-48.2c-18.5,0.3-28.5,2.4-30,8.7c7.8,0,15.5-0.9,23,0.2c11.3,1.7,22.3,5,26.3,17.8
					c2.7,8.5-0.7,16.3-4.4,23.6c-5.3,10.3-8.2,20.8-7.8,32.4c0.2,5.8,2.2,8.3,8.1,7.4c1.8-0.3,3.8-0.3,5.5-0.9
					c7.6-2.7,15.2-5.5,22.2-8.1c4.3,5,8.5,9.8,13.4,15.5c-6.9,3.1-13.8,6.4-20.8,9.3c-13.3,5.4-27,8.6-41.2,4.6
					c-2.5-0.7-5.7-4.2-6.1-6.8c-2.3-14.8-6.8-28.7-14.4-41.6c-5.6-9.5-11.3-19-16.2-28.8c-5.8-11.5,0.6-27.5,11.2-32.6
					c9.5-4.6,19.3-5,29.3-6.1c2-0.2,3.9-1.5,5.9-2.3c-1.8-1.4-3.6-3.8-5.5-4c-6.8-0.7-13.6-1-20.4-0.9c-17.8,0-34.7,4-48.3,16.1
					c-10.6,9.4-20.3,19.8-30.8,30.2c-5.1-6.1-11-13-16.6-20.1c-1.4-1.8-2.9-4.5-2.5-6.3c0.7-3.2,2.1-7,4.5-8.7
					c1.5-1,6.5,0.7,7.9,2.7c1.6,2.2,0.9,6,1.2,9.2c-0.7,0.1-1.5,0.1-2.2,0.2c-1.8-2.1-3.3-4.5-5.4-6.1c-0.6-0.5-2.9,1.4-4.4,2.1
					c2.6,3.4,4.5,7.9,8,9.7c2,1,7.2-1.5,9.4-3.9c4.4-4.6,1.4-13.8-5.2-18.2c-6.4-4.3-14.4-2.9-17.7,3c-3.9,7-2.4,16.9,3.6,23.4
					c3.8,4.1,7.8,8.1,11.3,12.5c1.5,1.9,2.1,4.5,3.6,8.2c-5.1-1.9-8.3-3.5-11.6-4c-1.5-0.2-4.8,1.9-4.8,2.8c0.3,9-2,18.8,4.2,26.6
					c10.3,13,5.5,28.8,9.8,42.8c-0.6,0.6-1.3,1.2-1.9,1.9c-14.7-6.9-29.5-13.9-44.2-20.8c0.3-0.7,0.5-1.4,0.8-2.1
					c5-1.6,10.2-2.9,15-4.9c11.1-4.7,16-16,11.9-26.5c-3.1-7.8-12.4-12.2-21-9.8c-7.3,2.1-11.9,9.2-10.7,16.8
					c0.8,5.4,5.6,8.1,12.4,7.3c4-0.5,6.1-2,4.4-6.6c-1.3,0.2-2.4,0.6-3.5,0.6c-2.1-0.1-5,0.3-6.1-0.9c-1.1-1.2-1.1-4.3-0.4-6.2
					c2.4-6.8,10.9-8.4,16-3.2c6.3,6.4,5.2,16.8-2.9,21.7c-13.6,8.3-27.2,6.4-41.1-1c1.2-1.6,2-2.9,3-4.1c6.8-8.3,9.3-17.5,6.4-28.2
					c-3.4-12.8-14.2-22.6-26.2-23c-13.5-0.5-25.8,8.3-29.9,21.3c-1.3,4.2-1.4,8.3,3.8,9.6c10.8,2.8,21.4,4.4,31.6-3.2
					c3.7-2.7,9.2-3.1,13.9-4.5c0.4,5.4,0.7,10.8,1.1,16.1c0,0.4-0.3,0.9-0.5,1.3c-4,9.3-8.5,11-18.4,8.1c-7.4-2.2-15-3.8-22.6-4.9
					c-48.3-6.8-85.6,12.3-114.6,49.9c-21.4,27.8-26.4,59.5-21.1,93.4c0.4,2.8,0.5,5.7,0.7,8.5c-0.8,0.4-1.5,0.9-2.3,1.3
					c-1.5-2.1-2.5-4.9-4.5-6.1c-4.5-2.8-9.2-6-14.2-6.8c-18.3-2.8-28.9,12.1-31.9,27.7c-0.9,4.7,2.6,5.6,5.6,3.6
					c7.5-5.1,16-5,24.4-5.2c7.6-0.3,14.6-0.9,18.7-10.6c4.6,5.1,9.2,8.7,11.9,13.3c10,17.5,19.8,35.2,28.9,53.2
					c6.6,13.1,10.8,27,10,42c-0.1,2-2.5,4-3.8,5.9c-3.7-3-8.4-5.4-10.9-9.2c-3.4-5.2-4.7-11.7-7.4-17.4
					c-10.9-23-25.6-42.7-49.6-53.4c-6.1-2.7-12.9-3.7-19.5-4.9c-3.9-0.8-6,0.7-5.3,5.5c1.6,12.1,2.5,24.2,3.7,36.3
					c0.8,8.2,0.9,16.5,2.8,24.5c2.6,11.2,6.4,22.2,9.9,33.9c-2.5-0.5-5.1-1.3-7.8-1.5c-6-0.5-12.3-1.9-17.9-0.7
					c-11,2.4-17.7,10.7-20.1,21.4c-2.6,12,1.1,22.7,11.7,29.5c9.7,6.3,20.1,11.6,29.1,16.7c-4.1,28.3-8.1,56.5-12.3,85.6
					c3.8-0.5,6.3-0.6,8.7-1.1c26.4-6.1,44.9-22.6,58.2-45.3c5.6-9.5,9.9-19.7,14.8-29.5c2-4.1,12.6-11,13.5-9.2
					c1.8,3.9,3.2,8.8,2.4,12.9c-2.1,10.3-4.2,20.9-8.6,30.3c-7.9,16.7-17.4,32.7-26.5,48.9c-0.7,1.3-4,1.8-5.9,1.5
					c-1.6-0.2-3-2.1-4.6-3.1c-10.2-6.3-20.4-7.5-31-0.7c-9.3,5.9-15,13.3-15.4,25c-0.4,14.7,15.3,25.1,25.9,27.7
					c1.2,0.3,4-1.6,4.5-3c4.2-10.8,6.4-21.7-1.1-32.2c-1.5-2.1-3-4.2-4.3-6.4c-3.5-5.8-1.4-9.5,5.1-9.6c9.2-0.1,15.8,4.9,21.7,10.6
					c-16,46.6-11.5,89.3,22,126.5c33.1,36.7,74.2,49.4,123.1,38.2c-1.7,3.1-3.4,5.1-5.3,6.9c-7.5,7-9.8,19.1-5.3,29.3
					c3.7,8.4,18.6,18.5,26.3,17.8c3.5-0.3,4.8-1.3,3.4-5.5c-2.2-6.5-4.3-13.3-4.6-20.1c-0.4-9-0.8-17.4-11-23.3
					c5.1-4.6,8.9-9.2,13.7-12.2c11.4-7,22.9-13.8,34.9-19.5c14.3-6.8,29.1-12.7,43.9-18.4c8.4-3.2,11.8-0.6,13.4,8.7
					c-9.6,2.9-17.8,7.6-18.4,19.1c-0.8,18.1,9.4,25.7,27.5,26.9c-12.9,9.9-25.2,18.9-38.5,25.9c-6,3.2-13.9,3.5-21,3.6
					c-5.8,0.1-10.9-7.3-11.2-13.5c-0.3-6.5,5-5.4,8.6-6.9c10.5-4.3,18.6-11.1,20.9-22.8c1.5-7.5-3.3-13-10.8-12.9
					c-11,0.1-27.1,16.9-25.3,27.9c1.8,11.2-1.2,24.1,12.3,33.5c-6.3,1.8-10.3,3.4-14.5,4c-4.3,0.7-6.8,3-6.1,6.9
					c0.4,2.5,3,6.5,4.5,6.5c3.2,0,8.9-1.9,9.2-3.7c1.5-8.8,8.5-8.9,14.4-11c9.6-3.4,19.4-6.5,28.9-10.3c4.7-1.9,8.9-4.9,14-7.8
					c0,2.2,0.4,3.9-0.1,5.3c-2.9,9.9-1.1,19.5,1.7,29.1c1.3,4.5,3,5,7,2.6c7.5-4.5,15.3-8.4,23.2-12.6c5.2,18.3,8.7,21.8,26.1,25.1
					c6.4,1.2,13.1,1.1,19.6,1.9C978.9,282.5,993.8,263.1,998.3,248.3z M1037.7,244.7c0.2,6.3-8.5,18.2-14.7,19.8
					c-2.4,0.6-5.7,0.3-7.5-1.1c-1.1-0.8-0.8-4.7,0-6.8c3.6-9.5,11.9-16.8,20-16.6C1036.1,241,1037.7,242.8,1037.7,244.7z
					 M1110.8,221.6c-6,16.4-17.8,22-34.3,14.8c6.2-0.9,11-1.1,15.4-2.4c4.1-1.2,9.5-1.8,9.3-8.9c-8,1.7-15.5,3.4-23,5
					C1088.8,218,1098.7,213.7,1110.8,221.6z M1260.4-279.6c1.4-5.7,3.1-7.1,8-4.2c9.2,5.4,18.7,17.5,12.3,27.8
					c-0.6,0.9-1.5,1.6-2.4,2.6c-3.4-19.3-4.6-21.7-11.2-22.7c0.8,7.7,7,14.8,2.8,23.7C1262.8-260.8,1257.7-268.7,1260.4-279.6z
					 M1082.5-460.2c11.6,0.9,17.9,10.8,14.5,24.3c-2.2-5.9-4.1-11-5.9-16.1c-1.1,0.3-2.3,0.5-3.5,0.8c0.8,7.1,1.5,14.1,2.3,21.4
					C1083.8-431.6,1080.3-447.1,1082.5-460.2z M995.9-399.2c-4.5,1.7-6.6-1-5.7-4.9c1.8-8.2,2.9-16.8,6.7-24.1
					c7-13.4,9.4-26.1,1.1-39.8c10,4.6,17.6,11.4,20.1,21.9c2.1,8.8,2.6,17.9,3.8,26.9c0.7,5.3-1.5,9.5-6.1,11.7
					C1009.4-404.3,1002.6-401.7,995.9-399.2z M1026.4-407.6c-0.2-9.6,0.8-19.4-0.7-28.8c-2.4-15.6-4.5-18.8-16-34
					c25.1,14.6,34.1,36.4,26.5,76.6C1030.1-396.8,1026.5-400.9,1026.4-407.6z M763.7-435.5c-5-0.8-7.1-2.7-4.6-8
					c4.9-10.6,21.8-18.8,30.2-9.6c-8.7,2.1-19.5-0.7-24.6,11.8c8.8-2.3,16.4-4.3,24.1-6.3c0.2,0.7,0.5,1.4,0.7,2.1
					C783-436.9,774.3-433.8,763.7-435.5z M606.9,64.1c-0.7,1.5-2.9,3.4-4.2,3.3c-13-1.1-21.2-19.7-13.3-31.7
					c2.5,19.6,3.3,21.4,11,22.7c-1.6-7.3-3.1-14.5-4.9-23.4C607.5,43.9,611.3,54.3,606.9,64.1z M785.8,244.5
					c-11.4-2.9-17.9-13.3-15.5-26.9c2,5.7,3.2,10,5,14c0.6,1.3,2.7,1.8,4.2,2.6c0.4-1.7,1.5-3.4,1.2-4.9c-1-5.5-2.4-11-3.8-17.2
					C786.2,213.8,785,216.1,785.8,244.5z M828.8,213.5c-4.4-0.4-7.6-2.6-4.5-7.3c3.5-5.4,7.3-10.8,12-15.2c2-1.9,6.5-1.7,9.8-1.7
					c1.2,0,2.3,2.5,2.9,3.3C849.3,200,835.2,214.1,828.8,213.5z M1012.4,183.8c0.5,0.8,1,1.7,1.5,2.5c-4.6,4.1-8.5,9.7-13.9,11.9
					c-9.1,3.7-19.1,5.3-28.8,7.4c-1.9,0.4-4.6-0.8-6.4-2c-4.8-3.6-11.4-7.2-8.9-14.4c2.2-6.3,9.4-5.1,14.6-5.2
					C984.5,183.5,998.4,183.8,1012.4,183.8z M982.8,162.1c11.5,1.1,22,4.2,29.6,15.7c-2.8,0.3-4.4,0.7-5.9,0.7
					c-14.5,0.2-29,0.5-43.5,0.4c-2.4,0-4.7-1.8-7.1-2.8c1.3-2.5,2-5.7,3.9-7.5C966.3,162.5,974.4,161.2,982.8,162.1z M1260.2,54.9
					c6.1-2.3,11.2-4.2,16.4-6.2c-0.2-1.1-0.5-2.1-0.7-3.2c-6.9,0.7-13.9,1.4-20.8,2c-0.2-1-0.4-2-0.6-3.1c9.6-6.7,21.3-2.5,31.8-5.8
					C1285.9,50.6,1273.5,58.4,1260.2,54.9z M1300.6,12c0.5,5.1-1.6,6.7-6.5,6.2c-13.3-1.3-25.8-13.6-26.9-26.8
					c-0.2-2.1-0.5-4.2-0.8-6.6C1282.9-16.7,1299.1-3.4,1300.6,12z M1263.4,2c-1.7,7.9-2.8,15.1-5,21.9c-0.8,2.6-4.1,5.6-6.7,6
					c-1.9,0.3-5.3-2.9-6.5-5.3c-7-13.8-6.5-28-0.9-42c1.1-2.8,4.7-6.5,7.1-6.4c2.4,0,5.8,3.8,6.9,6.7
					C1260.7-10.8,1261.9-4.1,1263.4,2z M1305.9-37.5c2.8,1.2,6.3,4.7,6.3,7.3c0,2.2-3.9,5.6-6.8,6.5c-6.5,2.2-13.5,3.2-21.2,4.8
					c-7-1.9-14.4-3.6-21.6-6.1c-2.2-0.8-4.9-3.8-5-5.9c-0.1-1.9,2.8-4.6,5-5.7C1276.9-43.9,1291.5-43.7,1305.9-37.5z M1225.6-39.5
					c1.2,0.3,2.1,3,2.4,4.7c0.3,1.2-0.5,2.7-0.9,4.1c-3.4,10.6-1.4,13,10.8,11.1c-0.3,2.7-0.1,5.4-1,7.6c-5.6,13-2.1,25.5,2.4,37.6
					c2,5.2,7.1,9.3,11.4,14.7c-0.5,0.6-1.8,2.2-4,5c-3.6-3.6-8-6.4-10.1-10.4c-13-24.8-25.6-49.8-38.2-74.8c-0.7-1.3-0.7-3-1.2-5.4
					C1207.2-43.4,1216.5-41.7,1225.6-39.5z M1180.1-64.3c-4-1.2-6.4-1.7-8.7-2.6c-14.2-5.8-27.3-5.1-39.1,5.8c-3,2.7-7.1,4.1-12.4,7
					c2.2-12.1,2.7-22.8,6.3-32.3c4.3-11.5,14.5-17.4,26.9-18.3c7-0.5,14.1-0.2,21.1-0.2c3.5,0,5.9,0.9,5.8,5.1
					C1180-88.5,1180.1-77.3,1180.1-64.3z M1171.1-52c-7.3,11.1-33.4,12.9-45.6,2.8c15.3-14,31-20.9,46.1-10.8
					c-4.5,2-8.3,3.9-12.3,5.3c-3.9,1.4-8,2.3-12,3.4c0.2,1.2,0.5,2.3,0.7,3.5C1155.8-49.2,1163.6-50.6,1171.1-52z M1127.2-99v-16.7
					c3.9,2.5,6.8,4.4,11.3,7.3C1135-105.4,1131.9-102.9,1127.2-99z M1186.1-73.7c0-10.3-1.4-20.2,0.6-29.5c0.9-4.6,7.9-8,12.2-12.1
					C1207-104.4,1199.7-82.4,1186.1-73.7z M1207.5-116.8c-0.5-4.4-0.8-9-0.2-13.3c0.4-2.7,2.6-6.7,4.6-7.1c3.1-0.5,7.4,0.6,9.7,2.7
					c6.6,6,11.8,13.4,18.6,19c6.2,5.1,13.6,9.1,20.8,12.7c5.8,2.9,12.1,3.1,18.1-0.7c3.6-2.2,6.9-2.4,10.7,0.9
					c3.9,3.3,2.5,5.9,1,9.1c-0.3,0.6-0.2,1.4-0.3,2.1c-2.1,17-11.9,25.4-29.4,25.2C1227.2-64,1210.6-91.2,1207.5-116.8z
					 M1299.1-64.2l-4.5-4.5l5.9-5.9l4.5,4.5L1299.1-64.2z M1308.7-72.7c-0.1,0.1-0.2,0.2-0.4,0.2l0.2-0.2l-6.6-6.4l-1.5-1.5
					l-8.9,8.9l-1.4-1.4l9.1-9.1l0.3-8.1l0.1-2.8l6.7-6.2v-4.4C1317.1-97.9,1318.7-80.3,1308.7-72.7z M1299.1-110.9l-0.3,8.5
					l-8.3-6.6l-0.1,0c-0.5-0.4-1-0.7-1.4-1.1l-0.1-0.1l-2.4-1.9v-8.6L1299.1-110.9z M1309.4-168.5c2.2,0.6,5.2,3.5,5.3,5.5
					c0.1,2.1-2.4,5.6-4.6,6.3c-7.6,2.6-15.6,4.3-23.8,6.5c-7.2-2-14.2-3.6-20.8-6.1c-2.4-0.9-5.4-4.2-5.3-6.3
					c0.1-2.3,3.2-5.5,5.6-6.3c6.4-2.1,13.1-4.3,19.7-4.1C1293.6-172.9,1301.6-170.6,1309.4-168.5z M1295-211.8c6.6-1,9.5,2,7.4,8.5
					c-4.4,13.5-12.2,27-33,25.5C1267.8-194.2,1279.3-209.4,1295-211.8z M1240.8-198.3c2.5-7.3,4.6-14.6,7.4-21.6
					c0.8-1.9,3.7-3.9,5.7-4c1.6-0.1,4.1,2.2,5,4c6.8,14.9,8,30.2,0.7,45.3c-1.1,2.4-4.2,5.4-6.3,5.3c-2.2-0.1-5.3-3.2-6.2-5.6
					C1244.6-182.3,1243-190,1240.8-198.3z M1218-185.4c17.1,14.1,34.8,27.7,50.7,43c5.7,5.5,8.6,14.8,10.7,23
					c2.6,9.9-5.1,15.1-15,11.7c-18.6-6.4-30.3-20.6-41.2-35.8c-7.5-10.6-13.1-22.1-14.9-36.8c0.7-1.4,1.4-4.5,3.4-6.4
					C1212.6-187.6,1216.4-186.7,1218-185.4z M1194.2-196.2c12,5.8,8.5,16.3,8.2,27.2c-14.8-15.7-28.8-30.6-43.2-45.8
					c1.9-2.5,3.3-4.3,5.2-6.8c9.4,8,18.8,16,28.2,24C1193.2-197.2,1193.6-196.5,1194.2-196.2z M958.9-382
					c5.9,34.4-15.5,61.9-15.5,61.9c-36.9-4-58.3-35.5-58.3-35.5s14.3-20,30.1-30.5C930.9-396.7,958.9-382,958.9-382z M940.8-425.4
					c5.2,8.3,9.1,17.3,13.4,26.1c1.1,2.2,1.5,4.7,2,6.6c-11.6-0.9-22.3-1.5-32.9-2.6c-2-0.2-4.8-2.1-5.7-3.9
					c-7.6-16.7-11.7-34.1-7-52.4c3-11.8,10.2-20.8,21-27.5C921.3-458.7,930.4-442.1,940.8-425.4z M872.3-397.5
					c0.2-7.2-0.9-13.6-6-19.4c-4.9-5.6-6.5-12.8-5-22.1c3.6,1.9,7.1,2.8,9.1,5.1c5.5,6.4,10.3,13.5,15.5,20.1c1,1.3,2.6,2,4,2.9
					c0.6-2,2.4-4.5,1.7-5.8c-3-5.5-6.8-10.5-9.9-16c-1.2-2.1-2.4-5.5-1.5-7.2c10.1-18.4,24.2-33,43-42.6
					c-14.4,13.4-21.8,30-20.4,49.4c0.8,11,4.8,21.9,7.9,32.6c1.7,5.7,1.5,8.6-4.4,12.3c-7.9,5.1-14.3,12.6-21.3,19.1
					c-1.6,1.5-2.9,3.4-5.5,6.5C874.8-375,872-385.9,872.3-397.5z M581.5-257.2c2.6-12.3,14.9-18.9,24.8-13.4
					c-11.4,3-11.4,3-13.8,8.1c7.2-0.7,13.8-1.4,21-2.2C611.2-258.9,593.1-255.3,581.5-257.2z M694.3-150.8c14.2,7.4,28.1,5,41.1-3.9
					c3.8-2.6,7.4-5.4,11.1-8.1c0.6,0.5,1.2,1,1.8,1.5c-0.7,2.9-1.6,5.7-1.9,8.6c-1.8,17-3.8,34-5,51c-0.6,9.3-0.5,9.8-10,9.3
					c-13-0.7-24.7-5.3-35-13.1c-2.4-1.8-3.8-5.1-5.1-8c-3.4-7.6-5.9-15.7-9.9-23c-2.6-4.7-1.5-7.6,1.9-10.3
					C686.3-149.2,688.2-154,694.3-150.8z M697.4-165.2c6.6-10.7,33.7-12.5,44.4-2.6c-16.9,15.5-32.7,19.8-45.2,10.8
					c5.1-2,9.2-3.6,13.3-5.2c3.9-1.5,7.8-2.9,11.7-4.3c-0.4-1.2-0.7-2.4-1.1-3.6C712.8-168.5,705.1-166.8,697.4-165.2z M613-214.9
					c-13.1,9.7-15.2,8.6-21.1-10.7C599.3-221.8,605.8-218.5,613-214.9z M583.6-210.6c-0.1-3.4,0-6.9,0-10.3c0.7-0.3,1.4-0.7,2.1-1
					c3,5.7,6,11.3,9.1,17.1C585.4-201,583.9-202,583.6-210.6z M602.6-200.5c3-4,9.8-6.9,14.9-6.9c3.8,0,7.7,5.3,11.5,8.3
					c-0.4,0.8-0.8,1.6-1.2,2.3c-3.7,1.1-7.7,1.8-11.2,3.5c-3.5,1.6-6.6,4.2-11.5,7.5C604-191.2,600.6-197.9,602.6-200.5z
					 M584.6-189.7c-1.1-5.9,3.6-7.2,7.9-7c8.3,0.5,6.5,8.3,7.1,12.8c0.9,7.1-6.6,2-9,4.7C582.6-179.5,585.3-185.8,584.6-189.7z
					 M618.4-186.8c0.8-0.5,1.6-1,2.4-1.4c10.5-5.2,14.1-3.7,18.5,7.1c-8.2,6.2-16.3,12.3-24.5,18.4
					C606-170.9,607.1-180.5,618.4-186.8z M587.2-165.8c-1-4.7,0.6-7,5.4-7.6c10.3-1.4,13.2,1.1,14.3,12.9
					C592.3-157,588.9-158,587.2-165.8z M620.1-155.6c3.5-4.5,7.1-9.1,11.4-12.8c2.9-2.5,6.9-3.7,11.6-6c2.9,6.3,5.5,12,7.8,17.2
					c-9.9,2.3-18.2,4.3-26.5,6.2c-1.2,0.3-3.3,0.4-3.7-0.2C620-152.5,619.4-154.8,620.1-155.6z M596.6-140.1
					c-2.2-3.1-3-7.1-4.5-10.7c4.2-0.8,8.5-2.6,12.5-2.2c3.9,0.3,7.6,2.9,11.4,4.5v2.6c-4.1,3.2-8,6.9-12.5,9.2
					C602.1-136,598-138.2,596.6-140.1z M590.7-36.7c-4.9-1.6-2.8-4.5-2.2-7.2c0.7-2.9,0.2-7.1,5.4-6.1c4.1,0.8,8.2,1.5,12.7,2.3
					C604-35.3,600.7-33.4,590.7-36.7z M589.6-15.1c-5.2-1.6-6.4-5.5-3.7-12.3c1.7-4.2,5.6-4.3,13.6-0.4
					C596.9-15.7,595.2-13.5,589.6-15.1z M593.1-8c-2.9,4-5.4,7.5-8,11.1C583.1-9.1,583.8-10.2,593.1-8z M608.5-2.7
					c0.2,0.6,0.4,1.3,0.6,1.9c-6,3.2-12,6.4-17.9,9.7c-0.5-0.6-1-1.2-1.4-1.8c3-4.2,5.9-8.4,9-12.8C602.2-4.7,605.4-3.7,608.5-2.7z
					 M604.4-10.2c-6.6-4.1,0.1-8.8-0.2-14.3c6.8,3.2,12.8,5.9,19.2,8.9C618.5-7.3,612.1-5.4,604.4-10.2z M621.1-23.4
					c-13.8-5.9-14.2-7.1-8.2-21c7.9,3.7,15.9,7.3,24.1,11.2C632.2-22.1,628.8-20,621.1-23.4z M650.1-60.3c-1.2,3-1.9,5.2-3,7.2
					c-2.6,4.4-6.3,12.8-8,12.4c-7.2-1.6-13.9-5.6-20.6-9.3c-1-0.6-1.1-4.3-0.3-6c0.8-1.8,3.1-4,4.8-4
					C631.5-60.5,640.1-60.3,650.1-60.3z M599-64.8c4.5,1.2,9,2.2,13.8,3.4c-0.9,7.1-6.1,8-11.3,7.2c-3.2-0.5-8.7,0.5-8.3-6
					C593.5-63.9,594.8-65.9,599-64.8z M637.2-65.2c-28.3-1.6-50.9-6.8-71-20.1c-3.1-2.1-6.2-4.4-8.8-7c-8.1-8.1-9.1-18.6-3.2-28.3
					c4.8-7.9,16.3-12,26-9c12.1,3.7,22.8,2.3,32.6-6.5c12.5-11.2,26.5-17.2,43.8-11.2c16.6,5.8,27.6,19.7,28.7,37.8
					c1,16.2-8.4,32.8-23.9,38.9C652.5-67.2,642.6-66.4,637.2-65.2z M786,189c-40.6,15.9-80,10.9-114.2-18.1
					c-17.9-15.2-32.6-33.1-39-56.5c-1.2-4.2-2.1-8.5-3.4-13.9c6.4,9.2,11.7,17.6,17.8,25.3c9.5,12,21.6,20.5,36.4,25.1
					c3.9,1.2,7.6,4.6,10.1,7.9c7.8,10.1,17,16.1,30.3,16.2c7.8,0,15.6,2.5,23.5,3.6c2.4,0.3,5.4,0.6,7.2-0.5
					c1.1-0.7,0.4-4.2,0.2-6.5c-0.1-1.4-0.3-3.2-1.2-4c-6.7-6.5-5.7-11.9,1.3-17.7c4.1-3.4,3.4-7.4-1.2-10.4c-2-1.3-3.8-2.8-5.8-3.9
					c-3.4-1.9-5.5-4-5.7-8.7c-0.2-4.2-2.6-8.4-4.7-12.2c-0.6-1.1-4.3-1.7-5.6-0.9c-9.2,5.5-18.3,11.2-27.1,17.3
					c-4.4,3-8.8,6.6-11.9,10.8c-3.3,4.5-6.7,4.9-10.8,2.7c-7.2-3.9-15.1-7.2-21-12.6c-22.5-20.6-35.6-45.8-29.4-77.1
					c2.5-12.3,9-24,14.7-35.5c7-14.3,15.5-27.9,22.4-42.2c6.9-14.3,11.1-29.4,7.9-45.6c-0.4-2,0.1-4.7,1.2-6.6
					c4.5-8.1,9.2-16,14.4-24.8c4.5,2.5,10.3,5.6,16.3,8.9c-2.5,2-5.2,4.1-7.9,6.2c-15.9,12.3-15.2,36.7,1.4,48
					c9,6.1,29.4,3.5,35.8-5.1c1.4-1.9,1.3-6.6,0-8.7c-6.2-10-15.3-15.5-27.6-15c-5.1,0.2-12,1.2-13.1-4.8c-0.5-3,4.9-7.7,8.5-10.8
					c8-7,17.8-5.9,27.4-5.2c2.8,0.2,5.6,0.3,7.6,0.4c5,18.6,9.8,36.5,14.6,54.5c0.2-0.1,0,0.1-0.1,0c-10.4-5.7-11.6-4.9-15.2,6.9
					c-4.4,14.6-4.6,29.1,0.9,43.5c6.2,16.3,22.4,21.7,37.3,12.7c3-1.8,6.4-3.1,10-4.9c1.5,18.9-17.7,47.1-46.1,41.9
					c0.3-2.5,0.8-4.9,1-7.4c0.5-7.1-2.7-10.3-9.2-7.9c-7.5,2.7-11.1,0.4-14.1-6.5c-4.7-11.2-13.3-19.3-23.5-25.6
					c-3.2-2-6.6-3.7-10.2-4.6c-5.2-1.2-11.9-2.7-14.7,2.9c-2.1,4.3-1.9,10.5-0.8,15.4c1,4.6,4.5,8.5,7.5,13.7c-3,0.6-6,0.7-8.6,1.7
					c-6.5,2.4-13.4,4.3-19,8.2c-6.2,4.3-6.1,11.9,0.2,15.8c5.9,3.7,13.1,5.5,19.8,7.8c2.3,0.8,4.9,0.5,8.2,0.8
					c-2.9,6.1-5.8,11.2-7.6,16.6c-4.1,12.2,2.3,19.3,14.8,16.2c15-3.8,24.8-14.4,32.3-27.4c0.8-1.4,1.4-2.9,2.4-4.9
					c1.5,1,2.8,1.8,3.9,2.8c6.5,6,10.9,5.1,13.5-3.7c1.5-5.3,4.4-7.1,9.4-7.4c25.7-1.6,40.6-15.8,46.7-40.2c0.6-2.2,1.3-4.4,2.2-7.6
					c6.7,5.8,12.7,10.9,18.7,16c1.3,1.1,2.4,2.6,3.8,3c1.5,0.5,3.4,0,5.1,0c-0.6-1.6-0.8-3.6-1.9-4.6c-6.3-5.6-13.2-10.6-19.2-16.5
					c-30.7-30.4-49.2-67.2-54.7-110c-5.1-40,2.4-77.8,21.5-113.5c12.7-23.7,30.4-42.7,50.9-59.5c1.6-1.4,2.7-3.4,4.1-5.2
					c-0.7-0.8-1.3-1.5-2-2.3c-3.5,2.3-7.3,4.1-10.4,6.9c-3.7,3.4-6.6,3.5-8.9-0.9c-3-5.6-6.2-11.1-8.2-17c-0.8-2.5,0.6-6.4,2.4-8.7
					c0.7-1,5,0.1,7.3,1.1c3.8,1.6,7.3,4.3,11.1,5.9c17.2,7.3,32,2.8,42.9-12.6c2.5-3.6,2.8-6-1.7-8.3c-16.7-8.4-34-9.7-51.1-2.8
					c-14.7,5.9-23,23.9-11.4,39.6c1.8,2.4,3,5.2,4.6,8c-23.8,1.5-46.3-20.7-42.8-46.8c1.8,0.5,3.4,1.3,5.1,1.3
					c3.1,0.1,6.9,0.9,8.9-0.7c1.7-1.3,2.6-5.9,1.7-8.2c-3.1-8,0.9-11.2,7.3-14.8c14.9-8.4,27.2-19.4,30.2-37.6
					c1.5-9.2-6.7-16-15.5-12.6c-5.8,2.2-11.1,5.7-16.7,8.6c-2.2-7.3-4-14.5-6.4-21.4c-1.9-5.4-5.3-9.2-11.6-9.7
					c-6.5-0.5-9.6,3.3-11.4,8.4c-2.7,7.4-4.9,14.9-7.5,23c-3.8-2-8-4.5-12.4-6.2c-5.4-2.1-11.3-3.3-15.8,1.6
					c-4.7,5.2-3.9,11.5-1.1,17.2c6.1,12.2,13.9,22.9,27.3,28.1c1.4,0.6,2.7,1.6,4.6,2.8c-1.2,1.1-2.2,1.7-2.7,2.5
					c-1.4,2.4-4.1,5.2-3.6,7.2c0.7,2.5,3.8,5.9,6.1,6.2c5.1,0.6,6.2,3.6,6.7,7.5c4.4,31,14.1,42.1,43.7,50c1.3,0.3,2.5,0.9,5,1.9
					c-21.5,21.7-36.5,46.5-46.9,74.9c-3.3-1.6-6.2-3-9.1-4.4c-13-6.7-26.2-6.1-39.5-1c-6.9,2.6-11.8,6.7-14.3,14.3
					c-1.4,4.2-5.6,7.4-9.6,12.2c-3.4-15.6,2.3-27.9,4.8-40.5c0.7-3.6,2.3-7.1,3.3-10.7c2.7-10,6.2-18.1,19.4-17.7
					c4.6,0.2,9.5-4.5,14.1-7.2c4.2-2.5,8.1-5.3,12.3-7.8c3.8-2.3,4.1-5.1,1-7.9c-1.9-1.7-4.6-2.5-6.4-4.3c-1.8-1.7-4.1-4-4.3-6.1
					c-0.5-5.3-2.7-8-8-7.4c-4.7,0.6-8-1-10.9-4.8c-1.3-1.8-3.5-3.2-5.5-4.2c-3.3-1.6-4.8-0.4-5.6,3.4c-1.6,7.2-3.5,14.5-6.2,21.4
					c-2.5,6.6-2.8,12.7,0,19.1c0.8,1.8,1.6,4.3,1,5.9c-4.3,12.1-9.1,24-13.3,35.1c-12.6-24.3-26.2-48.9-38.2-74.3
					c-9.4-19.9-10-41.4-6-62.8c6.9-37.1,30.3-62.3,61.2-81c9.1-5.5,20.2-7.7,30.7-10.1c-8,5.8-16.3,11.2-23.8,17.6
					c-11.2,9.6-19.9,21.1-23.9,35.7c-0.9,3.3-3.7,6.6-6.5,8.8c-12.2,9.7-18.8,21.6-18.2,37.7c0.2,6.4-1.8,12.9-3.2,19.3
					c-1.2,5.5,0.1,7.1,5.6,5.8c1.6-0.4,3.3-0.7,4.6-1.6c7.2-4.5,13.5-5.2,20.3,1.6c4.3,4.3,8.8,0.5,10.7-3.8
					c3.1-7.1,7.7-10.7,15.5-10.5c1.3,0,2.7-0.9,3.9-1.5c8.8-4.3,8.5-4.7,1.9-11.9c-4.1-4.4-6.7-10-10.2-15c-5-7-9.7-14.3-15.4-20.6
					c-2.6-2.9-3.3-4.9-2.2-8.5c6.7-22.1,22.6-36,42.3-45.4c9.3-4.5,20-6.6,30.4-8c14.4-2,27.7,3.3,40.3,9.8
					c18.5,9.6,36.8,19.6,55.1,29.4c0.2,0.1,0.4,0.2,0.7,0.2c22.1,3.1,30.2,20.4,37.6,37.9c2.7,6.5,3.9,13.9,4.6,21.1
					c0.5,5.8-5.1,12.1-9.5,12.4c-5.8,0.4-11.5-4.5-13-10.9c-1.3-5.6,1-8.9,8-11.1c1.7,2.1,3.4,4.3,5.1,6.5c0.8-0.3,1.7-0.7,2.6-1
					c-0.8-2.9-0.8-7.5-2.6-8.4c-3.3-1.7-8.4-2.7-11.6-1.4c-6.4,2.6-7.6,8.9-7,15.5c0.6,8,5.2,13.3,12.2,15.7
					c5.9,2.1,12.1,1.1,16.7-4.2c7.3-8.4,5.9-17.8,3.3-27.3c-0.3-1-0.7-2-1.7-4.8c5.5,3,9.4,5.4,13.5,7.2c9.7,4.1,19.5,7.8,29.2,11.7
					c5.2,2.1,9.7,0.8,11.9-4.2c5.2-11.7,9.9-23.6,14.5-35.5c1.2-3,1.1-6.4,1.7-9.7c10.4,4.2,12.4,8.7,8.9,18.5
					c-4.8,13.4-3,25.6,5.6,37.2c3.4,4.6,5.9,10,7.9,15.4c1.8,4.6,4.2,4.4,6.6,1.6c15.1-17.3,14.3-44.4,1.7-58.4
					c-1.5-1.7-3.9-2.4-5.8-3.7c-4.7-3.1-9.4-6.2-14.1-9.3c0.4-1,0.7-2.1,1.1-3.2c6.1,0.3,12.4-0.3,18.2,1.2
					c13.2,3.3,26,7.6,39.1,11.5c5.7,1.7,8.4,4.7,8.9,11.5c0.4,5.9,4,11.7,6.8,17.1c2.5,4.7,6.3,8.7,8.9,13.4c2.4,4.3,4.7,4,7.5,0.9
					c1.7-1.9,3-4.1,4.6-6.1c1-1.2,2.2-3.2,3.4-3.2c8.8-0.3,10.3-5.5,9.7-12.9c-0.1-1.5,1.7-3.3,2.9-4.7c1.8-2.1,4.2-3.9,5.5-6.2
					c1.8-3.3,0.9-5.5-3.4-6.5c-5.6-1.2-11.1-3.1-16.5-5c-8.3-3-16.4-6.1-24.9-0.8c-1.1,0.7-2.8,1-4,0.6
					c-12.3-4.3-24.4-8.8-36.9-13.3c11.4-5.6,22.7-11,33.9-16.8c9.6-5,18.8-10.5,28.3-15.6c24.2-13,49.9-17.4,76.8-11.8
					c37.7,7.9,64,31,82,64.1c4.6,8.6,6.6,18.6,8.3,28.5c-4.8-7.1-9.4-14.3-14.4-21.2c-9.4-12.8-21.4-22.1-36.9-26.9
					c-3.9-1.2-8-4.1-10.4-7.4c-8.7-11.4-19.4-17.8-34.1-17.9c-6.9,0-13.7-2.1-20.6-3.2c-2-0.3-4.1-0.6-6.5-0.9
					c-1.6,6.7-1.4,12.6,3.5,17.3c3,2.9,2.5,5.1-0.1,7.7c-1.7,1.7-3.3,3.4-4.5,5.4c-2.9,4.7-3.1,9.2,2.8,11.5
					c6.9,2.7,12.2,5.9,11,14.9c-0.4,2.7,2.2,6.1,4.1,8.6c0.9,1.1,4.2,1.9,5.3,1.2c10.8-6.9,21.4-14.2,32-21.4
					c1.9-1.3,4.3-2.7,5.2-4.7c4.1-8.6,10-6.4,16.4-3.5c33.3,15.3,55.9,56.5,46.2,89.1c-5.1,17.1-14.7,32.9-22.6,49
					c-3.7,7.5-8.2,14.6-12.7,22.4c-14-11.2-26.2-23.5-40-32.2c-3.4,4.5-5.5,7.8-8.1,10.8c-3.2,3.7-0.5,6.2,1.6,8.5
					c10.3,11.2,20.8,22.3,31.3,33.5c4.6,5,10,9.5,13.7,15.1c2.4,3.7,3.4,9,3.5,13.6c0.1,6.2-1.6,12.5-2,18.8
					c-0.7,11.6-1.3,12.6-14,16.2c-0.2-2.6-0.5-5.1-0.5-7.5c-0.1-10.1,0.2-20.2-0.2-30.3c-0.1-3.3-1.7-6.6-2.6-9.9
					c-1,3.2-2.6,6.4-2.7,9.6c-0.3,11.5-0.5,23.1,0,34.6c0.3,6.8-2.3,8.7-8.6,8.2c-5.9-0.5-11.8-0.1-17.6-0.3
					c-16-0.5-26.2-10.1-29.4-25.5c-3.5-16.6-8.1-33-12.3-49.6c-0.6,0.2-0.1-0.1,0.1,0c10.8,5.3,12.7,4.5,15.7-7.6
					c3.4-13.7,4.2-27.6-0.4-41c-6.1-17.5-21.4-23.2-37.9-14.8c-2.9,1.5-5.7,3.2-8.6,4.6c-0.5,0.2-1.3-0.1-2-0.2
					c-0.7-27.3,28.5-47.1,47.1-40.5c-0.5,1.9-1.1,3.9-1.5,5.9c-1.6,7.4,2.3,11.7,9.1,9.1c7.7-3,11.2-0.3,14.1,6.5
					c6,14.1,17.3,23.1,30.9,29.4c5.9,2.8,12,3.5,17.1-1.3c5.1-4.7,3.2-10.4,0.9-15.7c-2-4.6-4.4-9.1-6.9-14.1
					c6.3-1.5,12-2.5,17.4-4.3c3.5-1.1,7-2.9,9.8-5.3c6.7-5.9,5.5-14.4-2.3-18.4c-3.9-2-8.1-3.8-12.3-4.9c-4-1.1-8.3-1.1-13.1-1.7
					c2.2-4.6,4.6-8.5,5.9-12.8c1.2-3.7,1.7-7.8,1.8-11.7c0.1-5.6-3.2-8.5-8.9-8.6c-14.8-0.3-24.2,8.9-32.9,19
					c-3.6,4.1-6.2,9.1-9.3,13.9c-0.3-0.4-0.8-1.4-1.5-1.7c-2.9-1.5-6.1-4-8.8-3.6c-2.3,0.3-5.1,3.9-5.8,6.6
					c-1.1,4.5-3.3,6.6-7.7,6.5c-24.6-0.2-46.7,18.4-49.3,45.8c-0.1,0.6-0.6,1.2-1.1,2.1c-10.1-5.4-16.1-16.6-27.3-20
					c-0.6,0.6-1.1,1.2-1.7,1.8c1,1.5,1.7,3.5,3.1,4.5c37,28.2,60,65.5,70.8,110.3c6.2,25.9,6,52.3,0.3,78.3
					c-9.6,43.4-32,79.2-66,107.9c-2.8,2.3-8.6,2.9-5.9,10.6c5.4-3.9,10.3-7.4,16.5-11.9c3.8,7.9,7.8,14.9,10.5,22.5
					c0.9,2.7-1.2,6.4-2,9.7c-3-0.7-6.2-1-9-2.3c-5.9-2.7-11.4-6.5-17.5-8.6c-8-2.7-15.8-0.7-22.7,4.7c0,0-8.4,7.7-14.3,17.7
					c0.5,0.2,0.9,0.3,1.3,0.6c10.1,6.7,21.4,8.7,33,7.7c8.4-0.8,17.2-2.8,24.8-6.4c12.5-5.9,16.1-20,9.6-32.5
					c-2.1-4.1-4.3-8.3-6.5-12.6c27.2,0.6,46.6,22.3,42.2,47.4c-2.2-0.7-4.3-1.4-6.5-1.9c-6.5-1.6-10.9,2-8.9,8.3
					c2.7,8.3-0.4,11.8-7.6,15.5c-13.3,6.8-23.1,17.6-28.5,31.7c-2,5.3-3.6,11,1.4,15.7c4.9,4.7,10.7,2.9,15.9,0.9
					c4.5-1.7,8.6-4.6,13.8-7.4c0.8,3.3,1.1,6.2,2.1,8.9c2.3,6.3,4,13.2,7.7,18.6c4.7,6.8,13.4,6.1,17.4-1.2
					c3.1-5.8,4.4-12.6,6.3-19.1c0.6-2.2,0.5-4.6,0.8-7.7c6.1,2.7,11.3,6.1,17,7.3c4.3,0.9,10,0.5,13.7-1.7c4.7-2.8,3.6-8.4,2.1-13.5
					c-5-16.9-17.7-26.4-32.6-34.6c1.5-1.4,2.9-2.5,4-3.9c4.1-5.1,2.6-10.8-3.7-12.6c-5.9-1.7-7.5-5.4-7.9-10.8
					c-1.5-22.5-14.7-38.3-36.6-44.5c-3.3-1-6.5-2.5-10.7-4c5.1-6.1,9.9-11.8,14.5-17.5c13-15.7,22.9-33.2,29.3-52.6
					c1.6-4.7,3.5-4.9,7.1-2.6c16,10.2,32.4,10.1,48.5,0.8c3.9-2.2,6.3-7,9.2-10.7c3-3.8,5.7-7.9,8.5-11.9c0.9,0.4,1.9,0.8,2.8,1.2
					c-0.4,5.7,0,11.5-1.4,17c-3.4,13.6-7.6,27-11.6,40.5c-1.7,5.6-5.6,7.5-11.5,8.1c-5.3,0.6-10.4,3.5-15.2,6.2
					c-4.7,2.6-8.7,6.4-13.4,9c-5.2,2.9-6.4,5.8-1.8,9.3c5.1,3.7,10,7,10.8,14.1c0.1,1.2,3.6,3,5.5,2.9c5.2-0.2,9.7,0.1,12.4,5.5
					c0.8,1.5,2.8,2.5,4.5,3.3c3.2,1.5,4.8,0.7,5.8-3.3c2-8.1,5.2-15.9,7-24.1c1.1-5,0.5-10.5,0.5-15.7c0-3.5-0.9-7.2,0.1-10.4
					c3.1-10.5,6.9-20.7,10.8-32.3c1.4,2.6,2.4,4.2,3.3,5.9c9.6,18.8,18.4,38,29,56.2c21.8,37.4,18.2,89.8-10.1,124.2
					c-14.6,17.7-31.6,32.1-53.6,39.8c-6.1,2.1-12.6,3.1-20.7,5c9.1-5.9,16.9-10.1,23.8-15.5c13.2-10.2,23.8-22.6,28.1-39.3
					c0.6-2.4,1.9-5.3,3.8-6.5c16.8-10.2,21.9-25.6,21.1-44.3c-0.2-4.6,1.7-9.6,3.5-14.1c2.2-5.1,0.2-6.8-4.3-6.4
					c-3.6,0.4-7.8,1.1-10.5,3.3c-4.5,3.6-7.6,2.9-11.6-0.4c-8.3-6.8-11-6.4-15.8,3.2c-2.4,4.9-5.5,6.5-10.7,7.2
					c-4.2,0.5-8.4,2.7-12.1,4.9c-0.8,0.5-0.6,4.6,0.4,6.2c4.7,7.8,9.6,15.4,14.8,22.9c3.8,5.3,7.6,10.8,12.5,14.9
					c3.3,2.8,4.1,5,3.1,8.9c-3.8,14.3-13.3,24.8-24,34c-15,12.8-32.5,20.3-52.7,20.3c-14.7,0-27-6.7-39.4-13.5
					c-16.6-9.1-33.1-18.4-50.2-26.6c-7.1-3.4-15.5-4.3-23.2-7.1c8.7-3.5,17.6-3.7,26.6-2.4c3.3,0.5,6.5,1.3,9.8,1.4
					c11.4,0.3,15-3,16.8-14.3c0.4-2.4,1.6-4.8,3-6.9c6.5-9.6,3.7-17.8-7.7-19.7c-8.4-1.4-17.2-1.3-25.7-0.8
					c-6.7,0.3-9.5,5.6-9.7,11.8c-0.1,6.3,4.1,8.8,9.9,9.7c6,0.9,12,2,17.9,3.4c2.3,0.5,4.2,2.3,6.3,3.5c-1.9,2.6-3.5,5.5-5.8,7.8
					c-0.8,0.8-3.2,0.4-4.8,0.3c-12.1-0.9-24.1-1.8-36.6-2.8c2.3-10.8,0.3-21.7-6-31.9c-7-11.4-16.3-19.1-30.2-18.4
					c-10.7,0.5-21.6,1.1-31.8,3.7c-10.2,2.7-18.7,9.9-17.7,23c0.1,1.8-0.4,3.6-0.6,5.7c-7.3-2.5-14.3-4.5-20.8-7.4
					c-6.1-2.7-9.8-2.2-11,5c-0.2,1.5-1.4,2.8-2.1,4.1c-8.8-3.3-18.7-17.7-17.8-25.3c1-8.4,3.8-11.3,11.4-12.2
					c-0.2-6-7.9-10-14.4-8.8v16.5c-0.8,0.3-1.7,0.5-2.5,0.8c-6-4.1-11.8-8.7-18.2-12.1c-3-1.6-7.6-2.3-10.7-1.2
					c-1.6,0.6-2.9,6.5-1.8,8.9c1,2.1,5.7,4.3,8.2,3.7c10-2.2,17.9,0.5,22.4,10.5c4.6,10.1,11.7,17.8,19.3,25.5
					c3.7,3.8,4.2,10.7,6.8,18.1c-7.9-1.5-13.7-2-19.1-3.7c-10.3-3.2-20.4-6.9-30.4-10.9c-2-0.8-4.1-3.9-4.2-6
					c-0.6-8.4-4-15.3-8.8-21.8c-3-4.1-5.8-8.5-8.4-12.9c-1.8-3-3.5-4.6-6.4-1.5c-2.2,2.3-4.1,5-6.3,7.4c-1.3,1.4-2.9,3.6-4.4,3.6
					c-6.8,0.1-8.3,4.8-8.5,9.8c-0.2,4.3-1,7.3-5,9.9c-2.4,1.6-3.2,5.7-4.4,8.1c10.9,3.4,20.7,7.2,30.8,9.4c4.8,1,10.3-0.9,15.4-1.5
					c1.3-0.1,2.8-0.7,3.9-0.4c11.3,3.9,22.5,8,33.7,12c0.6,0.2,1.1,0.8,1.5,1.1C834.6,163.8,811.4,179.1,786,189z M706.4,148.6
					c-2.7,0.1-5.5-0.5-8.3-0.8c2-8.5,19.1-20.7,38.5-27.3c-0.4,4.9-1.1,8.8-0.8,12.6c0.2,2,2,4.4,3.7,5.6c2,1.4,4.9,1.4,7.2,2.3
					c3.5,1.5,4.8,4.5,2,7.2c-7.8,7.5-10,14.8,1.3,22.6c-0.7,0.5-1.3,0.9-2,1.3c-12.6-1.9-25.4-3.2-37.8-6.1
					c-4.4-1.1-7.7-6.4-11.6-9.8c0.3-0.6,0.7-1.2,1-1.8c9.4-0.7,18.9-1.3,28.3-2.3c2.1-0.2,4-1.8,6-2.7c-2-0.7-4-2-6-2
					C720.8,147.6,713.6,148.4,706.4,148.6z M717.1-47.6c-1.6-1.3-3-3-4.8-4c-3.3-1.8-6.9-3.3-10.3-4.8c10.6-4.4,19.7-3.5,27.4,3.8
					c5.2,4.8,4.7,7.2-1.4,10.3c-12.6,6.3-26.1,2.6-30.4-9.2c4.3,2,8.5,4.3,13,5.6C712.5-45.3,714.9-47,717.1-47.6z M752.4,18.2
					c0.9-5.8,1.7-10,2.2-14.3c0.6-4.9,1.3-9.8,1.3-14.6c0-2.4-1.5-4.7-2.3-7.1c-1.3,2.4-3.3,4.6-3.7,7.1c-1,5.5-1,11.2-1.8,16.7
					c-0.3,2-1.4,4-3,5.8c-3.9-12.6-2.7-24.9,1.7-36.9c1.7-4.7,5.2-1.9,7,0.5C764.6-10.3,766.6-0.3,752.4,18.2z M771.1-4.6
					c5.1,7.1,10.9,15.1,18.2,25.2c-8.8,3.4-16.4,6.7-24.3,9.2c-2.2,0.7-6.3-0.2-7.4-1.9c-1.1-1.6,0.1-5.3,1.2-7.6
					C762.7,11.9,767,3.7,771.1-4.6z M698.7,65.9c-12.5,13-27.7,15.2-42.4,6c-1.8-1.1-4.4-4.3-3.9-5.1c1.5-2.9,3.8-6.3,6.6-7.5
					C673.1,53.5,687,51.8,698.7,65.9z M674.9,29.3c-0.1-0.7-0.2-1.4-0.3-2.3c-0.1-5.5,3.5-7.2,7.9-5.7c16.6,5.6,29,16,34.2,33.3
					c1.6,5.4-1.5,9-6.5,8.2C697.2,60.8,677.4,42,674.9,29.3z M710.6,69c5.4-0.4,7.3,1.7,6.4,6.7c-1.8,10.6-7.8,18.7-15.8,24.9
					c-5.4,4.2-11.9,7.2-18.3,9.8c-4.1,1.7-7.5-0.7-7.4-5.6C675.8,91.8,698.3,69.2,710.6,69z M844.5-290.2c-11.4-2.1-21.6-4-31.7-5.9
					c0.1-0.6,0.1-1.2,0.2-1.8c12.7-3.1,25.4-2.8,37.7,2.1c0.7,0.3,0.8,4.7-0.2,5.9c-6.6,7.7-20.2,15-32.5,6.4
					c-2.7-1.9-5.8-3.3-8.6-5c0.3-0.4,0.5-0.8,0.8-1.2c10.3,0.8,20.7,1.7,31.1,2.4C841.8-287.3,842.5-288.4,844.5-290.2z
					 M762.7-346.8c-1.1,1.1-5.1,1.4-5.7,0.6c-4.4-5.7-9.7-11.1-9.4-19.4c1.5-6.1,2.5-12.4,4.8-18.2c1-2.6,4.4-5.5,7-5.8
					c1.8-0.3,5,3.3,6.1,5.7C771.5-371.1,773.7-358.3,762.7-346.8z M794.5-367c6.3-2.4,10-0.1,9.8,7.2c-1.6,3-3.8,7.7-6.4,12
					c-5.9,9.7-13.6,17.4-24.6,20.9c-2.8,0.9-6.2-0.1-9.4-0.3c0.2-3.3-0.4-7,0.7-9.9C770.3-351.1,780.1-361.4,794.5-367z M747-350.2
					c3.7,4.1,6.4,9.3,8.5,14.4c1.1,2.6,0.9,6.9-0.7,9c-1.1,1.5-5.9,1.4-8.4,0.4c-14.8-5.6-25-16.2-31.3-30.5c-2.6-6,0.2-9.4,9-9.1
					C732.5-364.2,740.3-357.8,747-350.2z M691.2-226.9c-2.8-13.2,5.8-21.5,8.5-31.1c3.2,2.1,5.4,4.4,8.1,5.1c3,0.8,6.3,0.2,10.2,0.2
					c-2,7-2.3,12.9,7.6,13.3c-7.9,7.6-13.9,17.1-27.6,15.9c4.4-6.7,8.3-12.6,12.3-18.6c-0.6-0.5-1.2-1-1.8-1.4
					C699.8-242,698.6-232.2,691.2-226.9z M686.9-303.2c-0.2,0.9-0.2,1.9-0.4,2.8c-2.9,9.7-6.8,11.1-12.9,3.4
					c-4.8-6-8.1-5.6-12.7-0.7c-1.2,1.2-3.1,1.8-4.8,2.7c-4.2-23.8,1.4-41,16.6-48.8c0,8.9,0,17.1,0,25.4c0,1.7-0.4,3.4,0.2,4.9
					c0.6,1.7,2,3.1,3,4.6c0.9-1.6,2.7-3.2,2.7-4.7c0.1-5.4-0.5-10.7-0.6-16.1c-0.1-4.8,0-9.6,0-14.4c0.9-0.3,1.7-0.7,2.6-1
					c6.3,4.1,9.6,10.6,12.9,17.2c3.4,6.6,7.2,12.9,11.8,21c-4.5,0-8.3,0.7-11.7-0.2C689.3-308.2,687.6-306.8,686.9-303.2z
					 M993.7-333c-1-4.2-2.5-8.3-4-13c11.6,8.7,14.6,34.3,3.5,45.8c-17-22.9-19.7-33.5-9.8-46c2.9,9.3,5.3,17.1,7.9,25.5
					C997.3-324.7,994.6-329.1,993.7-333z M1064.6-340.8c-3.7-2.8-7.3-5.6-11-8.4c4.7-5.7,11-4.4,31.4,7c-10,2.1-6.4,9.2-6.1,15.9
					c-3.7,0.2-7.3,0.4-11.3,0.6c-0.7,3.5-1.3,6.2-2.3,10.8c-7.9-9.4-16.9-15.8-16.3-28.6c5,2,9.5,3.8,13.9,5.6
					C1063.5-338.9,1064-339.8,1064.6-340.8z M1170.3-364.3c-2.2,7.6-30.3,25.2-38.5,24.5c-0.2-0.4-0.6-0.8-0.6-1.2
					c-0.3-4.1-7.4-15.3-10.8-18.1c-1.2-1-1.6-3.7-1.4-5.6c0.2-1.4,1.7-2.9,2.9-3.8c6.2-4.7,6.2-9.3,0.5-14.4c-0.8-0.7-1.1-1.9-2.9-5
					c12.9,1.2,24.6,1.1,35.6,3.7c5.5,1.3,10,7.3,16.2,12.2c-12.6,0.9-22.6,1.5-32.5,2.4c-1.5,0.2-2.8,2.2-4.2,3.3
					c1.7,0.6,3.3,1.7,5,1.8C1149.8-364.2,1160-364.3,1170.3-364.3z M1114.6-232.8c1.6,11.6-6.1,23.2-0.3,34.3
					c0.8,0.1,1.6,0.2,2.4,0.3c1.7-10.4,3.3-20.8,4.9-31.3c0.6,0.1,1.2,0.2,1.8,0.3c2.9,13.4,2,26.6-3.3,39.7
					C1103.5-200.1,1100.9-220.9,1114.6-232.8z M1097.1-212.3c-5.2-6.8-11.1-14.7-18.4-24.4c8.6-3.9,16.4-7.7,24.6-10.7
					c1.9-0.7,5.6,1.1,7,3c1,1.3-0.1,4.7-1,6.9C1105.5-229.2,1101.4-221,1097.1-212.3z M1172.8-279.5c-1-1-2.2-1.6-3.8-2.7
					c11.2-13.1,28.9-15.9,42.3-7c1.8,1.2,4.2,4.2,3.8,5.2c-1.2,2.8-3.4,6-6,7.2C1196.7-271.5,1184.1-268.4,1172.8-279.5z
					 M1192.4-247.9c2.6,7.1-0.4,10.3-7.9,8.9c-12.8-2.3-30.9-20.3-33.5-33.3c-1-5,1.4-7.4,9.5-7.2c1.8,0.9,5.3,2.5,8.7,4.4
					C1180.1-268.8,1188.1-259.8,1192.4-247.9z M1155.8-286c-1.4,0-2.7-0.3-4.5-0.5c-1.7-10,2.8-17.1,8-23.8
					c6.3-8.1,14.1-14.3,24.1-17.2c5.6-1.6,8.5,0.3,8.4,5.6C1191.6-308.1,1169.3-285.9,1155.8-286z M1031.4,69.6
					c-2.3,0.1-4.5,1.8-6.8,2.8c2.3,1.1,4.6,2.7,7,3.2c7.9,1.4,15.9,2.4,23.6,4.7c-13.8,3.3-27.3,4.1-40.5-2.8
					c10.5-17.4,29.3-19.4,42.9-4.2c-5-0.9-10-1.9-15.1-2.6C1038.9,70.2,1035.1,69.4,1031.4,69.6z M1108.2,127.2
					c14.1,10.8,13.8,24.3,8,38.6c-1.2,3.1-4.5,6.1-7.5,7.2c-1.4,0.5-5.3-3.5-6.7-6.1C1093.5,151.2,1095.3,140.2,1108.2,127.2z
					 M1071.4,150.5c-7.1,0.7-8-3.1-7.5-7.5c1.3-12,21.9-32.6,33.7-34.1c5.2-0.6,8,1.7,7.3,6.7C1102.8,129.4,1085.2,149,1071.4,150.5
					z M1111.2,116.8c-0.2-0.9-0.2-1.9-0.4-4.7c0.9-0.7,2.6-2,4.4-3.1c0.5-0.3,1.4-0.2,2.1-0.2c13.2,0.3,34.8,20.8,35.8,33.8
					c0.4,4.9-1,7.8-6.7,7C1133.8,147.7,1113.8,129.1,1111.2,116.8z M1176.5,10.4c3.4,12.2-5.7,20.5-7.6,32.4c-4.3-9.6-11.3-6-18-6.3
					v-11c-3.4-1.2-6.2-2.1-10.7-3.7c10.2-5.7,15.7-16.5,30.3-15.5c-4.8,7-8.8,12.6-13.5,19.5C1168.5,26,1168.8,14.6,1176.5,10.4z
					 M1181.2,84.8c2.6-10.8,5.6-11.5,14-4.2c4.1,3.5,7.8,3.8,11.8,0.1c1.3-1.2,2.9-2.2,5.2-4c0.3,29.2,1.1,40.8-16,49.7
					c0-4.6,0.1-8.3,0-12.1c-0.2-5.8-0.4-11.7-1.1-17.5c-0.2-1.4-2.5-2.6-3.8-3.9c-0.4,1.6-1.1,3.2-1.1,4.9c-0.1,10.1,0,20.3,0,30.5
					c-0.9,0.4-1.7,0.7-2.6,1.1c-3.2-3.7-6.9-7.1-9.5-11.2c-4.3-6.7-7.9-13.8-11.6-20.9c-1-1.9-1.2-4.3-1.8-6.4
					c2.7-0.6,5.9-2.4,7.9-1.5C1178.1,91.8,1179.8,90.4,1181.2,84.8z M1045,125c-8.9-1-17.7-3.2-26.5-5.4c-0.4-0.1-0.7-5.8,0.4-6.3
					c3.3-1.8,7.3-2.4,9.6-3.1c6.8,0.8,12.1,1,17,2.3c2.4,0.7,6.1,4.4,5.7,5.4C1050.1,120.8,1046.9,125.2,1045,125z M803.3,98
					c5.6,9.9,17.7,15.2,15.6,30.5c-7-5.1-12.8-9.3-18.7-13.6c-0.5,0.6-1,1.2-1.5,1.8c2.1,7.9,9.7,11.2,15.4,16.1
					c-3.5,4.3-19.3,0.2-30.6-8.5c12.5-1.4,3.4-10.3,7-15.6C798.3,110.7,803.1,107.6,803.3,98z M894.6,159.5
					c-5.4-6.9-8.7-15.6-12.1-23.9c-1.2-2.8-0.2-6.4-0.2-9.7c0.6-0.3,1.2-0.6,1.9-0.9c8.7,11.5,17.4,23.1,27.6,36.6
					C904.4,160.8,896.8,162.3,894.6,159.5z M915.9,155.4c-9.3-10.1-17.6-21-26.3-31.6c0.8-0.7,1.6-1.4,2.3-2.1
					c10.7,2.4,20.1,6.4,25.6,17.2c3.7,7.2,8.3,13.9,12.6,20.8c-0.4,0.7-0.9,1.4-1.3,2.1C924.5,159.6,918.9,158.6,915.9,155.4z
					 M950.2,130.6c-0.9-0.2-1.9-0.4-2.8-0.6c-1.3,5.9-2.7,11.7-4,17.6c-0.5-0.1-1-0.1-1.5-0.2c0-3.2,0.2-6.4-0.1-9.5
					c-0.1-1.4-1.3-2.6-2-4c-1.1,1.2-3.1,2.4-3.2,3.7c-0.4,5.6-0.2,11.2-0.2,17.9c-12.3-13.2-20.1-27.5-18.7-45.4
					c0.2-2.9,3.2-6.4,5.8-8c12.6-7.3,26.5-9.6,40.7-7.5c15.5,2.3,29.8,20.9,28,36.3c-0.6,4.8-3,10.7-6.6,13.4
					c-10.8,8.3-22.7,15.3-35.5,23.7V130.6z M873.1,181.5c1.1-6.8,5.6-10.7,11.2-12.1c11.7-2.8,24.1-7.3,34.1,5
					c-7.1-1.4-13.7-3-20.4-3.8c-3.4-0.4-7,0.6-10.3,1.5c-1.4,0.4-2.4,2.2-3.6,3.3c1.7,0.8,3.3,2.3,5,2.3c5.3,0.1,10.6-0.7,15.9-0.5
					c2.3,0.1,4.5,1.6,6.8,2.4c-0.1,0.6-0.2,1.2-0.3,1.8H873.1z M924,181c6.6-5,3.5-9-2.1-12.8c0.7-0.6,1.5-1.3,2.2-1.9
					c2.7,1.6,7.9,3.7,7.8,4.8c-0.7,3.9-3.2,7.6-5,11.3C925.9,182,925,181.5,924,181z M939.4,180.1c1-0.8,1.9-1.6,2.9-2.5
					c2,2.3,4,4.5,6,6.8c-1.4,0.9-2.8,1.9-4.2,2.9C942.6,184.9,941,182.5,939.4,180.1z M893,201.9c-7.8-0.8-16.9-1.2-18.7-12.9
					c13.2-1.2,26.1-4.7,39.2-0.7c0.1,0.7,0.2,1.3,0.3,2c-7.1,1.3-14.2,2.5-21.2,4c-2,0.4-3.8,2-5.7,3c2,1,4.1,3,6,2.8
					c6.6-0.7,13.1-2.3,19.8-2.7C907.6,204.6,899.8,202.7,893,201.9z M915.1,207.9c-10.2,14-20.1,27.6-29.6,40.7
					C882.1,229.9,898.2,205.9,915.1,207.9z M891.8,254.6c1-13.4,28.7-45.9,42.6-48.6c-2.5,3.5-4.8,6.1-6.4,9.1
					c-4.3,8-8.7,15.9-12.5,24.2C911.8,247.6,901.4,254.7,891.8,254.6z M951.8,273.9c-7.2-1-14.3-2.4-21.3-4.4
					c-8.1-2.3-11.8-7.3-11.7-15.5c0.2-11.7,5.4-21.8,11.3-32.2c1.7,3.9,2.9,6.6,4.1,9.3c1.2-2.9,2.6-5.7,3.6-8.6
					c0.9-2.7,1.4-5.6,3.7-8.5c1.8,8.2,3.7,16.4,5.5,24.6c1.1-0.2,2.2-0.3,3.4-0.5c1.8-12.5-5.8-25.3-0.4-37.4
					c11.6,7,23.4,13.4,34.4,21c14.2,9.8,10.4,22,4.9,32.9C981.5,270.3,969.3,276.4,951.8,273.9z"/>
			</g>
		</g>
	</g>
</g>
</svg>
