<?xml version="1.0" encoding="utf-8"?>
<!-- Generator: Adobe Illustrator 26.0.1, SVG Export Plug-In . SVG Version: 6.00 Build 0)  -->
<svg version="1.1" id="Layer_1" xmlns="http://www.w3.org/2000/svg" xmlns:xlink="http://www.w3.org/1999/xlink" x="0px" y="0px"
	 viewBox="0 0 836.6 322.7" style="enable-background:new 0 0 836.6 322.7;" xml:space="preserve">
<style type="text/css">
	.st0{fill:#00A19B;}
	.st1{fill:#008080;}
	.st2{opacity:0.5;fill:#252525;}
	.st3{opacity:0.5;fill:#00A19B;}
	.st4{opacity:0.1;fill:#252525;}
	.st5{opacity:0.1;fill:#00A19B;}
	.st6{fill:#252525;}
	.st7{fill:#EDFFFE;}
	.st8{fill:#F9F9F9;}
	.st9{opacity:0.5;}
	.st10{opacity:0.5;clip-path:url(#SVGID_00000178197619216300034290000005478994604947533713_);}
	.st11{opacity:0.5;clip-path:url(#SVGID_00000165227950378309025470000002380733838083981203_);}
	.st12{opacity:0.5;clip-path:url(#SVGID_00000093886470780099093580000004416298517925464993_);}
	.st13{opacity:0.5;clip-path:url(#SVGID_00000049214824844741882010000004287469476228726663_);}
	.st14{opacity:0.5;clip-path:url(#SVGID_00000098908860639720167540000016659596710971186834_);}
	.st15{opacity:0.5;clip-path:url(#SVGID_00000039849788557363005280000013012668588632407742_);}
</style>
<g>
	<path class="st1" d="M827.1,106.1c-4.8-1.6-9.8-2.9-14.8-3.4c-4.7-0.5-9.5,0.3-15.1,0.5c1.6-5.8,3.5-10.9,4.3-16.3
		c0.7-4.6,0.5-9.5-0.2-14.1c-1-6.6-5.1-9.4-11.6-8.4c-16.7,2.5-25.5,15.2-33.4,28.8c-3.2,5.6-5.2,11.9-7.9,18.2
		c-0.4-0.4-1.1-1.4-2-1.7c-3.5-1.1-7.6-3.6-10.5-2.6c-2.5,0.8-5,5.6-5.2,8.8c-0.2,2.8-0.8,4.8-2,6.3c-4.1-0.8-8.3-1.4-12.6-1.9
		c-8.5-0.9-17.3-1.2-26.5-0.9c-14,0.5-28,2.9-41.7,4.5c5.9-10.2,13.2-19.5,16.9-30.1c4.2-12.1-0.6-23.8-9.9-32.4
		c-10.4-9.6-21.9-17.9-39.9-14.4c15.1,16.1,9.5,35.1,13.5,51.7c-12.5-4.7-24.5-9.2-35.3-13.3c5.5-10,11.3-19.5,16-29.5
		c3.6-7.5,3.1-15.4-2.7-22c-5.4-6.1-12.1-5.7-18.7-2.4c-10.6,5.2-20.9,10.6-32.2,16.4c-2.4-7.6-4.7-15.7-7.7-23.5
		c-4.5-11.6-18.9-16.4-26.4-8.5c-4.7,5-9.3,11.6-10.8,18.1c-4.5,19.4-5.9,39.1,1.8,58.3c3.8,9.5,2.4,15.8-8,19.9
		c-8,3.2-9.2,13.7-1.8,16.6c11.9,4.6,9.2,11.9,6.9,20.2c-1.5,5.6-3,11.2-3.8,16.9c-3.2,23.4-2.6,28.5-34.8,22.2
		c-0.3-0.1-0.7,0-1-0.1c-10-3.4-20.2-6.4-28.9-15.1c40.3-21.6,55.6-54,46.4-96.9c-2.2-10.4,0.2-17,7.7-23.1c5.7-4.6,6-9.5,0.5-14.5
		c-5.3-4.8-10.8-9.4-15.5-14.8c-15.8-18.2-41.6-20.4-59-3.9c-6.8,6.5-11.8,14.8-17.5,22.4c-10.1,13.7-20.8,26.6-39.7,31.5
		c0-5.1,0.7-9.6-0.1-13.7c-2.5-13.3-4.4-26.8-8.8-39.4c-1.6-4.7-9.2-9.8-14.3-10.2c-5.1-0.3-11.4,4.3-15.4,8.5
		c-3.5,3.7-4.5,9.7-6.4,14.7c-1.6,4.2-2.9,8.5-3.9,11.4c-11-6.1-20.5-12.9-31.1-16.9c-15.7-6-26.7,2.9-23.1,19.1
		c2.1,9.5,8.4,18.1,12.9,27.1c1.4,2.7,3.3,5.2,5.3,8.5c-6.2,1.6-10.9,2.3-15.3,4c-4.7,1.7-9.5,3.8-13.7,6.6
		c-10.2,6.7-12,17.4-2.1,24.1c9.2,6.2,20.5,10.2,31.5,12.1c11.6,2,23.9,0.5,36.5,0.5c-8.5,14.6-24.6,25-20.8,48.3
		c-27-14.5-51-27.4-76-40.8c2.8-4.6,5.1-8.3,7.3-12c8.7-14.3,11.2-28.7,3.3-44.5c-10.5-20.9-28.2-29.5-49.5-22.7
		c-16.4,5.3-22.9,19.5-28.8,33.7c-0.8,1.8,2,6.7,4.2,7.7c17,7.3,34,10.1,49.9-3.1c2.9-2.4,6.2-4.4,9.6-5.7c2.6-1,7-1.9,8.2-0.6
		c2.3,2.5,4.6,7.2,3.6,9.8c-3.6,9.5-8.2,18.6-13.3,27.4c-1.2,2-6.3,2.9-9.2,2.4c-16-2.8-31.8-7.1-47.9-9.3
		c-42.6-5.7-81.9,6.7-113.5,29.1c-1,0.1-1.9,0.4-2.9,0.7c-5.6,1.9-11,5.2-15.6,8.9c-6.3,5.1-10.9,11.7-12.7,19.9
		c-0.1,0.3-0.2,0.6-0.4,0.9c7.8,2.1,15.8,1.8,15.8,1.8c6.2-0.7,11-3.4,13.7-8.7c2-4,2.9-8.6,4.6-12.8c0.3-0.8,0.8-1.6,1.3-2.4
		c7.4-5.3,15.4-10.2,23.7-14.7c12.5-6.8,27-9.6,41.4-12c-10.3,7-20.7,13.6-30.7,20.9c-18.6,13.7-32.1,31-39.1,53.5
		c-1.7,5.7-6,11.6-10.7,15.2C15.3,233.5,6,249,5.9,270.4c-0.1,10-3,19.9-4.6,29.8c-0.5,3-0.8,5.9-1.3,9.4c9.8,2.3,18.3,2.1,25.2-5.1
		c4.2-4.4,7.4-3.7,11.2,0.1c2.4,2.4,5,4.8,7.8,6.6c6.8,4.1,13.4,4.5,16.7-4.1c4-10.1,8.6-17.6,21.6-15.9c3.9,0.5,8.9-3.2,12.5-6
		c1.7-1.3,2.7-6.1,1.7-7.8c-10.1-15.7-20.6-31-31.1-46.4c-1.9-2.8-4-6.2-6.8-7.5c-12.4-5.9-9.3-14.5-5-23.8
		c22.2-48.4,82.1-81.1,129.3-67.1c24.8,7.4,47.7,21.3,71.2,32.8c10.9,5.4,21.2,12,32.5,18.4c-16.2,20.3-34.2,38.1-46.8,58
		c6.6,4.9,11.4,8,15.7,11.8c5.4,4.6,9,0.7,12.3-2.3c16.3-15,32.4-30.3,48.6-45.4c7.2-6.7,13.8-14.5,21.9-19.9c5.4-3.6,13-4.9,19.7-5
		c9.1-0.1,18.2,2.3,27.3,2.8c16.8,1,18.3,2,23.5,20.3c-3.8,0.3-7.4,0.7-11,0.7c-14.7,0.1-29.4-0.2-44,0.3c-4.9,0.2-9.6,2.5-14.4,3.8
		c4.6,1.4,9.2,3.8,13.9,4c16.7,0.5,33.5,0.7,50.2,0c1.6-0.1,3,0,4.2,0.1l23.1,0.2h0.1l7.4,0.1c13.9,0.1,28.1,0,44,0
		c-1.7,5.8-2.4,9.3-3.8,12.6c-8.4,20.6-7.4,39.6,8.4,56.8c3.2,3.6,5.2,8.3,8.2,14.1c2.8,3.9,5.8,8,8.2,12.2c1,1.4,1.9,2.8,2.7,4.3
		c0.8-3.8,1.9-7.4,3.7-10.8c0.2-1.2,0.9-2.6,1.9-4.3c14.8-23.2,14.7-47,1.2-70.4c-3.2-5.6-10.1-9.2-15.5-13.4
		c-5.6-4.3-11.4-8.3-17.2-12.3c0.6-1.3,1.1-2.7,1.7-4c8.2,0.6,16.8,0.1,24.7,2.1c19.7,5,39.2,11.1,58.8,16.9
		c8.2,2.4,10.8,8.1,11.8,16.7c0.9,7.6,5.1,15.1,9,22.1c3.7,6.8,9.3,12.6,13,19.4c4.2,7.6,8.5,9.3,13.4,2.5
		c5.4-7.4,10.1-14.5,20.5-15.7c1.7-0.2,4.3-5.2,4.2-7.9c-0.2-7.6,0.2-14,8-18c2.2-1.1,3.6-4.1,4.8-6.5c2.2-4.7,0.9-7-4.7-8.4
		c-11.8-2.9-23.1-7.5-35-10.1c-7.3-1.6-15.2-0.7-22.8-0.8c-5.1-0.1-10.5,1.3-15.2-0.1c-15.2-4.5-30.1-10-46.9-15.7
		c3.7-2.1,6.1-3.5,8.6-4.8c27.2-14,55.2-26.7,81.6-42.1c29.9-17.5,66.4-23.7,101.5-18.9c3.8,0.5,7.5,1.2,11.3,1.9
		c-0.1,0.7-0.2,1.5-0.4,2.2c0.3,0.1,0.7,0.1,1,0.2c0,0.1,0,0.2,0,0.3c-0.2,2.3-0.5,4.6-0.6,7c-0.4,9,4.7,13.3,11.9,8.9
		c8-5,12.5-2.5,17,4.9c9.4,15.5,23.7,23.8,40.2,28.5c7.2,2.1,14.1,1.8,19-4.8c4.8-6.5,1.6-12.8-1.9-18.6c-3.1-5.1-6.7-9.8-10.4-15.3
		c6.8-3,13-5.3,18.8-8.5c3.7-2,7.4-4.8,10-8.1C839.6,119.1,836.7,109.3,827.1,106.1z M170.1,96.8c-8.3-2-10.3-4.5-6.1-11.7
		c7.8-13.4,25.4-27.1,40.3-17.8c1.3,0.8,2.3,2.1,3.8,3.6c-28.1,5-31.4,6.6-32.9,16.3C186.3,86,196.7,77,209.6,83
		C197.4,93.3,185.9,100.6,170.1,96.8z M17.2,177.6c3.2-9.8,10.4-16,18.9-21.1c-2.8,4.9-6.3,9.3-9.5,13.9c-1,1.4-1.3,3.3-2,5
		c1.6-0.6,3.6-0.9,4.8-1.9c1.9-1.7,3.4-3.9,5-6c2.2-2.8,4.2-5.8,6.3-8.6C41.4,173,30.9,181.2,17.2,177.6z M82.9,283.4
		c-0.6,0.3-1.2,0.8-1.8,0.8c-6,0.4-22.2,10.8-26.3,15.7c-1.5,1.8-5.4,2.3-8.1,2.1c-2-0.2-4.2-2.4-5.6-4.3c-6.8-9-13.6-9-20.9-0.7
		c-1,1.2-2.8,1.7-7.2,4.2c1.7-18.8,1.7-35.7,5.4-51.6c1.9-8,10.6-14.5,17.7-23.5c1.3,18.3,2.1,32.8,3.5,47.2c0.2,2.2,3.1,4,4.8,6.1
		c0.9-2.4,2.5-4.9,2.6-7.3c0.2-14.8,0.1-29.6,0.1-44.6C58.2,230.7,83.9,271.6,82.9,283.4z M482.8,40.6l-6.5,6.5l-8.5-8.5l6.5-6.5
		L482.8,40.6z M470.5,26.7c0.1,0.2,0.2,0.3,0.3,0.5l-0.3-0.3l-9.3,9.5l-2.2,2.2l12.9,13l-2,2l-13.2-13.2L445,39.9l-4.1-0.2l-9-9.7
		h-6.4C433.9,14.5,459.4,12.1,470.5,26.7z M415.1,40.6l12.3,0.5l-9.6,12.1l-0.1,0.1c-0.5,0.8-1,1.4-1.6,2l-0.1,0.1l-2.7,3.4h-12.5
		L415.1,40.6z M324.7,60.2c0.3-11.6,3.6-23.2,6.6-34.6c0.9-3.2,5.1-7.6,8-7.7c3-0.1,8.1,3.5,9.1,6.6c3.8,11.1,6.3,22.6,9.4,34.5
		c-3,10.4-5.2,20.6-8.9,30.2c-1.3,3.4-6.2,7.8-9.2,7.7c-3.3-0.2-8-4.6-9.2-8.1C327.7,79.6,324.5,69.8,324.7,60.2z M268.6,46.6
		c-1.5-9.6,2.8-13.9,12.3-10.8c19.5,6.4,39.2,17.8,37.1,47.9C294.1,86.1,272.1,69.3,268.6,46.6z M288.1,125.2
		c-10.6-3.6-21.2-6.6-31.4-10.8c-2.8-1.1-5.6-5.3-5.9-8.3c-0.2-2.3,3.2-6,5.9-7.2c21.7-9.9,43.8-11.6,65.7-1
		c3.4,1.7,7.8,6.2,7.7,9.2c-0.1,3.2-4.6,7.8-8.1,9C311.3,119.7,300.1,122,288.1,125.2z M264.1,243.7c-3.6-2.8-6.2-4.8-9.9-7.6
		c11.6-13.7,23.2-27.3,34.8-41c0.7-0.8,1.7-1.3,2.1-2.2c8.4-17.4,23.6-12.3,39.5-12C307.8,202.5,286.3,222.8,264.1,243.7z
		 M314.2,172.3c-2-1-6.5-2.1-9.3-4.9c-1.2-1.3,0.1-6.8,2-9c20.4-24.9,40.2-50.4,62.4-73.7c8-8.3,21.5-12.4,33.3-15.5
		c14.4-3.8,21.9,7.4,17,21.7c-9.3,27.1-29.9,44-52,59.7C352.3,161.6,335.6,169.7,314.2,172.3z M387.3,173.8
		c-3.9-0.6-9.8-3.8-10.2-6.6c-0.8-4.4,0.9-10.8,4-14.1c8.7-9.5,19.5-17.1,27.6-27c7.5-9,13.2-19.7,18.5-30.2
		c4.2-8.5,4.5-17.6-1-26.3c-3.3-5.2-3.4-10,1.3-15.6c4.8-5.6,8.5-3.6,13.2-1.4c0.9,0.4,2,0.3,3,0.4c24.7,3.1,36.8,17.3,36.5,42.7
		c2.9,49.4-36.6,73.4-73.7,77.9C400.2,174.4,393.5,174.8,387.3,173.8z M426.3,203.8c-6.7-1.4-11.6-11.4-17.5-17.7
		c15.7-11.7,47.6-1.1,60.3,18.6C454.2,204.6,439.8,206.5,426.3,203.8z M496.6,243.5c2,5.7,3.4,11.6,5,17.5c1.7-0.3,3.4-0.7,5.1-1
		c-2.1-11.4-4.2-22.7-6.2-33.5c16.1,10.6,18.7,48.5,4,66.2c-20.4-22.2-30.4-45.1-15.6-67C491.7,232.1,494.5,237.6,496.6,243.5z
		 M585.2,227.2c10.1,7,18.3,12.7,28.3,19.7c0.3-16.7-16.2-17.2-22.4-28.4c17.8-4.9,29.8,8.2,47,11c-13.9,6.2-8.8,16.4-9.1,26.1
		h-15.9c-1.7,5-3.1,9-5.4,15.5C599.4,256.3,583.8,248.3,585.2,227.2z M593.4,38.4c7.3-0.7,9.7,2.3,9,9.5c-1.8,19.3-19.8,37.4-39,39
		c-3,0.2-6,0.8-9.6,1.2C551.8,64.1,571.1,40.6,593.4,38.4z M579,92.4c11.5,2.5,21.9,4,31.9,7.2c3.8,1.2,8.1,6,8.8,9.7
		c0.4,2.7-4.2,7.6-7.7,9.4c-20,10.2-40.7,9.4-61,1.3c-4.1-1.6-9.4-6.8-9.3-10.3c0.1-3.5,5.6-8.4,9.7-10
		C560.4,96.3,570.2,94.6,579,92.4z M521.6,30.7c1.7-4.1,6.9-9.2,10.5-9.2c3.2-0.1,8.1,5.7,9.5,9.8c3.2,9.5,4.6,19.5,7,30.7
		c-2.8,10.2-5.2,20.9-8.9,31.3c-1.1,3.2-5.5,7.2-8.5,7.3c-2.7,0.1-6.7-4-8.3-7.2C512.3,72.8,512.6,51.6,521.6,30.7z M626.5,131.3
		c-36,18.9-72.4,37.1-108.7,55.5c-1.9,1-4.3,1-7.8,1.8c3-14.6,5.5-28,8.7-41.3c0.4-1.7,4.3-3,6.8-3.6c1.8-0.4,4,0.7,5.9,1.3
		c15.5,5,18.8,2,16.2-15.7c3.9,0.5,7.8,0.1,11,1.5c18.8,8.1,37.1,3.1,54.5-3.4c7.6-2.9,13.5-10.3,21.3-16.6c0.9,0.8,3.3,2.6,7.2,5.8
		C636.3,121.8,632.3,128.2,626.5,131.3z M645.1,104.3c-1.5,0.3-3,0.6-4.5,0.9c-9.7-13.9-3.6-30.9-8.5-46.1
		c17.4,0.7,28.6,18.6,23.6,37.9c-3.3-8.8-6.1-16.3-8.9-23.8c-1.6,0.3-3.1,0.7-4.7,1C643.2,84.2,644.1,94.3,645.1,104.3z M761.6,97.3
		c5.5-10.8,13.1-19.5,23.9-24.9c6-3,9.6-1.3,10.5,5c2.2,16.1-18.7,46.7-33.8,49.3c-1.5,0.3-3.1,0.2-5.1,0.3
		C753.2,115.4,757,106.2,761.6,97.3z M810.3,164.2c4.2,7.8,1.5,12.2-7.2,12c-14.8-0.2-38.5-17.9-43.9-32.7c-0.3-0.8-0.5-1.6-0.6-2.3
		c-0.4-2.7,0.5-4.8,3.2-6.2c1.6-0.8,3.8-1.5,6.6-1.9c2.2,0.7,6.4,1.9,10.6,3.5C792.6,142.1,803.2,151.1,810.3,164.2z M829,117.3
		c-0.9,3.5-2.7,7.8-5.4,9.6c-12.9,8.8-26.4,14.8-41.2,4c-1.3-0.9-2.8-1.5-4.8-2.5c10.1-17.6,29.5-24.3,46.2-16.5
		C826,113,829.3,116,829,117.3z"/>
	<ellipse transform="matrix(0.9732 -0.2298 0.2298 0.9732 4.7247 104.8265)" class="st1" cx="452.5" cy="32.1" rx="5.2" ry="5.2"/>
</g>
</svg>
