<?xml version="1.0" encoding="utf-8"?>
<!-- Generator: Adobe Illustrator 26.0.1, SVG Export Plug-In . SVG Version: 6.00 Build 0)  -->
<svg version="1.1" id="Layer_1" xmlns="http://www.w3.org/2000/svg" xmlns:xlink="http://www.w3.org/1999/xlink" x="0px" y="0px"
	 viewBox="0 0 836.6 322.7" style="enable-background:new 0 0 836.6 322.7;" xml:space="preserve">
<style type="text/css">
	.st0{fill:#00A19B;}
	.st1{fill:#008080;}
	.st2{opacity:0.5;fill:#252525;}
	.st3{opacity:0.5;fill:#00A19B;}
	.st4{opacity:0.1;fill:#252525;}
	.st5{opacity:0.1;fill:#00A19B;}
	.st6{fill:#252525;}
	.st7{fill:#EDFFFE;}
	.st8{fill:#F9F9F9;}
	.st9{opacity:0.5;}
	.st10{opacity:0.5;clip-path:url(#SVGID_00000026866412206793581490000016163768684083841448_);}
	.st11{opacity:0.5;clip-path:url(#SVGID_00000079466844931549747490000004922112414673461150_);}
	.st12{opacity:0.5;clip-path:url(#SVGID_00000176743336584221750540000017375680391264987273_);}
	.st13{opacity:0.5;clip-path:url(#SVGID_00000131350565160814668210000011734824640964901523_);}
	.st14{opacity:0.5;clip-path:url(#SVGID_00000110453925238843901270000002293792850339471543_);}
	.st15{opacity:0.5;clip-path:url(#SVGID_00000146491012657674230060000011981963652707283381_);}
	.st16{clip-path:url(#SVGID_00000047023199695424501180000003928803411393570962_);}
	.st17{opacity:0.5;clip-path:url(#SVGID_00000091733946332101573470000008365360849461593009_);}
	.st18{opacity:0.5;clip-path:url(#SVGID_00000059308943150418736000000002866878502143223201_);}
	.st19{fill:#ED1B24;}
	.st20{fill:#BCD33A;}
	.st21{fill:#FBA419;}
	.st22{fill:#D5ADD1;}
	.st23{fill:#00BBF4;}
	.st24{fill:#FEF200;}
	.st25{opacity:0.26;}
</style>
<g>
	<path class="st1" d="M69.6,315c10.9-6.8,20.4-7.9,30.7,2.4c6.4,6.5,13.3,0.7,16.1-5.7c4.7-10.7,11.7-16.2,23.4-15.8
		c1.9,0.1,4-1.3,5.9-2.2c13.3-6.5,12.9-7.1,2.8-17.9c-6.1-6.6-10.2-15.2-15.5-22.7c-7.5-10.6-14.7-21.5-23.3-31.2
		c-4-4.4-5-7.4-3.4-12.8c10.1-33.3,34.1-54.3,63.9-68.6c14-6.7,30.3-10,45.9-12.2c21.8-3,41.9,4.9,60.9,14.8
		c27.9,14.5,55.5,29.6,83.3,44.5c0.3,0.2,0.7,0.3,1,0.3c33.3,4.7,45.7,30.8,56.8,57.3c4.1,9.9,5.9,21,6.9,31.8
		c0.8,8.8-7.8,18.3-14.4,18.7c-8.7,0.6-17.4-6.8-19.6-16.5c-1.9-8.5,1.6-13.4,12.2-16.7c2.5,3.2,5.1,6.5,7.7,9.8
		c1.3-0.5,2.6-1,3.9-1.5c-1.2-4.4-1.2-11.3-3.9-12.7c-5-2.6-12.6-4.1-17.5-2.1c-9.6,4-11.4,13.4-10.6,23.4c1,12.2,7.9,20,18.5,23.7
		c9,3.1,18.3,1.7,25.3-6.3c11-12.6,8.9-26.8,5-41.3c-0.4-1.5-1.1-3-2.6-7.3c8.3,4.5,14.2,8.2,20.4,10.8
		c14.6,6.2,29.4,11.9,44.2,17.7c7.8,3.1,14.6,1.1,18-6.4c7.8-17.7,15-35.7,22-53.7c1.7-4.5,1.7-9.7,2.5-14.7
		c15.7,6.4,18.7,13.1,13.4,28c-7.2,20.2-4.6,38.8,8.4,56.2c5.1,6.9,8.8,15.2,11.9,23.3c2.6,6.9,6.3,6.6,10,2.4
		c22.8-26.2,21.5-67,2.6-88.2c-2.2-2.5-5.9-3.7-8.8-5.6c-7.1-4.7-14.2-9.4-21.3-14.1c0.5-1.6,1.1-3.2,1.6-4.8
		c9.2,0.5,18.7-0.4,27.4,1.8c19.9,5,39.3,11.5,59,17.4c8.6,2.6,12.7,7.1,13.5,17.3c0.6,8.8,6,17.6,10.3,25.9
		c3.8,7.1,9.6,13.2,13.5,20.3c3.6,6.5,7.1,6.1,11.4,1.4c2.6-2.9,4.5-6.2,7-9.2c1.5-1.9,3.4-4.8,5.1-4.9c13.2-0.5,15.6-8.3,14.7-19.5
		c-0.2-2.3,2.6-4.9,4.4-7.1c2.7-3.2,6.4-5.9,8.3-9.4c2.7-5,1.4-8.3-5.1-9.8c-8.5-1.9-16.8-4.6-25-7.6c-12.5-4.6-24.7-9.3-37.6-1.3
		c-1.6,1-4.3,1.5-6,0.9c-18.5-6.5-36.9-13.3-55.7-20.1c17.2-8.5,34.3-16.6,51.1-25.3c14.5-7.5,28.4-15.9,42.8-23.6
		c36.6-19.7,75.4-26.3,116.1-17.8c3.5,0.7,6.8,1.5,10.2,2.4c1.7-3,4.5-5.3,7.5-7.2c-32.8-9.8-66.7-8-103.3-1.2
		c21.4-19.4,31.4-40.1,13.1-63.6c-9.1-11.6-22.2-19.2-39.9-18.2c1.1,4.2,1.9,7.1,2.5,10.1c2,10,5.8,20,5.5,29.9
		c-0.5,13.8,1.3,25.3,15.8,32.5c-17.4,23.1-43.6,29.6-67.6,45.8c0-24,2.7-44.8-0.6-64.6c-6.2-36.8-33.6-74-98.7-72.9
		c-27.9,0.5-43.1,3.6-45.3,13.1c11.7,0,23.5-1.4,34.8,0.3c17,2.6,33.7,7.6,39.8,26.9c4,12.9-1,24.6-6.6,35.6
		c-7.9,15.5-12.4,31.5-11.8,49c0.3,8.7,3.4,12.6,12.2,11.1c2.8-0.5,5.7-0.4,8.3-1.3c11.5-4,23-8.3,33.5-12.2
		c6.5,7.5,12.8,14.7,20.2,23.4c-10.5,4.7-20.8,9.7-31.5,14c-20,8.1-40.7,13-62.2,6.9c-3.8-1.1-8.6-6.3-9.2-10.2
		c-3.5-22.3-10.3-43.3-21.7-62.8c-8.4-14.4-17-28.6-24.5-43.5c-8.7-17.3,0.9-41.5,16.9-49.3c14.4-7,29.2-7.6,44.3-9.2
		c3-0.3,5.9-2.3,8.9-3.5c-2.8-2.1-5.4-5.7-8.4-6c-10.2-1.1-20.5-1.5-30.8-1.4c-27,0-52.4,6-73,24.3c-16,14.2-30.7,30-46.5,45.5
		c-7.7-9.2-16.6-19.6-25-30.4c-2.1-2.7-4.4-6.7-3.8-9.6c1-4.8,3.2-10.6,6.8-13.2c2.2-1.5,9.8,1.1,12,4c2.4,3.3,1.3,9.1,1.7,13.9
		c-1.1,0.1-2.3,0.2-3.4,0.3c-2.7-3.2-5-6.8-8.2-9.3c-0.9-0.7-4.4,2.1-6.7,3.2c3.9,5.1,6.9,12,12,14.6c3,1.6,10.8-2.3,14.2-5.9
		c6.6-7,2-20.8-7.9-27.5c-9.6-6.5-21.8-4.4-26.8,4.6c-6,10.5-3.6,25.6,5.4,35.4c5.8,6.2,11.8,12.3,17.1,18.9
		c2.3,2.8,3.1,6.9,5.5,12.4c-7.7-2.8-12.5-5.3-17.5-6.1c-2.3-0.4-7.3,2.8-7.2,4.2c0.4,13.7-3,28.4,6.4,40.2
		c15.5,19.7,8.3,43.4,14.9,64.6c-1,0.9-1.9,1.9-2.9,2.8c-22.2-10.5-44.5-20.9-66.8-31.4c0.4-1,0.8-2.1,1.2-3.1
		c7.6-2.5,15.4-4.4,22.7-7.5c16.8-7.1,24.2-24.2,17.9-40c-4.7-11.8-18.8-18.4-31.8-14.7c-11.1,3.1-17.9,13.9-16.2,25.4
		c1.3,8.1,8.5,12.2,18.8,11c6-0.7,9.2-3,6.7-10c-1.9,0.3-3.6,0.9-5.3,0.9c-3.2-0.2-7.6,0.5-9.3-1.3c-1.7-1.8-1.6-6.5-0.6-9.3
		c3.7-10.3,16.5-12.6,24.2-4.8c9.6,9.7,7.9,25.4-4.4,32.9c-20.5,12.5-41.1,9.6-62.1-1.5c1.8-2.5,3-4.4,4.5-6.3
		c10.3-12.6,14-26.5,9.7-42.6c-5.1-19.3-21.4-34.1-39.5-34.8c-20.4-0.7-39,12.5-45.2,32.1c-2,6.4-2.2,12.5,5.7,14.6
		c16.4,4.2,32.4,6.6,47.8-4.8c5.6-4.1,13.9-4.7,21-6.9c0.5,8.1,1.1,16.2,1.6,24.4c0,0.7-0.4,1.4-0.7,2c-6,14.1-12.9,16.7-27.8,12.3
		c-11.2-3.3-22.6-5.8-34.2-7.4c-73-10.2-129.4,18.6-173.1,75.4c-1.9,2.5-3.7,5-5.5,7.5c-2.6,0.6-5.1,1.5-7.6,2.5
		c-13.9,5.6-25.9,16.3-28.5,27.4C6,252.3,20.8,283.4,41.2,289c2.9,0.8,8.6-2.1,10.4-4.9c3.6-5.8,6.4-11.6,8.1-17.6
		c-0.6,4.1-0.8,8.5-0.7,13c0.3,9.7-2.8,19.5-4.9,29.1c-1.8,8.3,0.1,10.7,8.4,8.8C65,316.8,67.5,316.3,69.6,315z M578.2,247.9
		c-1.5-6.4-3.8-12.6-6-19.7c17.6,13.2,22,51.8,5.2,69.2c-25.7-34.6-29.8-50.6-14.9-69.4c4.4,14.1,8.1,25.9,12,38.5
		C583.6,260.6,579.6,253.9,578.2,247.9z M716.1,234c-15.1,3.1-9.6,13.9-9.2,24c-5.6,0.3-11.1,0.6-17.1,0.9c-1.1,5.2-2,9.4-3.5,16.3
		c-11.9-14.2-25.5-23.9-24.6-43.2c7.6,3,14.3,5.7,21.1,8.5c0.8-1.4,1.7-2.8,2.5-4.3c-5.5-4.2-11.1-8.5-16.6-12.7
		C675.8,214.9,685.3,216.9,716.1,234z M712.4,55.8c17.5,1.3,27.1,16.4,21.9,36.6c-3.3-9-6.1-16.6-9-24.3c-1.7,0.4-3.5,0.8-5.2,1.2
		c1.1,10.6,2.3,21.3,3.5,32.4C714.3,99,709.1,75.7,712.4,55.8z M581.6,148c-6.8,2.5-10-1.5-8.7-7.4c2.6-12.3,4.4-25.4,10.1-36.4
		c10.6-20.2,14.2-39.5,1.7-60.2c15.1,7,26.5,17.2,30.3,33.1c3.2,13.3,4,27.1,5.7,40.7c1,7.9-2.3,14.3-9.2,17.7
		C601.9,140.3,591.8,144.2,581.6,148z M627.7,135.2c-0.2-14.5,1.2-29.2-1-43.4c-3.6-23.6-6.9-28.3-24.2-51.4
		c37.9,22.1,51.5,55.1,40,115.6C633.2,151.5,627.8,145.4,627.7,135.2z M525.7,173.9c8.8,51.9-23.5,93.5-23.5,93.5
		c-55.8-6-88.1-53.6-88.1-53.6s21.5-30.2,45.5-46.1C483.5,151.7,525.7,173.9,525.7,173.9z M498.4,108.3
		c7.8,12.5,13.7,26.2,20.3,39.5c1.6,3.3,2.2,7.1,3,9.9c-17.6-1.3-33.7-2.2-49.7-3.9c-3.1-0.3-7.3-3.1-8.6-5.9
		c-11.5-25.3-17.7-51.5-10.6-79.2c4.6-17.8,15.4-31.4,31.7-41.5C468.9,58.1,482.6,83.1,498.4,108.3z M394.8,150.6
		c0.3-10.9-1.3-20.5-9.1-29.4c-7.4-8.4-9.8-19.3-7.6-33.3c5.4,2.9,10.8,4.2,13.7,7.7c8.3,9.7,15.5,20.3,23.4,30.4c1.5,1.9,4,3,6,4.4
		c1-3,3.6-6.8,2.6-8.8c-4.5-8.3-10.3-15.9-15-24.2c-1.8-3.1-3.6-8.3-2.2-10.8c15.3-27.8,36.5-49.8,65-64.4
		c-21.8,20.2-33,45.4-30.8,74.6c1.3,16.6,7.2,33,12,49.2c2.5,8.6,2.2,13-6.6,18.6c-12,7.7-21.7,19-32.2,28.9
		c-2.5,2.3-4.4,5.2-8.3,9.8C398.6,184.6,394.4,168,394.8,150.6z M230.8,93.1c-7.5-1.2-10.7-4-7-12.1c7.4-16,32.9-28.4,45.7-14.5
		c-13.2,3.2-29.4-1-37.1,17.8c13.2-3.5,24.8-6.5,36.4-9.5c0.3,1.1,0.7,2.2,1,3.3C259.9,91.1,246.8,95.7,230.8,93.1z M42.9,278.3
		c-24.3-13.4-30.1-33.4-14.7-57.7c-0.1,9.9-1,17.5,0,24.8c0.9,6.7,0.5,15.4,11.7,16.9c-0.8-12.9-1.5-25.2-2.2-37.5
		C54.1,244.7,58.4,261.4,42.9,278.3z M61,247.4C61,247.4,61,247.4,61,247.4c-0.8-5.3-2.8-10.8-5.9-16.2c-1.7-3.1-2.6-6.7-3.7-10.1
		c0-0.1,0-0.1-0.1-0.1c-0.1-0.5-0.3-0.9-0.5-1.3c-0.7-1.9-1-3.5-1-4.9c0-1.2,0.2-2.2,0.6-3c0.2-0.3,0.4-0.7,0.6-1c0,0,0,0,0,0
		c2.3-3.7,4.7-7.2,7.3-10.7c16.5-22.4,38.4-40.6,63.8-55.9c13.7-8.3,30.5-11.6,46.3-15.3c-12,8.8-24.7,16.9-35.9,26.5
		c-16.9,14.5-30,31.8-36.1,54c-1.3,5-5.6,9.9-9.9,13.2c-12.9,10.2-21.6,22.1-25.4,36.6C61.6,255.3,61.6,251.4,61,247.4z M94.6,302.3
		c-7.2-9.1-12.2-8.5-19.2-1c-1.7,1.9-4.7,2.7-7.3,4.1c-6.3-36,2.1-62,25-73.7c0,13.4,0,25.9,0,38.3c0,2.5-0.5,5.2,0.3,7.4
		c0.9,2.5,3,4.6,4.6,6.9c1.4-2.4,4-4.8,4.1-7.2c0.2-8.1-0.7-16.2-1-24.4c-0.2-7.3,0-14.5,0-21.8c1.3-0.5,2.6-1,3.9-1.5
		c9.5,6.2,14.4,16,19.6,25.9c5.2,9.9,11,19.6,17.9,31.8c-6.8,0-12.5,1-17.7-0.3c-6.2-1.5-8.7,0.5-9.8,5.9c-0.3,1.4-0.3,2.9-0.7,4.2
		C109.7,311.8,103.8,313.9,94.6,302.3z"/>
	<path class="st1" d="M484.8,209.8c0,8.5,6.9,15.5,15.5,15.5c8.5,0,15.5-6.9,15.5-15.5c0-8.5-6.9-15.5-15.5-15.5
		C491.7,194.4,484.8,201.3,484.8,209.8z M509.3,209.8c0,5-4.1,9.1-9.1,9.1c-5,0-9.1-4.1-9.1-9.1c0-5,4.1-9.1,9.1-9.1
		C505.2,200.8,509.3,204.9,509.3,209.8z"/>
</g>
</svg>
