<?xml version="1.0" encoding="utf-8"?>
<!-- Generator: Adobe Illustrator 26.0.1, SVG Export Plug-In . SVG Version: 6.00 Build 0)  -->
<svg version="1.1" id="Layer_1" xmlns="http://www.w3.org/2000/svg" xmlns:xlink="http://www.w3.org/1999/xlink" x="0px" y="0px"
	 viewBox="0 0 836.6 322.7" style="enable-background:new 0 0 836.6 322.7;" xml:space="preserve">
<style type="text/css">
	.st0{fill:#00A19B;}
	.st1{fill:#008080;}
	.st2{opacity:0.5;fill:#252525;}
	.st3{opacity:0.5;fill:#00A19B;}
	.st4{opacity:0.1;fill:#252525;}
	.st5{opacity:0.1;fill:#00A19B;}
	.st6{fill:#252525;}
	.st7{fill:#EDFFFE;}
	.st8{fill:#F9F9F9;}
	.st9{opacity:0.5;}
	.st10{opacity:0.5;clip-path:url(#SVGID_00000149360805986462639660000009827555832048903357_);}
	.st11{opacity:0.5;clip-path:url(#SVGID_00000127758930526291955750000002222070635973539006_);}
	.st12{opacity:0.5;clip-path:url(#SVGID_00000065780866999038806680000013537020839904949160_);}
	.st13{opacity:0.5;clip-path:url(#SVGID_00000063600810156196736970000011570808045082594442_);}
	.st14{opacity:0.5;clip-path:url(#SVGID_00000142143974110547114140000013973336099432711052_);}
	.st15{opacity:0.5;clip-path:url(#SVGID_00000052793981888072040420000004866162046399748242_);}
</style>
<path class="st7" d="M397.3,56.3c-3.5,11.2-2.6,21.7,2.6,31.9c2.1,4.2,5.5,7.7,8.3,11.4c-14.1,1.8-27.3,3.7-40.5,5.2
	c-9.4,1.1-16.4-3.3-20.8-11.1c-6-10.5-4.4-14.3,6.8-18.6c14.1-5.4,22.9-15.9,28.1-29.4c2.4-6.2,2.5-12.5-3.3-17.4
	c-5.5-4.6-11.3-6.4-18.5-3.3c-13.6,5.9-22.4,16.6-25.8,30.1c-2.1,8.4,0,18.1,1.7,27c1.5,7.6,4.9,14.8,8.1,22c1.2,2.8,3.8,5.1,7,9
	c-8.8,3.5-16.5,5.7-23.2,9.6c-3.2,1.9-6.7,7.8-5.9,10.7c1,3.8,5.9,7.9,9.8,9c2.6,0.7,9.3-3.6,9.5-6c1.1-14.6,11.9-18.1,22.7-21.8
	c14.3-4.8,28.9-7.5,41.8-4.5c-11.7,9.5-24.2,18.6-35.5,29.1c-6.8,6.3-7.5,16.1-0.5,22.5c8.9,8.1,19.6,14.3,29.5,21.2
	c1.5,1.1,3.3,1.8,4.9,2.6c-11.2,0.3-22.4,0.4-31.8-3.7c-21.5-9.5-42.6-20.3-63-32.1c-16-9.2-15.4-10.2-6.3-27.1
	c1.1-2.1,1.9-4.3,3-6.4c12.1-21.2-11.6-55.2-31.8-56.8c-19-1.5-44.4,16-46.4,34.8c-0.3,2.7,3,7.3,5.8,8.5c16.3,7,32.3,7.6,47.1-4.3
	c2.8-2.3,6.4-3.5,9.6-5.3c7.1-4,11.5-0.3,10,6.1c-2.5,10.7-7.2,21-11.8,31.1c-0.8,1.8-5.9,3-8.5,2.4c-10.6-2.4-20.9-6.2-31.6-8.3
	c-48.2-9.6-92.2,0.5-131,30.7c-18.1,14.1-33.1,29.7-44.6,47.1c0,0,0,0,0-0.1c-0.2,0.2-0.4,0.4-0.6,0.6c-0.1-0.1-0.1-0.1-0.1-0.1
	c-1.4-1.3-2.7-2.6-4.2-3.9c-5.5-4.8-10.8-3.7-11.5,3c-0.8,7.5-4.6,9.1-11.5,8.2c-14.5-1.9-26.8,2.8-38,10.8
	c-4.9,3.5-8.1,7.9-6.3,14.3c1.7,6.3,7.4,7.5,12.8,8.1c4.8,0.6,9.6,0.8,14.8,1.2c-1.4,5.8-3,10.8-3.9,16c-0.5,3.3-0.6,7,0.2,10.3
	c2,8.1,9.7,11.3,16.5,6.9c3.4-2.2,6.7-4.7,9.5-7.5c2.6-2.7,4.5-6.1,7.1-9.7c2.9,3.9,5.2,7.7,8.2,10.9c2.6,2.7,5.8,5.1,9.1,7
	c4.3,2.5,7.8,1.7,10.4-1.9c0,1.4,0.1,2.8,0.1,4.3c0.3,6.6-2.4,13.7-5,20c-3.1,7.3-0.3,9.7,6.1,9c5.1-0.5,11.1-1.6,14.9-4.6
	c6.4-5.1,10.8-4.2,16.5,0.5c11.8,9.6,15.7,9,22.5-4.6c3.5-6.9,7.9-9.3,15.2-10.2c6-0.8,11.9-3.9,17.3-7c1.2-0.7,0.9-6.5-0.5-8.8
	c-6.6-11-13.6-22-21-32.5c-5.3-7.5-10.8-15.3-17.8-21.2c-4.7-4-5.8-7.2-4.4-12.6c5.5-20.3,18.9-35.3,34.2-48.4
	c21.4-18.3,46.2-28.9,74.9-28.9c21,0,38.4,9.5,56.1,19.2c23.7,12.9,47.1,26.2,71.4,37.9c10.1,4.9,22,6.2,33,10
	c-12.4,5-25,5.3-37.8,3.4c-4.6-0.7-9.2-1.8-13.9-1.9c-16.2-0.4-21.3,4.2-23.9,20.3c-0.5,3.4-2.3,6.8-4.2,9.7
	c-9.2,13.7-5.3,25.3,11,28c11.9,2,24.4,1.8,36.6,1.2c9.6-0.5,13.6-8,13.7-16.8c0.2-9-5.9-12.5-14.1-13.8c-8.6-1.2-17.1-2.8-25.5-4.8
	c-3.2-0.8-6-3.3-9-5c2.7-3.8,5-7.9,8.2-11.1c1.2-1.2,4.5-0.6,6.8-0.4c17.1,1.2,34.3,2.6,52.1,3.9c-3.3,15.3-0.4,30.8,8.5,45.3
	c9.9,16.2,23.2,27.1,43,26.1c15.2-0.8,30.7-1.5,45.3-5.3c14.5-3.8,26.5-14,25.2-32.8c-0.2-2.5,0.5-5.1,0.9-8.1
	c10.4,3.6,20.3,6.4,29.6,10.5c8.7,3.9,13.9,3.2,15.7-7.2c0.3-2.1,2-4,3-5.9c12.5,4.6,26.6,25.1,25.3,36
	c-1.4,11.9-5.3,16.1-16.3,17.4c0.3,8.5,11.3,14.2,20.5,12.5v-23.4c1.2-0.4,2.4-0.8,3.6-1.1c8.6,5.8,16.8,12.3,26,17.2
	c4.3,2.3,10.8,3.2,15.2,1.7c2.3-0.8,4.1-9.2,2.6-12.6c-1.4-3-8.1-6.1-11.6-5.3c-14.3,3.2-25.4-0.7-31.9-15
	c-6.5-14.4-16.7-25.3-27.5-36.3c-5.3-5.4-6-15.3-9.6-25.8c11.3,2.1,19.5,2.8,27.2,5.2c14.6,4.6,29,9.8,43.3,15.4
	c2.8,1.1,5.8,5.5,6,8.5c0.8,11.9,5.7,21.7,12.5,31.1c4.3,5.9,8.2,12,11.9,18.3c2.5,4.2,5,6.6,9.1,2.2c3.1-3.3,5.8-7.1,8.9-10.5
	c1.9-2,4.1-5.2,6.3-5.2c9.7-0.1,11.8-6.8,12.2-14c0.3-6.2,1.5-10.3,7.1-14.1c3.5-2.3,4.5-8.2,6.3-11.6
	c-15.5-4.9-29.4-10.3-43.8-13.4c-6.8-1.5-14.6,1.3-22,2.1c-1.9,0.2-3.9,1.1-5.6,0.5c-16-5.6-32-11.3-47.9-17.1
	c-0.9-0.3-1.6-1.1-2.2-1.5c34.9-18.5,68-40.1,104-54.2c31.7-12.4,62.9-15.8,92.7-9.5c0.6,0.4,1.1,0.8,1.6,1.3
	c0.4,0.4,0.8,0.8,1.1,1.2c2.1,2.4,4,5,6.3,7c0.1,0.1,0.1,0.1,0.2,0.2c3.8,3.2,8.4,3.8,13.3,2.3c0,0,6.2-2.4,11.6-6.5
	c-0.2-0.2-0.4-0.4-0.6-0.6c-2.1-3-4.6-5.4-7.4-7.2c6.4-0.4,12-3.7,17-8.6c1.2-1.2,2-4.3,1.3-5.6c-4.9-9.5-21.9-13.4-31.5-8.7
	c-5.2,2.5-9.1,9.6-10.4,17c-0.7,0-1.4,0.2-2,0.3c-24.7-4.9-51.3-4-79.7,2.5c2.4-4.5,4.8-7.3,7.5-9.9c10.7-10,13.9-27.1,7.6-41.6
	c-5.2-12-26.4-26.4-37.4-25.3c-4.9,0.5-6.9,1.9-4.9,7.8c3.1,9.2,6.1,18.9,6.6,28.5c0.6,12.8,1.1,24.7,15.7,33.2
	c-7.3,6.6-12.6,13.2-19.4,17.3c-16.2,9.9-32.6,19.6-49.7,27.7c-20.4,9.7-41.4,18.1-62.5,26.2c-12,4.6-16.8,0.9-19.1-12.4
	c13.6-4.2,25.4-10.8,26.1-27.2c1.2-25.8-13.4-36.6-39.1-38.2c18.3-14.1,35.8-26.8,54.7-36.9c8.5-4.5,19.8-5,29.8-5.1
	c8.2-0.1,15.5,10.4,15.9,19.2c0.5,9.2-7.1,7.7-12.3,9.8c-15,6.1-26.4,15.7-29.7,32.5c-2.1,10.7,4.7,18.5,15.4,18.4
	c15.7-0.2,38.5-24.1,36-39.7c-2.5-15.9,1.7-34.3-17.5-47.6c8.9-2.6,14.7-4.8,20.6-5.8c6.1-1,9.7-4.2,8.7-9.9
	c-0.6-3.5-4.2-9.2-6.4-9.2c-4.6,0-12.6,2.7-13,5.2c-2.1,12.5-12.1,12.7-20.5,15.7c-13.7,4.9-27.6,9.3-41.1,14.6
	c-6.7,2.7-12.6,7-19.9,11.2c0-3.2-0.5-5.6,0.1-7.6c4.1-14.1,1.5-27.7-2.4-41.3c-1.8-6.4-4.2-7.2-9.9-3.7
	c-10.7,6.3-21.8,11.9-33,17.9c-7.4-26.1-12.3-31-37.2-35.8c-9.1-1.7-18.6-1.6-27.8-2.7C425,7.6,403.8,35.2,397.3,56.3z M344.4,68
	c-0.7-1.4-3-4-3.1-6.6c-0.3-8.9,12-25.9,20.9-28.2c3.4-0.9,8.1-0.4,10.7,1.5c1.6,1.2,1.1,6.7,0,9.6C367.7,57.9,356,68.3,344.4,68z
	 M237.4,94.3c8.5-23.3,25.3-31.3,48.8-21c-8.8,1.3-15.6,1.6-21.9,3.4c-5.8,1.7-13.5,2.6-13.3,12.7c11.3-2.5,22-4.8,32.8-7.1
	C268.6,99.4,254.5,105.6,237.4,94.3z M12.3,237.6c-7.1-1.3-8.4-5.2-4.1-10.5c7.5-9.1,30.4-15.1,42.4-11c0.7,0.2,1.2,0.5,1.7,0.8
	c1.9,1.1,2.8,2.7,2.3,5.1c-0.2,1.4-0.9,3.1-2.1,5.1c-1.5,1-4.4,3.1-7.5,4.8C35.2,237.7,24.2,239.8,12.3,237.6z M38.9,272.4
	c-1.7,0.8-5.3,1.4-6,0.6c-1.8-2.3-3.6-5.6-3.4-8.2c0.8-12.5,3.6-24,17.9-27.8c1.2-0.3,2.3-1,3.9-1.7
	C57.4,250.3,52.2,265.8,38.9,272.4z M74.6,272.3c-11.4-6.7-20.4-35.2-14.5-45.9c0.6-1.1,1.4-2,2.4-3.4c9.2,3.4,13.1,10.4,16.5,17.7
	c4.1,8.9,5.9,18,4,27.4C81.9,273.5,79,274.9,74.6,272.3z M141.8,241.3c6,9.5,11.2,19.6,16.5,29.7c1.4,2.7,1.7,6.1,2.5,9.1
	c-3.8,0.8-8.3,3.4-11.2,2.2c-7.8-3.4-10.3-1.4-12.3,6.6c-3.7,15.3-8,16.4-19.9,6c-5.8-5-11.1-5.5-16.8-0.1c-1.9,1.8-4.1,3.1-7.4,5.7
	c-0.4-41.6-1.6-58.1,22.8-70.7c0,6.5-0.2,11.8,0,17.2c0.3,8.3,0.5,16.7,1.5,24.9c0.3,2.1,3.5,3.7,5.4,5.6c0.5-2.3,1.5-4.6,1.6-6.9
	c0.1-14.4,0.1-28.9,0.1-43.3c1.2-0.5,2.5-1.1,3.7-1.6C132.8,230.7,138.1,235.5,141.8,241.3z M160.6,152.2
	c-18.7,14.6-33.8,32.1-40,55.9c-0.9,3.4-2.7,7.6-5.4,9.3c-14.6,8.9-23,20.5-27.1,34.3c-1-4-2.5-8-4.1-12c-1.9-4.8-5-9.3-7.7-14.1
	c0.5-0.1,1.5,0,2.1-0.4c2.5-1.6,6-2.9,6.9-5.3c0.7-2-1.1-6-3-7.7c-1.7-1.5-2.7-2.9-3-4.4c0.2-0.2,0.4-0.4,0.6-0.6
	c-0.2-0.1-0.4-0.2-0.5-0.3c2.9-4.5,6-8.8,9.5-13c20.7-25.2,44.9-45.7,76.2-56.6c8.7-3,17.9-4.4,29.4-7.2
	C181.5,138.5,170.4,144.6,160.6,152.2z M368.6,239.3c0.6,0.2,0.9,8.2-0.6,9c-4.7,2.6-10.4,3.4-13.6,4.4c-9.7-1.2-17.2-1.4-24.1-3.3
	c-3.4-0.9-8.6-6.3-8.1-7.7c1.6-4,6-10.3,8.8-10C343.6,233,356.1,236.2,368.6,239.3z M703,232.6c-17.8,2-4.8,14.7-9.9,22.2
	c-11.2-2.8-18.1,1.6-18.4,15.3c-8-14.1-25.2-21.6-22.3-43.4c9.9,7.2,18.3,13.3,26.6,19.3c0.7-0.9,1.4-1.7,2.2-2.6
	c-3-11.3-13.8-15.9-21.8-22.9C664.3,214.5,686.9,220.2,703,232.6z M699.7,61.8c16.2,4.1,25.5,18.9,22,38.2
	c-2.9-8.1-4.6-14.2-7.2-19.9c-0.8-1.8-3.9-2.5-6-3.8c-0.6,2.4-2.1,4.9-1.7,7c1.4,7.9,3.4,15.7,5.4,24.5
	C699.1,105.3,700.7,102.1,699.7,61.8z M821.1,136.5c-5.6,4.2-11.5,4.9-16.3,2.5c-2-2.2-3.9-4.4-5.5-6.8c-0.4-0.6-0.7-1.2-0.8-1.8
	c2,1.3,4.1,2.5,6.2,3.8c1.9,1.1,3.7,2.3,5.8,3c1.3,0.4,2.8,0,4.3,0c-1-1.1-1.9-2.5-3.1-3.2c-3.6-2.3-7.4-4.3-10.8-6.9
	c0.7-0.2,1.5-0.2,2.5,0c0.2,0,0.5,0.1,0.7,0.1c0,0,0,0,0.1,0C810.6,128.5,816.5,131.1,821.1,136.5z M823.1,117
	c-2-5.4-6.2-4.3-9.6-3.9c-3.7,0.3-7.3,1.6-12.2,2.7c10.3-10.2,20.7-9.5,30,1c-6.6,9.4-15.3,9.1-26.8,3.3
	C810.5,119,816.7,118,823.1,117z M638.5,105.8c6.2,0.6,10.9,3.7,6.4,10.4c-5,7.7-10.5,15.4-17.1,21.6c-2.9,2.7-9.2,2.5-13.9,2.4
	c-1.6,0-3.2-3.6-4.1-4.6C609.2,125,629.4,104.9,638.5,105.8z M377.3,148.1c-0.7-1.2-1.5-2.4-2.2-3.5c6.5-5.8,12.1-13.8,19.8-16.9
	c13-5.2,27.2-7.6,41-10.5c2.7-0.6,6.6,1.1,9,2.9c6.9,5.1,16.2,10.3,12.7,20.4c-3.1,9-13.3,7.2-20.8,7.4
	C417,148.4,397.2,148.1,377.3,148.1z M419.3,178.9c-16.3-1.6-31.3-5.9-42.2-22.3c4-0.5,6.2-0.9,8.4-1c20.6-0.3,41.3-0.7,61.9-0.6
	c3.4,0,6.7,2.6,10.1,4c-1.8,3.6-2.8,8.1-5.6,10.7C442.9,178.4,431.3,180.1,419.3,178.9z M544.9,182.6c7.7,9.8,12.4,22.3,17.3,34.1
	c1.6,4,0.3,9.2,0.3,13.8c-0.9,0.4-1.8,0.8-2.7,1.3c-12.4-16.4-24.7-32.8-39.2-52C531,180.7,541.8,178.6,544.9,182.6z M514.5,188.5
	c13.2,14.3,25,29.9,37.3,45c-1.1,1-2.2,2-3.3,3c-15.2-3.4-28.6-9.1-36.4-24.4c-5.2-10.2-11.9-19.7-17.9-29.6c0.6-1,1.3-2,1.9-3
	C502.4,182.4,510.2,183.8,514.5,188.5z M465.8,223.7c1.3,0.3,2.7,0.6,4,0.9c1.9-8.3,3.8-16.7,5.7-25c0.7,0.1,1.4,0.2,2.1,0.3
	c0,4.5-0.3,9,0.1,13.5c0.2,1.9,1.8,3.8,2.8,5.6c1.6-1.7,4.5-3.4,4.6-5.2c0.5-7.9,0.2-16,0.2-25.4c17.5,18.8,28.6,39.2,26.5,64.6
	c-0.3,4.1-4.5,9.1-8.3,11.4C485.8,274.7,466,278,445.7,275c-22-3.3-42.4-29.7-39.8-51.7c0.8-6.8,4.3-15.2,9.4-19.1
	c15.4-11.8,32.3-21.8,50.5-33.7V223.7z M575.4,151.3c-1.5,9.7-8,15.3-16,17.1c-16.7,4-34.3,10.4-48.5-7.1c10,2,19.5,4.3,29,5.4
	c4.8,0.6,9.9-0.8,14.7-2.1c2-0.5,3.5-3.1,5.2-4.7c-2.4-1.2-4.7-3.3-7.1-3.3c-7.5-0.1-15.1,0.9-22.7,0.7c-3.3-0.1-6.4-2.2-9.6-3.5
	c0.2-0.9,0.3-1.7,0.5-2.6H575.4z M503,152c-9.4,7.2-5,12.8,3,18.2c-1,0.9-2.1,1.8-3.1,2.7c-3.9-2.3-11.3-5.2-11-6.9
	c0.9-5.6,4.5-10.7,7.1-16.1C500.3,150.6,501.7,151.3,503,152z M481.1,153.3c-1.4,1.2-2.7,2.3-4.1,3.5c-2.8-3.2-5.7-6.5-8.5-9.7
	c2-1.3,4-2.7,6-4.1C476.6,146.5,478.8,149.9,481.1,153.3z M547.1,122.3c11.1,1.2,24.1,1.6,26.6,18.4c-18.8,1.7-37.2,6.7-55.8,1
	c-0.1-0.9-0.3-1.9-0.4-2.8c10.1-1.8,20.1-3.5,30.1-5.7c2.9-0.6,5.4-2.8,8-4.3c-2.8-1.4-5.9-4.3-8.5-4c-9.4,1.1-18.6,3.2-28.2,3.9
	C526.3,118.4,537.5,121.2,547.1,122.3z M515.7,113.8c14.5-19.9,28.6-39.3,42.1-57.9C562.6,82.5,539.8,116.6,515.7,113.8z
	 M548.8,47.3c-1.5,19.1-40.9,65.2-60.6,69.1c3.6-5,6.8-8.7,9-12.9c6.2-11.3,12.4-22.7,17.7-34.4C520.4,57.2,535.2,47.2,548.8,47.3z
	 M463.5,19.9c10.2,1.5,20.4,3.4,30.2,6.2c11.5,3.3,16.8,10.4,16.6,22.1c-0.3,16.7-7.7,31-16,45.8c-2.4-5.6-4.1-9.4-5.8-13.3
	c-1.7,4.1-3.8,8-5.2,12.2c-1.3,3.9-2,8-5.3,12c-2.6-11.7-5.2-23.3-7.8-35c-1.6,0.2-3.2,0.5-4.8,0.7c-2.5,17.7,8.2,35.9,0.5,53.2
	c-16.5-10-33.3-19.1-48.9-29.9c-20.2-14-14.8-31.3-7-46.8C421.2,25.1,438.6,16.3,463.5,19.9z"/>
</svg>
