<?xml version="1.0" encoding="utf-8"?>
<!-- Generator: Adobe Illustrator 26.0.1, SVG Export Plug-In . SVG Version: 6.00 Build 0)  -->
<svg version="1.1" id="Layer_1" xmlns="http://www.w3.org/2000/svg" xmlns:xlink="http://www.w3.org/1999/xlink" x="0px" y="0px"
	 viewBox="0 0 836.6 446.7" style="enable-background:new 0 0 836.6 446.7;" xml:space="preserve">
<style type="text/css">
	.st0{fill:#00A19B;}
	.st1{fill:#008080;}
	.st2{opacity:0.5;fill:#252525;}
	.st3{opacity:0.5;fill:#00A19B;}
	.st4{opacity:0.1;fill:#252525;}
	.st5{opacity:0.1;fill:#00A19B;}
	.st6{fill:#252525;}
	.st7{fill:#EDFFFE;}
	.st8{fill:#F9F9F9;}
	.st9{opacity:0.5;}
	.st10{opacity:0.5;clip-path:url(#SVGID_00000149344488208935454960000006397495125945663919_);}
	.st11{opacity:0.5;clip-path:url(#SVGID_00000167363676154464866180000009434683855250636214_);}
	.st12{opacity:0.5;clip-path:url(#SVGID_00000150063905485361738030000012381335049459975602_);}
	.st13{opacity:0.5;clip-path:url(#SVGID_00000146478165503064565950000004265218840969822874_);}
	.st14{opacity:0.5;clip-path:url(#SVGID_00000061439862016741092830000005768588111813759407_);}
	.st15{opacity:0.5;clip-path:url(#SVGID_00000171700120770061455370000010081512739565053586_);}
</style>
<path class="st1" d="M476.8,186.9c6.6-7.1,10-6.5,14.2,1.9c8.6,17.3,3.5,35.8-12.7,41.8c2.7-5.9,5.9-11.7,7.8-17.9
	c0.7-2.5-1.5-5.9-2.4-8.8c-1.8,2.2-4.1,4.1-5.4,6.6c-2.5,4.6-4.5,9.4-6.6,14.2C465.6,210,466.8,197.5,476.8,186.9z M589.4,261.8
	c-1,0.2-1.9,0.2-3.1,0.3c-7.5,0.1-9.8-4.8-7.8-10.8c7.7-22.8,21.9-39.8,45.8-46.9c7.5-2.2,12.3,2,11.2,9
	C632.6,231.2,606.7,258.4,589.4,261.8z M647.8,287.4c-1.5,2.5-5.9,6-7,5.4c-4-2.1-8.7-5.2-10.3-9c-8.1-19.5-10.4-38.7,9-54.7
	C657.4,246.3,660.4,267.2,647.8,287.4z M653.1,203.9c14.5,2.5,25.6,10.7,34.2,21.7c5.8,7.4,9.9,16.3,13.4,25.1
	c2.3,5.7-0.9,10.4-7.7,10.2c-18-0.4-48.9-31.3-49.2-48.2C643.4,205.3,646.2,202.8,653.1,203.9z M577.3,104.6
	c4.7,12.1,9.2,22.6,12.7,33.4c0.9,3-0.3,8.7-2.6,10.2c-2.2,1.5-7.2-0.2-10.5-1.7c-11.5-5.4-22.8-11.2-34.2-16.9
	C552.4,122.6,563.5,114.7,577.3,104.6z M515.4,153.5c19.5-15,33.3-17.7,58.6,1.9c-8-1.3-13.8-2.3-19.6-3c-6.7-0.8-13.4-1.8-20.1-1.8
	c-3.2,0-6.5,2-9.7,3.2c3.2,1.8,6.3,4.5,9.8,5.1c7.5,1.4,15.3,1.4,23,2.5c2.8,0.4,5.5,2,8,4.1c-17.3,5.3-34.3,3.7-50.6-2.3
	C508.2,160.8,512.1,156,515.4,153.5z M151,76c1.1-14.2,2.3-28.4,3.3-42.7c0-0.8-1.5-1.7-3.9-4.5c-2.9,15.7-5.5,29.6-8.1,43.6
	c-0.8-0.1-1.7-0.1-2.5-0.2c-4.2-17.4-3.8-34.8,2.8-51.8c0.4-0.9,6.5-1.2,8.2,0.3c10.6,9.1,20.5,27.8,8.7,44.6
	c-2.6,3.7-4.6,7.9-6.8,11.9C152.1,76.8,151.6,76.4,151,76z M45,97.6c-3.3-8.6-0.2-13.7,9.9-13.5c4.1,2.2,10.5,5.2,16.5,8.8
	c13.3,8,23.9,18.7,28.7,33.8c1.2,3.9-0.2,8.6-0.4,12.9c-4.5-0.3-9.6,0.6-13.6-1C66.8,130.7,52.6,117.2,45,97.6z M46.8,161.8
	c-8.4-2.1-17-3.5-25-6.6c-3.6-1.4-7.5-6-8-9.6c-0.3-2.5,4.5-6.8,7.9-8.4c17.5-8.2,35.1-11.2,50.9,3.9c1.5,1.5,2,7,0.8,7.8
	C65.7,154.9,58.2,162.3,46.8,161.8z M100.7,163.5c-7.7,20.3-22.2,34.4-41.9,43.1c-8.2,3.6-12.9-0.3-12.5-12.4
	c2.5-11.5,11.3-22.2,21.6-31.3c5.7-5,12.8-8.8,19.8-11.8c3.6-1.5,9.5-1.2,12.4,0.9C102.2,153.5,102,160,100.7,163.5z M242.1,230.3
	c-9.2-6-17.4-11.4-25.5-16.8c-0.7,0.8-1.3,1.7-2,2.5c2,11.6,15.4,13.4,22.8,23.5c-18.1,3.9-29.5-8-42.7-11.6c2.9-4.3,6-7.4,7-11.1
	c1.1-4.1,0.3-8.7,0.3-13.9c9.6,2.7,17.7,3.2,18.3-10.4C230.7,203.2,243.8,211.5,242.1,230.3z M61.9,301.8
	c-7-10.5,2.5-23.4,11.9-29.3c5.1-3.1,6.9-1.7,8.5,4.2c3.1,11.2-1.9,19.6-9,28.6c-4.6-9.2,1.7-16.8,2.2-24.8c-6.9,1.3-8,3.7-11,24
	C63.4,303.3,62.5,302.7,61.9,301.8z M195.8,390.1c-16.9-3.6-26-20.4-18.4-34.1c4.1,15.7,4.1,15.7,11.1,19c-1-9.9-2-19-3-28.9
	C193.4,349.2,198.4,374.2,195.8,390.1z M333.4,232c-2.7-7-5-12.6-7.1-18.3c-2-5.3-4-10.7-5.9-16.1c-1.7,0.5-3.3,1-4.9,1.5
	c2.3,10.5,4.5,21.1,6.8,31.7c-14.7-9.1-17.1-46.3-3.6-61C339.9,193,345.7,214.8,333.4,232z M341.9,235.2
	c10.2-19.6,6.9-38.7-5.4-56.5c-3.6-5.2-7.4-10.2-11.1-15.3c0.7-0.8,1.4-1.7,2.1-2.5c4,0.9,7.9,2.2,11.9,2.6
	c23.3,2.5,46.7,5.3,70.1,6.9c12.8,0.9,13.5,0.7,12.8,13.8c-1,17.9-7.3,33.9-18.1,48c-2.5,3.2-7,5.2-10.9,7
	c-10.5,4.7-21.6,8.2-31.6,13.7c-6.4,3.6-10.4,2-14.1-2.6C344.1,246.1,337.6,243.6,341.9,235.2z M253.9,346.9
	c13.4,18.1,11.8,20.9-14.7,28.9C244.4,365.6,248.9,356.8,253.9,346.9z M259.8,387.2c-4.7,0.2-9.4,0-14.2,0c-0.4-1-0.9-1.9-1.3-2.9
	c7.8-4.1,15.6-8.3,23.5-12.5C272.9,384.7,271.6,386.8,259.8,387.2z M273.6,361.1c-5.4-4.1-9.4-13.4-9.4-20.5
	c0-5.3,7.3-10.5,11.4-15.8c1.1,0.6,2.1,1.1,3.2,1.7c1.5,5.1,2.5,10.5,4.8,15.3c2.3,4.8,5.8,9,10.3,15.8
	C286.4,359.2,277.2,363.9,273.6,361.1z M288.5,385.9c-8.1,1.5-9.9-5-9.6-10.9c0.7-11.3,11.4-9,17.5-9.8c9.8-1.3,2.7,9.1,6.5,12.4
	C302.5,388.5,293.8,384.9,288.5,385.9z M292.5,339.3c-0.6-1.1-1.3-2.2-1.9-3.4c-7.2-14.4-5.1-19.4,9.8-25.3
	c8.5,11.3,16.8,22.4,25.3,33.7C314.2,356.4,301.1,354.9,292.5,339.3z M321.2,382.3c-6.4,1.4-9.6-0.9-10.5-7.4
	c-1.9-14.2,1.5-18.1,17.7-19.6C333.4,375.3,332,379.9,321.2,382.3z M335.2,337.1c-6.2-4.8-12.5-9.8-17.6-15.6
	c-3.4-3.9-5-9.5-8.2-15.9c8.7-3.9,16.5-7.5,23.6-10.8c3.2,13.6,5.9,25,8.5,36.4c0.4,1.7,0.5,4.5-0.3,5.1
	C339.6,337.2,336.4,338,335.2,337.1z M356.5,369.3c-4.2,3-9.7,4.2-14.6,6.1c-1.2-5.8-3.6-11.6-3.1-17.2c0.5-5.3,4-10.4,6.1-15.6h3.5
	c4.4,5.6,9.4,10.9,12.7,17.2C362.2,361.8,359.2,367.5,356.5,369.3z M498.6,377.5c-2.2,6.7-6.1,3.9-9.8,3c-4-1-9.7-0.3-8.4-7.4
	c1-5.6,2-11.2,3.2-17.5C500.5,359.1,503.2,363.7,498.6,377.5z M528.3,379c-2.1,7.2-7.6,8.9-16.9,5.1c-5.7-2.3-5.9-7.8-0.5-18.6
	C527.5,368.9,530.6,371.3,528.3,379z M538.1,374.1c5.5,4,10.4,7.5,15.2,11C536.5,387.9,535.1,386.9,538.1,374.1z M545.3,352.9
	c0.9-0.2,1.7-0.5,2.6-0.8c4.4,8.2,8.9,16.5,13.3,24.7c-0.8,0.7-1.7,1.3-2.5,2c-5.8-4.1-11.6-8.1-17.6-12.4
	C542.6,361.6,544,357.3,545.3,352.9z M535,358.6c-5.7,9-12.1-0.1-19.7,0.2c4.3-9.4,8.1-17.6,12.2-26.4
	C539,339.3,541.7,348.1,535,358.6z M516.9,335.7c-8.2,19-9.7,19.5-28.9,11.3c5-10.9,10.1-21.8,15.4-33.1
	C518.7,320.5,521.5,325.1,516.9,335.7z M466.2,295.8c4.1,1.7,7.2,2.6,9.8,4.1c6.1,3.6,17.5,8.7,17,11.1c-2.2,9.9-7.7,19.2-12.8,28.2
	c-0.8,1.4-5.9,1.5-8.3,0.4c-2.4-1.1-5.4-4.2-5.5-6.5C465.9,321.4,466.2,309.5,466.2,295.8z M460.1,366.1c1.6-6.1,3-12.3,4.7-18.9
	c9.7,1.2,11,8.4,9.9,15.5c-0.7,4.4,0.7,12-8.2,11.4C461.2,373.6,458.6,371.8,460.1,366.1z M459.5,313.5
	c-2.2,38.9-9.3,69.9-27.6,97.6c-2.8,4.3-6,8.5-9.7,12.1c-11.1,11.1-25.5,12.5-38.9,4.4c-10.8-6.6-16.4-22.4-12.3-35.7
	c5-16.6,3.2-31.3-9-44.8c-15.4-17.1-23.6-36.5-15.4-60.1c7.9-22.9,27.1-37.9,52-39.4c22.2-1.3,45,11.6,53.4,32.8
	C456.7,292.5,457.9,306.2,459.5,313.5z M637,355.1c2.1,0.9,4.7,4,4.6,5.8c-1.6,17.9-27,29.2-43.5,18.3c26.9-3.4,29.4-4.5,31.2-15.1
	c-10.1,2.1-19.9,4.2-32.2,6.8C609.3,354.3,623.6,349.2,637,355.1z M817.8,293.9c-11.6-0.9-17.9-8.4-23.9-18.1
	c10.2-1.3,15.2,7.2,22.6,10.4c1.1-6.9-0.8-8.8-18.9-18.4c1.4-0.6,2.3-1.3,3.4-1.6c12.2-3.1,21.2,10.2,23.6,21.1
	C825.9,293.1,823.9,294.4,817.8,293.9z M819.2,265.3c-13-9.4-27-7.4-38.8,4.5c-0.9,1-1.8,1.9-2.6,2.9
	c-19.6,21.5-42.5,38.9-71.6,46.8c-5.8,1.6-11.7,2.9-19.1,4.7c12.7-8.8,24.1-16.1,34.8-24.5c16.5-13,28.1-29.6,34.5-50
	c1.7-5.3,6.3-10.4,10.9-13.9c13.8-10.7,22.1-23.4,22.2-41.7c0-10.8,3.4-21.5,4.9-32.2c0.5-3.3,0.9-7.4-0.7-9.8
	c-1-1.4-5.8-0.5-8.9-0.3c-1.9,0.2-4.3,0.4-5.5,1.6c-8.9,9.2-16.4,7.8-24.3-1.8c-4.6-5.7-10.2-4.6-14.3,1.6c-1.8,2.7-3.8,5.2-5.4,8
	c-2.7,4.7-5.5,7.6-11.9,7.8c-5.7,0.2-11.6,3.5-16.8,6.5c-1.5,0.8-2.3,5.9-1.2,7.7c7.5,12.6,15.3,25.2,23.7,37.2
	c4.2,6,9,12.1,14.8,16.3c6.2,4.5,6.7,9.3,3.7,14.9c-5.4,9.8-9.9,20.7-17.3,28.8c-28.3,30.9-63,48.9-105.9,40.4
	c-16.9-3.4-32.9-12.4-48.8-20.2c-19.6-9.6-38.3-21.3-57.9-30.8c-19.6-9.5-40.4-15.2-62.7-10.9c-2.8,0.5-6.4-0.2-9-1.6
	c-11.1-6.1-22-12.7-34-19.8c3.4-6.2,7.7-14.1,12.2-22.4c2.7,3.5,5.7,7.2,8.6,10.9c16.9,21.9,50.4,20.9,65.9-1.9
	c8.4-12.3,4.8-40.4-7-49.1c-2.7-2-9-1.8-12,0c-13.8,8.6-21.3,21.1-20.6,37.8c0.3,7,1.7,16.5-6.5,18c-4.2,0.7-10.6-6.8-14.8-11.6
	c-9.7-11-8.1-24.5-7.2-37.7c0.3-3.8,0.4-7.6,0.5-10.5c25.5-6.8,50.2-13.4,74.9-20.1c-0.1-0.3,0.1,0,0,0.2
	c-7.8,14.2-6.8,15.9,9.5,20.8c20.1,6,40,6.3,59.7-1.2c22.4-8.5,29.8-30.7,17.4-51.3c-2.5-4.2-4.3-8.8-6.7-13.7
	c25.9-2.1,64.8,24.4,57.6,63.3c-3.4-0.5-6.8-1.1-10.2-1.3c-9.7-0.7-14.2,3.7-10.9,12.6c3.7,10.2,0.5,15.3-9,19.3
	c-15.4,6.5-26.5,18.2-35.1,32.2c-2.7,4.3-5.1,9.1-6.2,14.1c-1.7,7.2-3.7,16.4,4,20.2c5.9,2.9,14.4,2.6,21.1,1.1
	c6.2-1.4,11.7-6.2,18.9-10.3c0.8,4.2,1,8.2,2.4,11.8c3.3,8.9,5.9,18.5,11.2,26.2c5.8,8.6,16.3,8.4,21.7-0.3
	c5.1-8.2,7.6-18,10.8-27.2c1.1-3.1,0.7-6.8,1.1-11.3c8.4,3.9,15.3,8,22.8,10.4c16.7,5.6,26.6-3.2,22.2-20.3
	c-5.2-20.7-19.8-34.1-37.7-44.4c-1.9-1.1-4-2-6.8-3.3c1.4-2,2.5-3.8,3.9-5.3c8.2-8.9,7-15-5.1-18.5c-7.3-2.1-9.8-6-10.2-12.9
	c-2.2-35.3-21.7-55.8-55.3-64.1c-3.1-0.8-6-1.8-10.4-3c7.9-9.2,14.9-17.5,22-25.7c1.5-1.7,3.5-3.3,4.2-5.3c0.7-2.1,0.1-4.7,0-7
	c-2.2,0.8-5,1.1-6.4,2.6c-7.7,8.6-14.6,18.1-22.7,26.3c-41.8,42.2-92.3,67.7-151.1,75.1c-54.9,7-106.9-3.3-156-29.5
	c-32.5-17.4-58.6-41.8-81.7-69.9c-1.9-2.2-4.7-3.7-7.1-5.6c-1,0.9-2.1,1.8-3.2,2.7c3.1,4.8,5.7,10.1,9.5,14.2
	c4.6,5.1,4.9,9-1.3,12.3c-7.6,4-15.2,8.5-23.4,11.2c-3.4,1.1-8.8-0.9-11.9-3.2c-1.4-1,0.1-6.9,1.5-10.1c2.2-5.3,5.9-10,8.1-15.3
	c10-23.6,3.8-43.9-17.3-58.9c-4.9-3.5-8.2-3.8-11.4,2.4c-11.5,22.9-13.3,46.7-3.8,70.2c8.1,20.1,32.8,31.6,54.3,15.7
	c3.3-2.4,7.1-4.1,11-6.3c2.1,32.7-28.4,63.6-64.3,58.8c0.7-2.4,1.8-4.7,1.8-7c0.2-4.2,1.2-9.5-0.9-12.3c-1.8-2.4-8.1-3.6-11.2-2.4
	c-11,4.2-15.5-1.3-20.3-10C93.5,97.6,78.3,80.7,53.4,76.7c-12.7-2-21.9,9.1-17.3,21.3c3,8,7.8,15.3,11.9,22.9
	c-10.1,3-19.9,5.5-29.4,8.8c-7.4,2.5-12.6,7.2-13.3,16c-0.7,8.9,4.5,13.2,11.5,15.7c10.1,3.7,20.5,6.7,31.6,10.3
	c-2.7,5.3-6.2,10.9-8.6,17c-2.8,7.4-4.6,15.5,2.1,21.7c7.1,6.5,15.8,5.4,23.6,1.5c16.7-8.4,31.4-19.1,38.6-37.4
	c0.8-2,2.2-3.7,3.9-6.3c1.5,1.7,2.3,3,3.5,3.7c3.3,2,7.2,5.7,9.9,5c3.5-0.9,8.1-5.2,8.5-8.4c0.8-7,4.9-8.5,10.2-9.2
	c42.6-6.1,57.8-19.3,68.7-60.1c0.5-1.8,1.3-3.5,2.5-6.9c29.8,29.6,63.9,50.2,102.8,64.4c-2.2,4.6-4,8.6-6.1,12.5
	c-9.2,17.9-8.4,36-1.4,54.2c3.6,9.4,9.3,16.2,19.7,19.6c5.7,1.9,10.1,7.7,16.8,13.2c-21.5,4.7-38.3-3.2-55.7-6.6
	c-5-1-9.8-3.1-14.7-4.5c-13.7-3.7-24.9-8.6-24.3-26.6c0.2-6.3-6.2-13-9.9-19.3c-3.4-5.7-7.3-11.1-10.8-16.8c-3.2-5.2-7-5.6-10.9-1.4
	c-2.4,2.5-3.5,6.2-5.9,8.8c-2.3,2.5-5.4,5.6-8.4,5.9c-7.3,0.7-11,3.7-10.1,11c0.8,6.5-1.4,11-6.6,14.9c-2.4,1.8-4.4,4.8-5.7,7.6
	c-2.2,4.6-0.5,6.6,4.7,7.7c10,2.1,19.9,4.9,29.4,8.5c9,3.4,17.4,3.8,26.2,0c2.5-1.1,5.8-2.2,8.1-1.4c16.6,5.9,33,12.4,48.2,18.3
	c-33.4,17.3-67.2,35.9-102.1,52.4c-27.3,12.9-56.8,13.7-86.2,8.2c-10.8-2-20.8-5-30.2-8.9c0,0,0-0.1,0-0.1c-0.1-1.3,0.3-3.2,0.8-4.4
	c0.9-2.5,2.3-4.9,3.9-7c9.1-11.7,6.8-23.8,1.2-35.9c-0.7-1.6-4.4-3.4-5.6-2.8c-10.1,4.5-20.2,9.5-23.6,21.4
	c-4.5,15.4,2.1,28,17.3,35.1c1.2,0.6,2.4,1,3.6,1.5c0.2,0.1,0.4,0.1,0.5,0.2c29.4,12.4,61.2,14.4,94.6,9.3c3.9-0.6,7.8-0.7,11.7-1
	c0.6,1.1,1.2,2.1,1.8,3.2c-2.9,2-6.7,3.4-8.4,6.1c-3.8,6.1-8.2,12.6-9.3,19.5c-3.8,25.1,16.6,39.7,38.1,43.9c6.5,1.2,7.7-3.6,5-7.7
	c-7-10.3-6.8-22-7.2-33.5c-0.4-10.5-1.3-20-14.6-25.6c7-6.4,11.9-12.6,18.3-16.3c24.1-13.7,48.4-27.2,73.1-39.7
	c17.9-9.1,37.2-14.8,57.6-13.7c2.8,0.2,5.4,3.4,8.2,5.3c-4.1,5.1-7.4,11.6-12.6,15c-7.2,4.6-16,6.5-23.9,10.2
	c-31.6,15-58.7,35.1-73.3,68.2c-3.7,8.3-5,17.8-6.8,26.8c-1.1,5.4,0.9,8.2,7.6,7.3c16.6-2.2,33.3-3.4,49.9-5.1
	c11.2-1.1,22.7-1.3,33.6-3.8c15.4-3.5,30.5-8.9,46.5-13.7c-0.7,3.4-1.8,7-2.1,10.7c-0.7,8.2-2.6,16.9-0.9,24.6
	c3.4,15.2,14.7,24.4,29.4,27.5c16.5,3.5,31.2-1.6,40.6-16c8.7-13.4,16-27.7,23-39.9c38.9,5.6,77.6,11.1,117.6,16.8
	c-0.6-5.2-0.8-8.6-1.5-12c-8.4-36.2-31-61.7-62.3-80c-13-7.6-27-13.6-40.5-20.3c-5.6-2.8-15.1-17.3-12.7-18.5
	c5.3-2.5,12.1-4.4,17.7-3.2c14.1,2.9,28.7,5.8,41.6,11.9c23,10.8,45,23.9,67.1,36.4c1.8,1,2.4,5.5,2.1,8.1c-0.3,2.2-2.9,4.2-4.2,6.4
	c-8.7,14-10.3,28-1,42.6c8.1,12.8,18.3,20.7,34.4,21.2c20.2,0.6,34.5-21,38-35.6c0.4-1.7-2.2-5.4-4.1-6.2
	c-14.8-5.7-29.8-8.8-44.2,1.5c-2.9,2.1-5.8,4.1-8.8,5.9c-7.9,4.8-13.1,2-13.2-7.1c-0.2-12.6,6.8-21.6,14.6-29.8
	c64,22,122.7,15.8,173.8-30.3c0.3-0.3,0.6-0.6,1-0.9c2.2-2,4.4-4.1,6.5-6.2c2.1-2.1,4.2-4.3,6.2-6.5c1.3,0.4,2.9,1.4,3.9,2.2
	c2.1,1.7,3.9,3.8,5.3,6c8,12.5,20.2,14.4,33.4,13.2c1.7-0.2,4.7-3,4.6-4.3C830.5,283.7,829.2,272.5,819.2,265.3z M714.6,177
	c6.7,0.5,12,1.6,17.3,1.1c2.8-0.2,6-2.7,7.7-5.1c1.9-2.8,1.9-6.7,3.2-9.9c2-4.8,6.2-6.6,9.9-2.8c10.4,10.8,20.3,13.8,31-1.7
	c0.6,0.9,1.2,1.8,1.8,2.7c-2.6,17.4-4.3,34.9-8.4,51.9c-1.5,6-8.8,10.6-13.5,15.9c-0.8-0.5-1.6-0.9-2.4-1.4
	c-1-12.9-1.8-25.9-3.1-38.9c-0.3-2.9-2.4-5.5-3.7-8.2c-1,2.7-2.8,5.5-2.7,8.2c0.2,9.9,1.3,19.9,1.7,29.8c0.1,3.7-0.7,7.5-1.2,11.4
	C740.3,227.1,723.6,203.6,714.6,177z"/>
</svg>
