<?xml version="1.0" encoding="utf-8"?>
<!-- Generator: Adobe Illustrator 26.0.1, SVG Export Plug-In . SVG Version: 6.00 Build 0)  -->
<svg version="1.1" id="Layer_1" xmlns="http://www.w3.org/2000/svg" xmlns:xlink="http://www.w3.org/1999/xlink" x="0px" y="0px"
	 viewBox="0 0 690.3 322.7" style="enable-background:new 0 0 690.3 322.7;" xml:space="preserve">
<style type="text/css">
	.st0{fill:#00A19B;}
	.st1{fill:#008080;}
	.st2{opacity:0.5;fill:#252525;}
	.st3{opacity:0.5;fill:#00A19B;}
	.st4{opacity:0.1;fill:#252525;}
	.st5{opacity:0.1;fill:#00A19B;}
	.st6{fill:#252525;}
	.st7{fill:#EDFFFE;}
	.st8{fill:#F9F9F9;}
	.st9{opacity:0.5;}
	.st10{opacity:0.5;clip-path:url(#SVGID_00000132067498642958922650000007418097432650922923_);}
	.st11{opacity:0.5;clip-path:url(#SVGID_00000134949913199070846710000016721872205499704493_);}
	.st12{opacity:0.5;clip-path:url(#SVGID_00000005226975196837636190000002565384831620540552_);}
	.st13{opacity:0.5;clip-path:url(#SVGID_00000179609224553145229350000000239306040678218408_);}
	.st14{opacity:0.5;clip-path:url(#SVGID_00000152259069018588769580000013765682868423175812_);}
	.st15{opacity:0.5;clip-path:url(#SVGID_00000013895536985189374210000001765206684820549018_);}
	.st16{opacity:0.5;clip-path:url(#SVGID_00000084495603359866226270000011403530837955738035_);}
	.st17{opacity:0.5;clip-path:url(#SVGID_00000024003733782280063760000001015929313829700754_);}
	.st18{opacity:0.5;clip-path:url(#SVGID_00000154418257851046655420000006902030531713686405_);}
	.st19{fill:#ED1B24;}
	.st20{fill:#BCD33A;}
	.st21{fill:#FBA419;}
	.st22{fill:#D5ADD1;}
	.st23{fill:#00BBF4;}
	.st24{fill:#FEF200;}
	.st25{opacity:0.26;}
</style>
<path class="st7" d="M678.4,233.3c-8.4-3.1-17-5.6-26.2-8.5c2.2-4.4,5.1-9.1,7.1-14.1c2.3-6.1,3.8-12.8-1.8-18
	c-5.9-5.4-13.1-4.5-19.6-1.2c-13.9,7-26.1,15.9-32.1,31.1c-0.6,1.6-1.9,3.1-3.2,5.2c-1.3-1.4-1.9-2.5-2.9-3.1
	c-2.7-1.6-6-4.7-8.2-4.1c-2.9,0.7-6.8,4.3-7.1,7c-0.7,5.8-4.1,7-8.5,7.7c-35.4,5-48,16-57.1,49.9c-0.4,1.5-1.1,2.9-2.1,5.7
	c-24.7-24.5-53-41.6-85.3-53.5c1.9-3.8,3.4-7.1,5-10.3c7.7-14.8,7-29.9,1.2-45c-3-7.8-7.7-13.4-16.3-16.3c-4.7-1.6-8.4-6.4-14-10.9
	c17.8-3.9,31.8,2.6,46.2,5.5c4.1,0.8,8.1,2.6,12.2,3.7c11.4,3.1,20.7,7.1,20.2,22.1c-0.2,5.2,5.2,10.8,8.2,16
	c2.8,4.8,6.1,9.2,8.9,14c2.6,4.3,5.8,4.6,9.1,1.1c2-2.1,2.9-5.2,4.9-7.3c2-2.1,4.5-4.7,7-4.9c6-0.6,9.1-3.1,8.4-9.1
	c-0.6-5.4,1.2-9.2,5.5-12.4c2-1.5,3.6-4,4.7-6.3c1.9-3.8,0.4-5.4-3.9-6.4c-8.3-1.8-16.5-4-24.4-7.1c-7.5-2.9-14.4-3.2-21.8,0
	c-2.1,0.9-4.8,1.9-6.7,1.2c-13.8-4.9-27.4-10.3-40-15.2c27.7-14.3,55.8-29.8,84.7-43.5c22.6-10.7,47.2-11.4,71.6-6.8
	c9,1.7,17.3,4.1,25.1,7.4c0,0,0,0.1,0,0.1c0.1,1.1-0.3,2.6-0.6,3.7c-0.7,2.1-1.9,4.1-3.2,5.8c-7.6,9.7-5.6,19.8-1,29.8
	c0.6,1.3,3.6,2.8,4.7,2.4c8.4-3.8,16.7-7.9,19.6-17.8c3.7-12.8-1.7-23.2-14.4-29.1c-1-0.5-2-0.9-3-1.2c-0.1-0.1-0.3-0.1-0.5-0.1
	c-24.4-10.3-50.8-12-78.5-7.7c-3.2,0.5-6.4,0.6-9.7,0.8c-0.5-0.9-1-1.8-1.5-2.6c2.4-1.7,5.6-2.8,7-5.1c3.1-5.1,6.8-10.5,7.7-16.2
	c3.2-20.8-13.8-33-31.6-36.4c-5.4-1-6.4,3-4.1,6.4c5.9,8.6,5.7,18.3,6,27.8c0.3,8.7,1.1,16.6,12.1,21.3c-5.8,5.3-9.9,10.5-15.2,13.5
	c-20,11.4-40.1,22.5-60.6,32.9c-14.9,7.5-30.8,12.3-47.8,11.4c-2.3-0.1-4.5-2.8-6.8-4.4c3.4-4.2,6.1-9.6,10.5-12.4
	c5.9-3.8,13.3-5.4,19.8-8.5c26.2-12.4,48.7-29.2,60.9-56.6c3.1-6.9,4.2-14.8,5.6-22.3c0.9-4.5-0.8-6.8-6.3-6.1
	c-13.8,1.8-27.6,2.9-41.4,4.3c-9.3,0.9-18.8,1.1-27.9,3.1c-12.8,2.9-25.3,7.3-38.6,11.3c0.6-2.8,1.5-5.8,1.8-8.9
	c0.5-6.8,2.2-14,0.7-20.4C388.1,13,378.7,5.4,366.5,2.7c-13.7-2.9-25.9,1.3-33.7,13.3c-7.2,11.1-13.3,22.9-19.1,33.1
	c-32.3-4.6-64.4-9.2-97.6-14c0.5,4.3,0.6,7.2,1.3,9.9c7,30.1,25.8,51.2,51.7,66.4c10.8,6.3,22.4,11.3,33.7,16.9
	c4.7,2.3,12.5,14.4,10.5,15.4c-4.4,2.1-10.1,3.6-14.7,2.7c-11.7-2.4-23.8-4.8-34.5-9.8c-19.1-9-37.3-19.8-55.7-30.2
	c-1.5-0.8-2-4.5-1.8-6.8c0.2-1.9,2.4-3.5,3.5-5.3c7.2-11.6,8.6-23.2,0.9-35.4c-6.8-10.6-15.2-17.1-28.6-17.6
	c-16.8-0.5-28.6,17.4-31.5,29.6c-0.3,1.4,1.8,4.5,3.4,5.1c12.3,4.8,24.7,7.3,36.7-1.3c2.4-1.7,4.8-3.4,7.3-4.9
	c6.6-4,10.8-1.6,10.9,5.9c0.1,10.5-5.6,18-12.1,24.7C143.9,82.2,95.3,87.4,52.8,125.6c-0.3,0.2-0.5,0.5-0.8,0.7
	c-1.9,1.7-3.7,3.4-5.4,5.1c-1.8,1.8-3.5,3.6-5.2,5.4c-1.1-0.3-2.4-1.1-3.2-1.8c-1.7-1.4-3.2-3.1-4.4-5c-6.6-10.4-16.7-12-27.7-10.9
	c-1.4,0.1-3.9,2.5-3.8,3.6c0.7,9.2,1.8,18.4,10.2,24.4c10.8,7.8,22.4,6.2,32.2-3.8c0.8-0.8,1.5-1.6,2.1-2.4
	c16.3-17.9,35.3-32.3,59.4-38.9c4.8-1.3,9.7-2.4,15.9-3.9c-10.5,7.3-20,13.4-28.8,20.3C79.6,129.3,70,143.1,64.7,160
	c-1.4,4.4-5.2,8.6-9.1,11.6c-11.5,8.9-18.4,19.4-18.4,34.6c0,8.9-2.8,17.8-4.1,26.8c-0.4,2.7-0.7,6.1,0.6,8.1
	c0.8,1.2,4.8,0.4,7.4,0.3c1.6-0.1,3.6-0.4,4.6-1.4c7.4-7.6,13.6-6.5,20.2,1.5c3.9,4.7,8.4,3.8,11.9-1.3c1.5-2.2,3.2-4.3,4.5-6.6
	c2.2-3.9,4.6-6.3,9.9-6.5c4.7-0.2,9.6-2.9,13.9-5.4c1.2-0.7,1.9-4.9,1-6.4c-6.3-10.5-12.7-20.9-19.7-30.9c-3.5-5-7.5-10-12.3-13.5
	c-5.2-3.8-5.6-7.7-3-12.3c4.4-8.2,8.2-17.2,14.4-23.9c23.5-25.7,52.2-40.6,87.9-33.5c14.1,2.8,27.3,10.3,40.5,16.7
	c16.3,8,31.8,17.7,48.1,25.6c16.3,7.9,33.5,12.6,52,9.1c2.3-0.4,5.3,0.2,7.5,1.3c9.2,5.1,18.2,10.5,28.2,16.4
	c-2.8,5.2-6.4,11.7-10.1,18.6c-2.2-2.9-4.7-5.9-7.1-9.1c-14-18.1-41.8-17.3-54.7,1.6c-6.9,10.2-4,33.5,5.8,40.8
	c2.2,1.6,7.5,1.5,9.9,0c11.4-7.1,17.6-17.5,17.1-31.4c-0.2-5.8-1.4-13.7,5.4-14.9c3.5-0.6,8.8,5.6,12.3,9.6c8,9.1,6.7,20.3,6,31.3
	c-0.2,3.2-0.3,6.3-0.4,8.7c-21.2,5.7-41.7,11.2-62.2,16.6c0.1,0.3-0.1,0,0-0.1c6.5-11.8,5.6-13.2-7.9-17.3c-16.7-5-33.2-5.2-49.5,1
	c-18.6,7.1-24.7,25.5-14.4,42.5c2.1,3.5,3.6,7.3,5.6,11.4c-21.5,1.7-53.7-20.2-47.8-52.6c2.8,0.4,5.6,0.9,8.5,1.1
	c8.1,0.6,11.7-3.1,9-10.5c-3.1-8.5-0.4-12.7,7.4-16.1c12.7-5.4,22-15.1,29.1-26.8c2.2-3.6,4.2-7.6,5.2-11.7c1.4-6,3.1-13.6-3.4-16.8
	c-4.9-2.4-11.9-2.2-17.5-1c-5.2,1.1-9.7,5.2-15.6,8.6c-0.7-3.5-0.9-6.8-2-9.8c-2.8-7.4-4.9-15.3-9.3-21.7c-4.8-7.1-13.6-7-18,0.2
	c-4.2,6.8-6.3,14.9-8.9,22.6c-0.9,2.6-0.6,5.6-0.9,9.4c-7-3.3-12.7-6.6-18.9-8.7c-13.9-4.7-22.1,2.7-18.4,16.9
	c4.3,17.1,16.4,28.3,31.3,36.8c1.6,0.9,3.3,1.6,5.6,2.8c-1.2,1.7-2.1,3.2-3.2,4.4c-6.8,7.4-5.8,12.4,4.3,15.3
	c6.1,1.7,8.1,5,8.5,10.7c1.8,29.3,18,46.3,45.9,53.2c2.5,0.6,5,1.5,8.6,2.5c-6.6,7.7-12.4,14.5-18.2,21.3c-1.2,1.4-2.9,2.7-3.5,4.4
	c-0.6,1.8,0,3.9,0,5.9c1.8-0.7,4.1-0.9,5.3-2.2c6.4-7.2,12.1-15,18.8-21.8c34.7-35,76.6-56.1,125.4-62.3
	c45.5-5.8,88.7,2.7,129.4,24.5c27,14.4,48.6,34.7,67.8,58c1.6,1.9,3.9,3.1,5.9,4.6c0.9-0.8,1.8-1.5,2.6-2.3c-2.6-4-4.7-8.4-7.8-11.8
	c-1.4-1.5-2.3-2.9-2.6-4.2c-0.1-0.1-0.2-0.3-0.3-0.4c-1-1.8-1.6-3.7-1.6-5.7c-0.1-0.6-0.1-1.2-0.1-1.8c0-0.4,0-0.8-0.1-1.3
	c0-0.2-0.1-0.5-0.1-0.7c0,0,0-0.1,0-0.1c-0.4-1.4-0.4-2.6-0.2-4c0-0.3,0-0.5,0-0.8c0-0.9,0.1-1.8,0.4-2.5
	c2.2-24.6,25.8-46,53.2-42.4c-0.6,2-1.5,3.9-1.5,5.8c-0.1,3.5-1,7.9,0.7,10.2c1.5,2,6.7,3,9.3,2c9.1-3.5,12.8,1.1,16.9,8.3
	c9.6,17,22.2,31,42.8,34.4c10.5,1.7,18.2-7.6,14.4-17.7c-2.5-6.6-6.5-12.7-9.9-19c8.4-2.5,16.5-4.6,24.4-7.3c6.1-2.1,10.4-6,11-13.3
	C688.6,239,684.3,235.5,678.4,233.3z M491.4,176.2c7.6,5,14.4,9.5,21.2,14c0.5-0.7,1.1-1.4,1.6-2.1c-1.7-9.7-12.8-11.1-18.9-19.5
	c15-3.2,24.5,6.7,35.4,9.7c-2.4,3.6-5,6.2-5.8,9.2c-0.9,3.4-0.2,7.2-0.2,11.6c-8-2.2-14.7-2.7-15.2,8.7
	C500.9,198.6,490,191.7,491.4,176.2z M631.5,113.9c3.8,7.6-1.4,13.9-1.8,20.6c5.7-1.1,6.6-3.1,9.1-19.9c0.9,0.9,1.7,1.4,2.2,2.2
	c5.8,8.7-2.1,19.4-9.9,24.3c-4.2,2.6-5.7,1.4-7.1-3.5C621.5,128.4,625.6,121.4,631.5,113.9z M529.8,43.5c14,3,21.6,17,15.3,28.3
	c-3.4-13-3.4-13-9.2-15.7c0.8,8.2,1.6,15.8,2.5,24C531.8,77.4,527.7,56.7,529.8,43.5z M163.6,72.5c-1.7-0.8-3.9-3.3-3.8-4.8
	c1.3-14.9,22.4-24.2,36.1-15.2c-22.4,2.8-24.4,3.8-25.9,12.5c8.4-1.8,16.5-3.5,26.7-5.6C186.6,73.2,174.7,77.5,163.6,72.5z
	 M14.6,129.7c-0.9,5.7,0.7,7.3,15.7,15.3c-1.1,0.5-1.9,1.1-2.8,1.3c-10.1,2.6-17.6-8.5-19.6-17.5c-1-4.8,0.6-5.9,5.6-5.5
	c9.6,0.7,14.8,6.9,19.9,15C25,139.4,20.8,132.4,14.6,129.7z M99.3,220.3c-5.6-0.4-10-1.3-14.3-0.9c-2.3,0.2-5,2.2-6.4,4.2
	c-1.6,2.3-1.6,5.6-2.7,8.2c-1.7,4-5.2,5.5-8.2,2.3c-8.6-8.9-16.9-11.4-25.7,1.4c-0.5-0.7-1-1.5-1.5-2.2c2.2-14.4,3.6-29,7-43.1
	c1.2-5,7.3-8.8,11.2-13.2c0.7,0.4,1.3,0.8,2,1.1c0.8,10.7,1.5,21.5,2.6,32.3c0.2,2.4,2,4.6,3.1,6.8c0.8-2.3,2.3-4.6,2.3-6.8
	c-0.2-8.2-1.1-16.5-1.4-24.7c-0.1-3.1,0.6-6.2,1-9.4C77.9,178.8,91.8,198.3,99.3,220.3z M296.6,212.2c-5.5,5.9-8.3,5.4-11.8-1.6
	c-7.2-14.4-2.9-29.7,10.5-34.7c-2.2,4.9-4.9,9.7-6.4,14.9c-0.6,2.1,1.2,4.9,2,7.3c1.5-1.8,3.4-3.4,4.5-5.5c2.1-3.8,3.7-7.8,5.5-11.8
	C305.9,193,304.9,203.3,296.6,212.2z M203.2,150c0.8-0.2,1.6-0.2,2.6-0.3c6.2-0.1,8.2,4,6.5,9c-6.4,18.9-18.2,33-38,38.9
	c-6.2,1.9-10.2-1.7-9.3-7.5C167.3,175.4,188.8,152.8,203.2,150z M154.7,128.7c1.3-2,4.9-5,5.8-4.5c3.3,1.8,7.2,4.3,8.5,7.5
	c6.7,16.2,8.6,32.1-7.5,45.4C146.8,162.8,144.2,145.5,154.7,128.7z M150.3,198c-12-2.1-21.3-8.9-28.4-18
	c-4.8-6.2-8.2-13.6-11.2-20.9c-1.9-4.7,0.8-8.6,6.4-8.5c15,0.3,40.6,26,40.9,40C158.4,196.9,156,199,150.3,198z M213.2,280.4
	c-3.9-10.1-7.7-18.7-10.5-27.7c-0.8-2.5,0.3-7.2,2.1-8.5c1.8-1.2,6,0.2,8.7,1.4c9.6,4.4,18.9,9.3,28.4,14.1
	C233.8,265.5,224.7,272.1,213.2,280.4z M264.6,239.9c-16.2,12.4-27.6,14.7-48.6-1.5c6.6,1,11.4,1.9,16.3,2.5
	c5.5,0.7,11.1,1.5,16.7,1.5c2.7,0,5.4-1.7,8.1-2.6c-2.7-1.5-5.3-3.8-8.1-4.3c-6.3-1.1-12.7-1.2-19.1-2c-2.3-0.3-4.6-1.6-6.6-3.4
	c14.4-4.4,28.4-3.1,42,1.9C270.5,233.8,267.3,237.8,264.6,239.9z M481.6,79.4c-11.1-15-9.8-17.4,12.2-24
	C489.5,63.8,485.8,71.2,481.6,79.4z M476.7,45.9c3.9-0.1,7.8,0,11.7,0c0.4,0.8,0.7,1.6,1.1,2.4c-6.5,3.4-12.9,6.9-19.5,10.4
	C465.8,48,466.9,46.2,476.7,45.9z M465.2,67.5c4.5,3.4,7.8,11.1,7.8,17c0,4.4-6.1,8.7-9.4,13.1c-0.9-0.5-1.8-0.9-2.7-1.4
	c-1.3-4.2-2.1-8.7-4-12.7c-1.9-4-4.8-7.5-8.6-13.1C454.6,69.2,462.3,65.3,465.2,67.5z M452.9,47c6.7-1.2,8.2,4.2,7.9,9.1
	c-0.5,9.4-9.5,7.4-14.6,8.1c-8.1,1.1-2.3-7.5-5.4-10.3C441.3,44.8,448.5,47.8,452.9,47z M449.6,85.6c0.5,0.9,1.1,1.8,1.6,2.8
	c6,12,4.2,16.1-8.1,21c-7-9.4-14-18.6-21-27.9C431.5,71.5,442.5,72.7,449.6,85.6z M425.7,50c5.3-1.2,8,0.7,8.7,6.1
	c1.6,11.8-1.2,15-14.7,16.3C415.6,55.8,416.8,52,425.7,50z M414.1,87.5c5.1,4,10.4,8.1,14.6,13c2.9,3.3,4.2,7.9,6.8,13.2
	c-7.2,3.3-13.7,6.2-19.6,8.9c-2.7-11.3-4.9-20.7-7-30.2c-0.3-1.4-0.4-3.7,0.3-4.2C410.5,87.4,413.1,86.7,414.1,87.5z M396.4,60.7
	c3.5-2.5,8-3.5,12.2-5.1c1,4.8,3,9.7,2.5,14.3c-0.4,4.4-3.3,8.6-5.1,13h-2.9c-3.6-4.7-7.8-9.1-10.5-14.2
	C391.7,67,394.2,62.3,396.4,60.7z M278.5,54c1.8-5.6,5.1-3.2,8.2-2.5c3.3,0.8,8.1,0.2,7,6.2c-0.9,4.7-1.7,9.3-2.7,14.5
	C276.9,69.2,274.7,65.4,278.5,54z M253.9,52.8c1.8-6,6.3-7.4,14.1-4.3c4.7,1.9,4.9,6.4,0.4,15.5C254.5,61.1,252,59.1,253.9,52.8z
	 M245.8,56.8c-4.6-3.3-8.6-6.2-12.6-9.1C247,45.3,248.2,46.2,245.8,56.8z M239.7,74.4c-0.7,0.2-1.4,0.4-2.2,0.6
	c-3.7-6.8-7.3-13.7-11-20.5c0.7-0.5,1.4-1.1,2.1-1.6c4.8,3.4,9.6,6.8,14.6,10.3C242,67.1,240.8,70.7,239.7,74.4z M248.3,69.6
	c4.7-7.5,10.1,0.1,16.3-0.2c-3.6,7.8-6.8,14.6-10.2,21.9C245,85.7,242.8,78.4,248.3,69.6z M263.3,88.7c6.8-15.7,8-16.2,24-9.4
	c-4.2,9-8.4,18.1-12.7,27.5C261.8,101.3,259.5,97.5,263.3,88.7z M305.4,121.7c-3.4-1.4-6-2.1-8.2-3.4c-5.1-3-14.6-7.2-14.1-9.2
	c1.8-8.2,6.4-15.9,10.6-23.4c0.6-1.1,4.9-1.2,6.9-0.4c2,0.9,4.5,3.5,4.6,5.4C305.7,100.6,305.4,110.4,305.4,121.7z M310.5,63.5
	c-1.4,5.1-2.5,10.2-3.9,15.7c-8.1-1-9.2-7-8.2-12.8c0.6-3.6-0.6-10,6.8-9.4C309.5,57.2,311.7,58.7,310.5,63.5z M317.3,134.7
	c-4-10.2-5-21.6-6.3-27.6c1.8-32.3,7.7-58,22.9-81c2.4-3.6,5-7,8-10c9.2-9.2,21.2-10.4,32.3-3.6c9,5.4,13.6,18.6,10.2,29.6
	c-4.2,13.8-2.6,26,7.5,37.2c12.8,14.2,19.6,30.3,12.8,49.9c-6.6,19-22.5,31.4-43.1,32.7C343.2,163,324.2,152.3,317.3,134.7z
	 M420.4,233.7c-3.3-0.7-6.5-1.8-9.9-2.2c-19.4-2.1-38.7-4.4-58.1-5.7c-10.6-0.7-11.2-0.6-10.6-11.4c0.8-14.9,6.1-28.1,15-39.9
	c2-2.7,5.8-4.3,9.1-5.8c8.7-3.9,17.9-6.8,26.3-11.3c5.3-2.9,8.6-1.7,11.7,2.1c2.9,3.5,8.3,5.6,4.6,12.6c-8.4,16.2-5.7,32.1,4.4,46.9
	c3,4.3,6.1,8.5,9.2,12.7C421.6,232.3,421,233,420.4,233.7z M415.6,174.7c2.3,5.8,4.1,10.5,5.9,15.2c1.7,4.4,3.3,8.9,4.9,13.3
	c1.4-0.4,2.7-0.9,4.1-1.3c-1.9-8.7-3.8-17.5-5.6-26.3c12.2,7.5,14.2,38.5,3,50.7C410.2,207.1,405.4,189,415.6,174.7z M608.7,231.6
	c6.4-16.8,18.5-28.5,34.8-35.7c6.8-3,10.7,0.3,10.4,10.3c-2.1,9.5-9.4,18.4-18,26c-4.7,4.2-10.6,7.3-16.4,9.8c-3,1.2-7.9,1-10.3-0.8
	C607.5,239.9,607.6,234.5,608.7,231.6z M655,286.3c2.8,7.2,0.1,11.4-8.2,11.2c-3.4-1.8-8.7-4.3-13.7-7.3
	c-11-6.7-19.8-15.6-23.8-28.1c-1-3.2,0.2-7.1,0.3-10.7c3.8,0.2,7.9-0.5,11.3,0.9C636.9,258.8,648.7,270,655,286.3z M674.3,253.4
	c-14.6,6.8-29.2,9.3-42.2-3.2c-1.3-1.2-1.6-5.8-0.7-6.5c6.5-5,12.7-11.1,22.1-10.7c6.9,1.7,14.1,2.9,20.7,5.5c3,1.1,6.2,5,6.6,8
	C681.1,248.5,677.1,252.1,674.3,253.4z"/>
</svg>
