<?xml version="1.0" encoding="utf-8"?>
<!-- Generator: Adobe Illustrator 26.0.1, SVG Export Plug-In . SVG Version: 6.00 Build 0)  -->
<svg version="1.1" id="Layer_1" xmlns="http://www.w3.org/2000/svg" xmlns:xlink="http://www.w3.org/1999/xlink" x="0px" y="0px"
	 viewBox="0 0 512 512" style="enable-background:new 0 0 512 512;" xml:space="preserve">
<style type="text/css">
	.st0{fill:#00A19B;}
	.st1{opacity:0.5;fill:#252525;}
	.st2{opacity:0.5;fill:#00A19B;}
	.st3{opacity:0.1;fill:#252525;}
	.st4{opacity:0.1;fill:#00A19B;}
	.st5{fill:#252525;}
	.st6{fill:#EDFFFE;}
	.st7{fill:#008080;}
	.st8{fill:#F9F9F9;}
	.st9{opacity:0.5;}
	.st10{opacity:0.5;clip-path:url(#SVGID_00000043431011832607995250000012906424066974420125_);}
	.st11{opacity:0.5;clip-path:url(#SVGID_00000143617619449646618860000011890652821164437394_);}
	.st12{opacity:0.5;clip-path:url(#SVGID_00000145750425089223448380000015541032525074342292_);}
	.st13{opacity:0.5;clip-path:url(#SVGID_00000067955761142068104110000002913692495413965203_);}
	.st14{opacity:0.5;clip-path:url(#SVGID_00000050656723166142476910000004343720686386868617_);}
	.st15{opacity:0.5;clip-path:url(#SVGID_00000008839014761415066890000002697932619774470819_);}
</style>
<g>
	<circle class="st7" cx="256" cy="256" r="248.5"/>
	<g>
		<g>
			<g>
				<circle class="st8" cx="267.3" cy="69.4" r="1.8"/>
			</g>
			<g>
				<path class="st8" d="M434.6,223.2c-4-1.2-7.7-0.9-11.3,0.9c-1.5,0.8-2.7,2-4,2.9c-0.6-5-1.3-9.6-1.8-14.3
					c-0.4-3.3,1.2-5.8,3.9-7.4c3.7-2.1,5.1-1.6,6.6,2.4c1.9,5,5.6,8.1,10.4,9.9c2.2,0.9,4.4,0.9,6.1-1.2c1.6-1.9,2.2-4,1.2-6.5
					c-2.1-4.8-5.8-7.9-10.6-9.1c-3-0.7-6.4,0-9.5,0.6c-2.7,0.5-5.2,1.7-7.7,2.8c-1,0.4-1.8,1.4-3.2,2.5c-1.2-3.1-2-5.8-3.4-8.2
					c-0.7-1.1-2.8-2.4-3.8-2.1c-1.3,0.4-2.8,2.1-3.2,3.5c-0.2,0.9,1.3,3.3,2.1,3.3c5.1,0.4,6.4,4.2,7.7,8c1.7,5.1,2.7,10.2,1.6,14.8
					c-3.4-4.1-6.6-8.6-10.3-12.5c-2.2-2.4-5.7-2.7-7.9-0.2c-2.9,3.1-5.1,6.9-7.5,10.4c-0.4,0.5-0.6,1.2-0.9,1.7
					c-0.1-3.9-0.2-7.9,1.3-11.2c3.3-7.6,7.2-15,11.3-22.2c3.3-5.7,3.6-5.4,9.6-2.2c0.7,0.4,1.5,0.7,2.2,1.1
					c7.5,4.3,19.5-4.1,20-11.2c0.5-6.7-5.6-15.7-12.3-16.4c-0.9-0.1-2.6,1.1-3,2c-2.5,5.7-2.7,11.4,1.5,16.6c0.8,1,1.2,2.3,1.9,3.4
					c1.4,2.5,0.1,4.1-2.1,3.5c-3.8-0.9-7.4-2.5-11-4.2c-0.6-0.3-1.1-2.1-0.8-3c0.8-3.7,2.2-7.4,2.9-11.1c3.4-17-0.2-32.5-10.8-46.2
					c-12.8-16.4-29.2-25.7-50.5-24.9c-4.8,0.2-9.7,1-14.4,1.6c2-3.5,4.6-6.7,5.8-10.4c1.5-4.2-0.2-8.2-3.4-11.2
					c-3.6-3.3-7.6-6.2-13.8-5c5.2,5.6,3.3,12.1,4.7,17.9c-4.3-1.6-8.5-3.2-12.2-4.6c1.9-3.5,3.9-6.7,5.5-10.2
					c1.2-2.6,1.1-5.3-0.9-7.6c-1.9-2.1-4.2-2-6.5-0.8c-3.7,1.8-7.2,3.7-11.1,5.7c-0.8-2.6-1.6-5.4-2.7-8.1c-1.6-4-6.5-5.7-9.1-2.9
					c-1.6,1.7-3.2,4-3.7,6.3c-1.6,6.7-2,13.5,0.6,20.1c1.3,3.3,0.8,5.5-2.8,6.9c-2.8,1.1-3.2,4.7-0.6,5.7c4.1,1.6,3.2,4.1,2.4,7
					c-0.5,1.9-1.1,3.9-1.3,5.8c-1.1,8.1-0.9,9.9-12,7.7c-0.1,0-0.2,0-0.3-0.1c-3.5-1.2-7-2.2-10-5.2c13.9-7.5,19.2-18.7,16.1-33.5
					c-0.8-3.6,0.1-5.9,2.7-8c2-1.6,2.1-3.3,0.2-5c-1.8-1.7-3.7-3.3-5.4-5.1c-5.5-6.3-14.4-7-20.4-1.3c-2.3,2.2-4.1,5.1-6,7.8
					c-3.5,4.7-7.2,9.2-13.7,10.9c0-1.8,0.2-3.3,0-4.8c-0.9-4.6-1.5-9.2-3-13.6c-0.6-1.6-3.2-3.4-4.9-3.5c-1.7-0.1-3.9,1.5-5.3,2.9
					c-1.2,1.3-1.6,3.3-2.2,5.1c-0.6,1.5-1,2.9-1.3,4c-3.8-2.1-7.1-4.4-10.7-5.8c-5.4-2.1-9.2,1-8,6.6c0.7,3.3,2.9,6.3,4.5,9.4
					c0.5,0.9,1.1,1.8,1.8,2.9c-2.1,0.5-3.8,0.8-5.3,1.4c-1.6,0.6-3.3,1.3-4.8,2.3c-3.5,2.3-4.1,6-0.7,8.3c3.2,2.1,7.1,3.5,10.9,4.2
					c4,0.7,8.3,0.2,12.6,0.2c-2.9,5-8.5,8.6-7.2,16.7c-9.3-5-17.6-9.5-26.3-14.1c1-1.6,1.7-2.9,2.5-4.1c3-4.9,3.9-9.9,1.1-15.4
					c-3.6-7.2-9.8-10.2-17.1-7.8c-5.7,1.8-7.9,6.7-10,11.7c-0.3,0.6,0.7,2.3,1.4,2.7c5.9,2.5,11.8,3.5,17.3-1.1c1-0.8,2.1-1.5,3.3-2
					c0.9-0.3,2.4-0.7,2.8-0.2c0.8,0.8,1.6,2.5,1.3,3.4c-1.2,3.3-2.8,6.4-4.6,9.5c-0.4,0.7-2.2,1-3.2,0.8c-5.5-1-11-2.5-16.6-3.2
					c-28.1-3.8-52,15.4-61.5,37.6c-5.4,12.6-5,25.6-2.4,39.8c-6.5-7.1-13.3-10.4-21.1-4.3c-3.8,3-6.4,7.4-6,13.3
					c1.4-0.4,2.4-0.6,3.3-0.8c3.3-0.7,6.6-1.9,9.9-1.8c4.6,0.1,8.4-0.4,10.8-5.3c7.7,5.8,9.8,14.5,15.2,22.4c-8,0-14.9-0.9-21.5,0.2
					c-12.2,2.1-24.6,11.2-24.2,32.8c0.2,9.3,1.2,14.3,4.3,15c0-3.9-0.5-7.8,0.1-11.5c0.9-5.7,2.5-11.2,8.9-13.2
					c4.3-1.3,8.2,0.3,11.8,2.2c5.2,2.6,10.5,4.1,16.3,3.9c2.9-0.1,4.2-1.1,3.7-4.1c-0.2-0.9-0.1-1.9-0.4-2.8
					c-1.3-3.8-2.8-7.6-4.1-11.1c2.5-2.2,4.9-4.2,7.8-6.7c1.6,3.5,3.2,6.9,4.6,10.5c2.7,6.7,4.3,13.5,2.3,20.7
					c-0.4,1.3-2.1,2.9-3.4,3.1c-7.4,1.2-14.4,3.4-20.9,7.2c-4.8,2.8-9.5,5.7-14.5,8.1c-5.7,2.9-13.8-0.3-16.4-5.6
					c-2.3-4.8-2.5-9.7-3.1-14.7c-0.1-1-0.8-2-1.2-3c-0.7,0.9-1.9,1.8-2,2.8c-0.4,3.4-0.5,6.8-0.5,10.2c0,9,2,17.4,8.1,24.2
					c4.7,5.3,10,10.2,15.1,15.5c-3.1,2.6-6.5,5.5-10.1,8.3c-0.9,0.7-2.2,1.5-3.2,1.3c-1.6-0.3-3.5-1.1-4.4-2.3
					c-0.5-0.7,0.4-3.3,1.3-4c1.1-0.8,3-0.4,4.6-0.6c0,0.4,0.1,0.8,0.1,1.1c-1.1,0.9-2.3,1.7-3.1,2.7c-0.2,0.3,0.7,1.5,1.1,2.2
					c1.7-1.3,4-2.3,4.9-4c0.5-1-0.8-3.6-1.9-4.7c-2.3-2.2-6.9-0.7-9.1,2.6c-2.1,3.2-1.5,7.2,1.5,8.9c3.5,2,8.5,1.2,11.8-1.8
					c2.1-1.9,4.1-3.9,6.3-5.7c0.9-0.8,2.3-1,4.1-1.8c-0.9,2.6-1.8,4.1-2,5.8c-0.1,0.7,0.9,2.4,1.4,2.4c4.5-0.1,9.4,1,13.4-2.1
					c6.5-5.2,14.4-2.8,21.5-4.9c0.3,0.3,0.6,0.6,0.9,1c-3.5,7.4-7,14.8-10.4,22.2c-0.4-0.1-0.7-0.3-1-0.4c-0.8-2.5-1.4-5.1-2.5-7.5
					c-2.4-5.6-8-8-13.3-5.9c-3.9,1.6-6.1,6.2-4.9,10.6c1,3.7,4.6,6,8.4,5.4c2.7-0.4,4.1-2.8,3.7-6.2c-0.2-2-1-3-3.3-2.2
					c0.1,0.6,0.3,1.2,0.3,1.8c-0.1,1.1,0.2,2.5-0.4,3.1c-0.6,0.6-2.2,0.5-3.1,0.2c-3.4-1.2-4.2-5.5-1.6-8c3.2-3.2,8.4-2.6,10.9,1.5
					c4.1,6.8,3.2,13.6-0.5,20.6c-0.8-0.6-1.5-1-2.1-1.5c-4.2-3.4-8.8-4.6-14.1-3.2c-6.4,1.7-11.3,7.1-11.5,13.1
					c-0.2,6.8,4.1,13,10.7,15c2.1,0.7,4.2,0.7,4.8-1.9c1.4-5.4,2.2-10.8-1.6-15.9c-1.4-1.9-1.6-4.6-2.3-7c2.7-0.2,5.4-0.4,8.1-0.5
					c0.2,0,0.5,0.1,0.7,0.2c4.7,2,5.5,4.3,4.1,9.2c-1.1,3.7-1.9,7.5-2.5,11.4c-3.4,24.3,6.2,43,25,57.5
					c13.9,10.7,29.8,13.2,46.9,10.6c1.4-0.2,2.8-0.3,4.3-0.4c0.2,0.4,0.4,0.8,0.7,1.2c-1.1,0.7-2.5,1.2-3.1,2.2
					c-1.4,2.2-3,4.6-3.4,7.1c-1.4,9.2,6.1,14.5,13.9,16c2.4,0.5,2.8-1.3,1.8-2.8c-2.6-3.8-2.5-8-2.6-12.2c-0.1-3.8-0.5-7.3-5.3-9.4
					c2.6-2.3,4.4-4.6,6.7-5.9c8.8-5,17.7-9.9,26.7-14.5c6.6-3.3,13.6-5.4,21.1-5c1,0.1,2,1.3,3,1.9c-1.5,1.9-2.7,4.2-4.6,5.5
					c-2.6,1.7-5.8,2.4-8.7,3.7c-11.5,5.5-21.4,12.8-26.8,24.9c-1.3,3-1.8,6.5-2.5,9.8c-0.4,2,0.3,3,2.8,2.7
					c6.1-0.8,12.2-1.3,18.2-1.9c4.1-0.4,8.3-0.5,12.3-1.4c5.6-1.3,11.1-3.2,17-5c-0.3,1.2-0.7,2.6-0.8,3.9c-0.2,3-1,6.2-0.3,9
					c1.2,5.5,5.4,8.9,10.7,10.1c6,1.3,11.4-0.6,14.8-5.9c3.2-4.9,5.8-10.1,8.4-14.6c14.2,2,28.3,4.1,42.9,6.1
					c-0.2-1.9-0.3-3.2-0.6-4.4c-3.1-13.2-11.3-22.5-22.7-29.2c-4.8-2.8-9.9-5-14.8-7.4c-2-1-5.5-6.3-4.6-6.8
					c1.9-0.9,4.4-1.6,6.5-1.2c5.2,1,10.5,2.1,15.2,4.3c8.4,4,16.4,8.7,24.5,13.3c0.6,0.4,0.9,2,0.8,3c-0.1,0.8-1,1.5-1.5,2.3
					c-3.2,5.1-3.8,10.2-0.4,15.6c3,4.7,6.7,7.5,12.6,7.7c7.4,0.2,12.6-7.7,13.9-13c0.1-0.6-0.8-2-1.5-2.3
					c-5.4-2.1-10.9-3.2-16.1,0.6c-1,0.8-2.1,1.5-3.2,2.2c-2.9,1.7-4.8,0.7-4.8-2.6c-0.1-4.6,2.5-7.9,5.3-10.9
					c23.4,8,44.8,5.8,63.5-11.1c18.4-16.6,24.8-37.2,19.2-61.8c1.6,0.8,2.6,1.7,3.5,2.7c3.5,3.8,9.6,4.9,14.7,2.7
					c4.2-1.8,9.3-9.3,8.9-13.2c-0.2-1.7-0.7-2.4-2.7-1.7c-3.3,1.1-6.7,2.2-10.1,2.3c-4.5,0.2-8.7,0.4-11.7,5.5
					c-2.3-2.6-4.6-4.5-6.1-6.9c-3.5-5.7-6.9-11.5-9.8-17.5c-3.4-7.2-6.4-14.6-9.2-22c-1.6-4.2-0.3-5.9,4.4-6.7
					c1.5,4.8,3.8,8.9,9.6,9.2c9.1,0.4,12.9-4.7,13.5-13.8c5,6.5,9.5,12.6,13,19.3c1.6,3,1.8,7,1.8,10.5c0,2.9-3.7,5.5-6.8,5.6
					c-3.2,0.2-2.7-2.5-3.5-4.3c-2.1-5.3-5.5-9.3-11.5-10.5c-3.8-0.7-6.5,1.7-6.5,5.4c0.1,5.5,8.5,13.6,14,12.7
					c5.6-0.9,12.1,0.6,16.8-6.2c0.9,3.1,1.7,5.2,2,7.3c0.3,2.2,1.5,3.4,3.5,3.1c1.2-0.2,3.3-1.5,3.2-2.3c0-1.6-0.9-4.5-1.9-4.6
					c-4.4-0.7-4.5-4.3-5.5-7.2c-1.7-4.8-3.3-9.7-5.2-14.5c-0.9-2.4-2.5-4.5-3.9-7c1.1,0,2-0.2,2.7,0c5,1.4,9.8,0.5,14.6-0.8
					c2.3-0.6,2.5-1.5,1.3-3.5c-2.2-3.8-4.2-7.7-6.3-11.6c9.2-2.6,10.9-4.4,12.6-13.1c0.6-3.2,0.6-6.5,1-9.8
					C451.8,233,442,225.5,434.6,223.2z M430.5,204.5c0.5-0.2,1.4-1,2.3-1.1c3.2-0.1,9.1,4.2,9.9,7.4c0.3,1.2,0.1,2.9-0.5,3.8
					c-0.4,0.6-2.4,0.4-3.4,0C434,212.8,430.3,208.6,430.5,204.5z M421.2,166.8c8.2,3,11,8.9,7.4,17.2c-0.5-3.1-0.6-5.5-1.2-7.7
					c-0.6-2.1-0.9-4.8-4.5-4.7c0.9,4,1.7,7.8,2.5,11.6C419.4,177.8,417.2,172.8,421.2,166.8z M169.7,91.7c-2.9-0.7-3.6-1.6-2.1-4
					c2.7-4.6,8.8-9.4,13.9-6.2c0.4,0.3,0.8,0.7,1.3,1.2c-9.7,1.7-10.9,2.3-11.4,5.6c3.9-0.4,7.4-3.5,11.9-1.4
					C179.1,90.5,175.2,93.1,169.7,91.7z M79.1,181c0.4-5.8,5.4-9,12.2-7.3c-3,1.1-5.5,2-8.1,3c0.1,0.6,0.3,1.2,0.4,1.7
					c3.5-0.4,7.1-0.8,10.8-1.2C93.4,180.4,85.7,182.1,79.1,181z M109.7,224.4c0.8,2.3-0.5,3.3-2.5,2.9c-4.1-0.9-8.5-1.5-12.1-3.4
					c-6.7-3.5-13.1-4.7-20-0.6c2.3-5,5.7-8.8,11-10.1c4.4-1.1,9-1.3,13.5-1.9c2.6-0.3,4.7,0.8,5.9,3
					C107.1,217.7,108.4,221.1,109.7,224.4z M105.5,209.1c-4.8,0.1-9.7-0.4-14.4,0.3c-7.8,1.2-9.4,2.3-17.1,8
					c7.3-12.6,18.3-17.1,38.4-13.3C110.9,207.3,108.9,209.1,105.5,209.1z M91.5,341c-0.4,2.5-1.3,3.6-4,2.3
					c-5.3-2.5-9.4-10.9-4.8-15.2c1,4.4-0.3,9.8,5.9,12.3c-1.2-4.4-2.2-8.2-3.2-12.1c0.4-0.1,0.7-0.2,1.1-0.3
					C90.8,331.3,92.3,335.6,91.5,341z M342.1,419.6c0.7,0.3,1.7,1.4,1.7,2.1c-0.6,6.5-9.9,10.7-15.9,6.7c9.8-1.2,10.7-1.7,11.4-5.5
					c-3.7,0.8-7.3,1.5-11.7,2.5C332,419.3,337.2,417.4,342.1,419.6z M432.7,329.9c-1.5,5.7-6.7,9-13.5,7.8c2.9-1,5-1.6,7-2.5
					c0.6-0.3,0.9-1.4,1.3-2.1c-0.8-0.2-1.7-0.7-2.5-0.6c-2.8,0.5-5.5,1.2-8.6,1.9C417.3,329.7,418.4,330.2,432.7,329.9z
					 M417.1,308.3c-0.2,2.2-1.3,3.8-3.7,2.3c-2.7-1.8-5.4-3.7-7.6-6c-1-1-0.9-3.2-0.8-4.9c0-0.6,1.3-1.1,1.6-1.4
					C410.4,298,417.5,305.1,417.1,308.3z M402.2,216.2c0.4-0.3,0.8-0.5,1.2-0.8c2,2.3,4.9,4.3,6,7c1.8,4.6,2.7,9.6,3.7,14.5
					c0.2,1-0.4,2.3-1,3.2c-1.8,2.4-3.6,5.7-7.2,4.5c-3.2-1.1-2.5-4.7-2.6-7.3C402.1,230.2,402.2,223.2,402.2,216.2z M391.3,231
					c0.6-5.7,2.1-11,7.9-14.9c0.2,1.4,0.3,2.2,0.3,3c0.1,7.3,0.3,14.5,0.2,21.8c0,1.2-0.9,2.4-1.4,3.6c-1.3-0.6-2.8-1-3.8-2
					C391.5,239.3,390.9,235.2,391.3,231z M337.6,91.8c-1.1-3-2.1-5.6-3.1-8.2c-0.5,0.1-1.1,0.2-1.6,0.3c0.3,3.5,0.7,7,1,10.4
					c-0.5,0.1-1,0.2-1.5,0.3c-3.3-4.8-1.3-10.7-2.9-15.9C335.4,78.9,339.3,85.1,337.6,91.8z M316,71.6c2.5-0.2,3.4,0.8,3.1,3.3
					c-0.6,6.7-6.8,12.9-13.5,13.5c-1,0.1-2.1,0.3-3.3,0.4C301.6,80.4,308.3,72.3,316,71.6z M311,90.2c4,0.9,7.6,1.4,11,2.5
					c1.3,0.4,2.8,2.1,3,3.4c0.1,0.9-1.5,2.6-2.7,3.3c-6.9,3.5-14.1,3.2-21.1,0.4c-1.4-0.6-3.2-2.4-3.2-3.6c0-1.2,1.9-2.9,3.4-3.4
					C304.6,91.6,308,91,311,90.2z M291.2,68.9c0.6-1.4,2.4-3.2,3.6-3.2c1.1,0,2.8,2,3.3,3.4c1.1,3.3,1.6,6.8,2.4,10.6
					c-1,3.5-1.8,7.2-3.1,10.8c-0.4,1.1-1.9,2.5-2.9,2.5c-0.9,0-2.3-1.4-2.9-2.5C288,83.5,288.1,76.1,291.2,68.9z M290.2,109.2
					c0.1-0.6,1.5-1,2.3-1.2c0.6-0.1,1.4,0.2,2,0.5c5.3,1.7,6.5,0.7,5.6-5.4c1.3,0.2,2.7,0,3.8,0.5c6.5,2.8,12.8,1.1,18.8-1.2
					c2.6-1,4.7-3.6,7.4-5.7c0.3,0.3,1.1,0.9,2.5,2c-1.8,1.8-3.2,4-5.2,5.1c-12.4,6.5-25,12.8-37.6,19.2c-0.7,0.3-1.5,0.3-2.7,0.6
					C288.2,118.4,289.1,113.8,290.2,109.2z M277.7,132c-0.6,2-0.8,3.2-1.3,4.4c-2.9,7.1-2.5,13.7,2.9,19.6c1.4,1.5,2.1,3.6,3.5,6.2
					c-6.1-1.1-11.4-1.4-16.2-3.2c-5.8-2.2-8.7-7.3-9.2-13.5c-0.2-3.5-0.1-7.1-0.1-10.6c0-1.7,0.5-3,2.6-2.9
					C265.6,132.1,271.2,132,277.7,132z M283.9,136.5c5.6,3.7,6.5,16.8,1.4,22.9c-7-7.7-10.5-15.6-5.4-23.1c1,2.2,1.9,4.2,2.7,6.2
					c0.7,2,1.2,4,1.7,6c0.6-0.1,1.2-0.2,1.8-0.4C285.3,144.2,284.6,140.3,283.9,136.5z M260.3,158.6H252c1.3-1.9,2.2-3.4,3.7-5.7
					C257.1,154.7,258.4,156.2,260.3,158.6z M273,129c-5.1,0-10.1,0.7-14.8-0.3c-2.3-0.5-4-4-6.1-6.1
					C257.6,118.5,268.6,122.2,273,129z M251.4,118.3c-2.2,0.3-4.5,0.4-6.7,0.1c-1.3-0.2-3.4-1.3-3.5-2.3c-0.3-1.5,0.3-3.7,1.4-4.9
					c3-3.3,6.7-5.9,9.6-9.3c2.6-3.1,4.6-6.8,6.4-10.4c1.5-2.9,1.6-6.1-0.3-9.1c-1.1-1.8-1.2-3.4,0.5-5.4c1.7-2,2.9-1.3,4.6-0.5
					c0.3,0.1,0.7,0.1,1,0.2c8.5,1.1,12.7,6,12.6,14.8C277.9,108.4,264.3,116.7,251.4,118.3z M277.8,72.3l-2.2,2.2l-2.9-2.9l2.2-2.3
					L277.8,72.3z M273.5,67.5c0,0.1,0.1,0.1,0.1,0.2L273.5,67.5l-3.2,3.4l-0.7,0.8l4.5,4.5l-0.7,0.7l-4.6-4.6l-4.1-0.2l-1.4-0.1
					l-3.1-3.3H258C260.9,63.3,269.7,62.5,273.5,67.5z M254.4,72.3l4.3,0.2l-3.3,4.2l0,0c-0.2,0.3-0.4,0.5-0.5,0.7l0,0l-0.9,1.2h-4.3
					L254.4,72.3z M223.1,79.1c0.1-4,1.2-8,2.3-12c0.3-1.1,1.8-2.6,2.8-2.7c1-0.1,2.8,1.2,3.1,2.3c1.3,3.8,2.2,7.8,3.3,11.9
					c-1,3.6-1.8,7.1-3.1,10.5c-0.4,1.2-2.1,2.7-3.2,2.6c-1.1-0.1-2.8-1.6-3.2-2.8C224.2,85.8,223.1,82.4,223.1,79.1z M203.7,74.4
					c-0.5-3.3,1-4.8,4.3-3.7c6.8,2.2,13.6,6.1,12.8,16.5C212.6,88,205,82.2,203.7,74.4z M210.5,101.6c-3.7-1.2-7.3-2.3-10.8-3.7
					c-1-0.4-1.9-1.8-2-2.9c-0.1-0.8,1.1-2.1,2-2.5c7.5-3.4,15.1-4,22.7-0.4c1.2,0.6,2.7,2.1,2.7,3.2c0,1.1-1.6,2.7-2.8,3.1
					C218.5,99.6,214.6,100.5,210.5,101.6z M217,113c7.1-8.6,13.9-17.4,21.6-25.5c2.8-2.9,7.4-4.3,11.5-5.4c5-1.3,7.6,2.6,5.9,7.5
					c-3.2,9.4-10.3,15.2-18,20.6c-5.3,3.8-11.1,6.6-18.5,7.5c-0.7-0.3-2.3-0.7-3.2-1.7C215.9,115.7,216.4,113.8,217,113z M211.6,125
					c2.9-6,8.2-4.2,13.6-4.1c-7.9,7.4-15.3,14.5-23,21.7c-1.2-1-2.1-1.7-3.4-2.6c4-4.7,8-9.4,12-14.2
					C211,125.5,211.4,125.3,211.6,125z M118.3,243c17.2-2.9,31.1,7.8,31.1,7.8c-2,18.5-17.8,29.3-17.8,29.3s-10-7.2-15.3-15.1
					C110.9,257,118.3,243,118.3,243z M96.5,252.1c4.2-2.6,8.7-4.6,13.1-6.7c1.1-0.5,2.4-0.7,3.3-1c-0.4,5.8-0.7,11.2-1.3,16.5
					c-0.1,1-1,2.4-2,2.8c-8.4,3.8-17.1,5.9-26.3,3.5c-5.9-1.5-10.4-5.1-13.8-10.5C79.8,261.9,88.2,257.3,96.5,252.1z M110.6,286.5
					c-3.6-0.1-6.8,0.4-9.8,3c-2.8,2.5-6.4,3.3-11.1,2.5c1-1.8,1.4-3.6,2.5-4.5c3.2-2.8,6.8-5.2,10.1-7.8c0.6-0.5,1-1.3,1.5-2
					c-1-0.3-2.3-1.2-2.9-0.9c-2.8,1.5-5.3,3.4-8,5c-1,0.6-2.8,1.2-3.6,0.7c-9.2-5.1-16.5-12.1-21.4-21.6c6.7,7.2,15.1,11,24.8,10.2
					c5.5-0.4,11-2.4,16.4-4c2.8-0.8,4.3-0.7,6.2,2.2c2.5,4,6.3,7.2,9.6,10.7c0.8,0.8,1.7,1.5,3.3,2.7
					C121.9,285.2,116.4,286.6,110.6,286.5z M181,432.4c-6.2-1.3-9.5-7.5-6.7-12.5c1.5,5.7,1.5,5.7,4.1,6.9
					c-0.4-3.6-0.7-6.9-1.1-10.5C180.1,417.4,181.9,426.6,181,432.4z M234.4,375.8c3.7-7.1,2.5-14.1-2-20.6c-1.3-1.9-2.7-3.7-4-5.6
					c0.2-0.3,0.5-0.6,0.8-0.9c1.4,0.3,2.9,0.8,4.3,1c8.5,0.9,17,1.9,25.6,2.5c4.7,0.3,4.9,0.2,4.7,5c-0.4,6.5-2.7,12.4-6.6,17.6
					c-0.9,1.2-2.6,1.9-4,2.6c-3.8,1.7-7.9,3-11.6,5c-2.4,1.3-3.8,0.7-5.2-0.9C235.1,379.8,232.8,378.9,234.4,375.8z M227.1,374.2
					c-5.4-3.3-6.2-16.9-1.3-22.3c7.8,8.5,9.9,16.4,5.4,22.7c-1-2.5-1.8-4.6-2.6-6.7c-0.7-2-1.4-3.9-2.2-5.9
					c-0.6,0.2-1.2,0.4-1.8,0.6C225.5,366.5,226.3,370.3,227.1,374.2z M202.2,416.6c4.9,6.6,4.3,7.6-5.4,10.6
					C198.7,423.4,200.4,420.2,202.2,416.6z M204.3,431.3c-1.7,0.1-3.4,0-5.2,0c-0.2-0.4-0.3-0.7-0.5-1.1c2.8-1.5,5.7-3,8.6-4.6
					C209.1,430.4,208.7,431.2,204.3,431.3z M209.4,421.8c-2-1.5-3.4-4.9-3.4-7.5c0-1.9,2.7-3.8,4.2-5.8c0.4,0.2,0.8,0.4,1.2,0.6
					c0.6,1.9,0.9,3.9,1.7,5.6c0.8,1.7,2.1,3.3,3.8,5.7C214.1,421.1,210.7,422.8,209.4,421.8z M214.8,430.8c-3,0.5-3.6-1.8-3.5-4
					c0.2-4.1,4.2-3.3,6.4-3.6c3.6-0.5,1,3.3,2.4,4.5C219.9,431.8,216.8,430.5,214.8,430.8z M216.3,413.8c-0.2-0.4-0.5-0.8-0.7-1.2
					c-2.6-5.3-1.9-7.1,3.6-9.3c3.1,4.1,6.1,8.2,9.2,12.3C224.2,420.1,219.4,419.5,216.3,413.8z M226.8,429.5
					c-2.4,0.5-3.5-0.3-3.8-2.7c-0.7-5.2,0.5-6.6,6.5-7.2C231.2,427,230.7,428.7,226.8,429.5z M231.9,413c-2.3-1.8-4.6-3.6-6.4-5.7
					c-1.3-1.4-1.8-3.5-3-5.8c3.2-1.4,6-2.8,8.6-3.9c1.2,5,2.2,9.1,3.1,13.3c0.1,0.6,0.2,1.6-0.1,1.8
					C233.5,413.1,232.3,413.4,231.9,413z M239.7,424.8c-1.5,1.1-3.5,1.5-5.3,2.2c-0.4-2.1-1.3-4.2-1.1-6.3c0.2-2,1.4-3.8,2.2-5.7
					h1.3c1.6,2.1,3.4,4,4.6,6.3C241.8,422,240.7,424.1,239.7,424.8z M291.6,427.8c-0.8,2.4-2.2,1.4-3.6,1.1
					c-1.5-0.3-3.6-0.1-3.1-2.7c0.4-2,0.8-4.1,1.2-6.4C292.3,421.1,293.3,422.7,291.6,427.8z M302.4,428.3c-0.8,2.6-2.8,3.2-6.2,1.9
					c-2.1-0.8-2.2-2.8-0.2-6.8C302.1,424.6,303.2,425.5,302.4,428.3z M306,426.5c2,1.4,3.8,2.7,5.5,4
					C305.4,431.6,304.9,431.2,306,426.5z M308.7,418.8c0.3-0.1,0.6-0.2,0.9-0.3c1.6,3,3.2,6,4.9,9c-0.3,0.2-0.6,0.5-0.9,0.7
					c-2.1-1.5-4.2-3-6.4-4.5C307.6,422,308.2,420.4,308.7,418.8z M304.9,420.9c-2.1,3.3-4.4,0-7.2,0.1c1.6-3.4,3-6.4,4.5-9.6
					C306.3,413.8,307.3,417,304.9,420.9z M298.3,412.5c-3,6.9-3.5,7.1-10.6,4.1c1.8-4,3.7-8,5.6-12.1
					C298.9,406.9,299.9,408.6,298.3,412.5z M279.7,397.9c1.5,0.6,2.6,0.9,3.6,1.5c2.2,1.3,6.4,3.2,6.2,4c-0.8,3.6-2.8,7-4.7,10.3
					c-0.3,0.5-2.2,0.5-3,0.2c-0.9-0.4-2-1.5-2-2.4C279.6,407.3,279.7,402.9,279.7,397.9z M277.5,423.6c0.6-2.2,1.1-4.5,1.7-6.9
					c3.6,0.5,4,3.1,3.6,5.7c-0.2,1.6,0.2,4.4-3,4.2C277.9,426.4,277,425.7,277.5,423.6z M277.3,404.4c-0.8,14.2-3.4,25.5-10.1,35.6
					c-1,1.6-2.2,3.1-3.5,4.4c-4.1,4-9.3,4.6-14.2,1.6c-4-2.4-6-8.2-4.5-13c1.8-6.1,1.2-11.4-3.3-16.4c-5.6-6.2-8.6-13.3-5.6-22
					c2.9-8.4,9.9-13.8,19-14.4c8.1-0.5,16.4,4.2,19.5,12C276.3,396.7,276.7,401.7,277.3,404.4z M404.8,329.7
					c8,20.4,5.4,40.1-9.1,57.3c-7.6,9-16.6,16.4-28.3,19.6c-2.1,0.6-4.3,1-7,1.7c4.6-3.2,8.8-5.9,12.7-8.9
					c6-4.8,10.3-10.8,12.6-18.3c0.6-1.9,2.3-3.8,4-5.1c5.1-3.9,8.1-8.5,8.1-15.2c0-3.9,1.2-7.8,1.8-11.8c0.2-1.2,0.3-2.7-0.3-3.6
					c-0.3-0.5-2.1-0.2-3.2-0.1c-0.7,0.1-1.6,0.2-2,0.6c-3.3,3.4-6,2.9-8.9-0.6c-1.7-2.1-3.7-1.7-5.2,0.6c-0.7,1-1.4,1.9-2,2.9
					c-1,1.7-2,2.8-4.3,2.9c-2.1,0.1-4.2,1.3-6.1,2.4c-0.5,0.3-0.8,2.1-0.4,2.8c2.8,4.6,5.6,9.2,8.7,13.6c1.5,2.2,3.3,4.4,5.4,6
					c2.3,1.7,2.5,3.4,1.3,5.4c-2,3.6-3.6,7.6-6.3,10.5c-10.4,11.3-23,17.9-38.7,14.8c-6.2-1.2-12-4.5-17.8-7.4
					c-7.2-3.5-14-7.8-21.2-11.3c-7.2-3.5-14.7-5.5-22.9-4c-1,0.2-2.4-0.1-3.3-0.6c-4.1-2.2-8-4.6-12.4-7.2c1.2-2.3,2.8-5.2,4.5-8.2
					c1,1.3,2.1,2.6,3.1,4c6.2,8,18.4,7.6,24.1-0.7c3.1-4.5,1.8-14.7-2.6-18c-1-0.7-3.3-0.7-4.4,0c-5,3.1-7.8,7.7-7.5,13.8
					c0.1,2.5,0.6,6-2.4,6.6c-1.5,0.3-3.9-2.5-5.4-4.2c-3.5-4-2.9-8.9-2.6-13.8c0.1-1.4,0.1-2.8,0.2-3.8c9.3-2.5,18.3-4.9,27.4-7.3
					c0-0.1,0.1,0,0,0.1c-2.8,5.2-2.5,5.8,3.5,7.6c7.3,2.2,14.6,2.3,21.8-0.5c8.2-3.1,10.9-11.2,6.4-18.7c-0.9-1.5-1.6-3.2-2.5-5
					c9.5-0.8,23.7,8.9,21,23.1c-1.2-0.2-2.5-0.4-3.7-0.5c-3.6-0.3-5.2,1.3-4,4.6c1.4,3.7,0.2,5.6-3.3,7.1
					c-5.6,2.4-9.7,6.7-12.8,11.8c-1,1.6-1.9,3.3-2.3,5.1c-0.6,2.6-1.3,6,1.5,7.4c2.1,1.1,5.3,1,7.7,0.4c2.3-0.5,4.3-2.3,6.9-3.8
					c0.3,1.5,0.4,3,0.9,4.3c1.2,3.2,2.2,6.7,4.1,9.6c2.1,3.1,6,3.1,7.9-0.1c1.9-3,2.8-6.6,3.9-9.9c0.4-1.2,0.3-2.5,0.4-4.1
					c3.1,1.4,5.6,2.9,8.3,3.8c6.1,2,9.7-1.2,8.1-7.4c-1.9-7.5-7.2-12.5-13.8-16.2c-0.7-0.4-1.5-0.7-2.5-1.2c0.5-0.7,0.9-1.4,1.4-2
					c3-3.2,2.6-5.5-1.9-6.8c-2.7-0.8-3.6-2.2-3.7-4.7c-0.8-12.9-7.9-20.4-20.2-23.4c-1.1-0.3-2.2-0.6-3.8-1.1c2.9-3.4,5.5-6.4,8-9.4
					c0.5-0.6,1.3-1.2,1.5-1.9c0.3-0.8,0-1.7,0-2.6c-0.8,0.3-1.8,0.4-2.3,0.9c-2.8,3.2-5.3,6.6-8.3,9.6
					c-15.3,15.4-33.7,24.7-55.2,27.4c-20,2.5-39.1-1.2-57-10.8c-11.9-6.4-21.4-15.2-29.8-25.5c-0.7-0.8-1.7-1.4-2.6-2
					c-0.4,0.3-0.8,0.7-1.2,1c1.1,1.8,2.1,3.7,3.5,5.2c1.7,1.9,1.8,3.3-0.5,4.5c-2.8,1.5-5.6,3.1-8.5,4.1c-1.2,0.4-3.2-0.3-4.4-1.2
					c-0.5-0.4,0-2.5,0.5-3.7c0.8-1.9,2.1-3.6,3-5.6c3.6-8.6,1.4-16-6.3-21.5c-1.8-1.3-3-1.4-4.2,0.9c-4.2,8.4-4.8,17-1.4,25.7
					c2.9,7.4,12,11.5,19.8,5.7c1.2-0.9,2.6-1.5,4-2.3c0.8,11.9-10.4,23.2-23.5,21.5c0.2-0.9,0.6-1.7,0.7-2.5
					c0.1-1.5,0.4-3.5-0.3-4.5c-0.6-0.9-2.9-1.3-4.1-0.9c-4,1.5-5.6-0.5-7.4-3.6c-4.2-7.5-9.8-13.7-18.8-15.1c-4.6-0.7-8,3.3-6.3,7.8
					c1.1,2.9,2.9,5.6,4.3,8.4c-3.7,1.1-7.3,2-10.7,3.2c-2.7,0.9-4.6,2.6-4.8,5.8c-0.3,3.3,1.6,4.8,4.2,5.7c3.7,1.3,7.5,2.5,11.5,3.8
					c-1,1.9-2.3,4-3.1,6.2c-1,2.7-1.7,5.7,0.8,7.9c2.6,2.4,5.8,2,8.6,0.5c6.1-3.1,11.5-7,14.1-13.7c0.3-0.7,0.8-1.3,1.4-2.3
					c0.6,0.6,0.8,1.1,1.3,1.4c1.2,0.7,2.6,2.1,3.6,1.8c1.3-0.3,3-1.9,3.1-3.1c0.3-2.6,1.8-3.1,3.7-3.4c15.6-2.2,21.1-7.1,25.1-21.9
					c0.2-0.7,0.5-1.3,0.9-2.5c10.9,10.8,23.3,18.3,37.6,23.5c-0.8,1.7-1.5,3.1-2.2,4.6c-3.4,6.5-3.1,13.1-0.5,19.8
					c1.3,3.4,3.4,5.9,7.2,7.2c2.1,0.7,3.7,2.8,6.1,4.8c-7.8,1.7-14-1.2-20.3-2.4c-1.8-0.4-3.6-1.2-5.4-1.6c-5-1.4-9.1-3.1-8.9-9.7
					c0.1-2.3-2.3-4.7-3.6-7.1c-1.2-2.1-2.7-4.1-3.9-6.1c-1.2-1.9-2.6-2-4-0.5c-0.9,0.9-1.3,2.3-2.1,3.2c-0.9,0.9-2,2-3.1,2.1
					c-2.7,0.2-4,1.4-3.7,4c0.3,2.4-0.5,4-2.4,5.4c-0.9,0.7-1.6,1.7-2.1,2.8c-0.8,1.7-0.2,2.4,1.7,2.8c3.6,0.8,7.3,1.8,10.7,3.1
					c3.3,1.3,6.4,1.4,9.6,0c0.9-0.4,2.1-0.8,3-0.5c6.1,2.2,12.1,4.5,17.6,6.7c-12.2,6.3-24.5,13.1-37.3,19.2c-10,4.7-20.8,5-31.5,3
					c-18.6-3.4-31.3-15.2-40.7-30.7c-2.8-4.6-3.9-10.1-5.1-15.4c2.9,4,5.6,8.2,8.8,11.9c4.8,5.6,10.6,10,17.9,12
					c1.7,0.4,3.3,1.9,4.4,3.3c4.9,6.1,10.9,9.4,18.9,9.1c3.2-0.1,6.5,0.9,9.7,1.6c2.7,0.6,3.6-0.1,2.9-2.8c-0.2-0.8-0.4-1.7-0.8-2.3
					c-2.2-3.6-2.6-6.8,0.8-10.2c2.2-2.1,0.2-4.4-1.9-5.4c-3.5-1.6-5.4-3.9-5.3-7.8c0-0.6-0.4-1.3-0.7-2c-2.1-4.4-2.4-4.3-6-0.9
					c-2.2,2-5,3.4-7.5,5.1c-3.5,2.5-7.2,4.9-10.4,7.7c-1.5,1.3-2.5,1.7-4.3,1.1c-11.1-3.4-18-11.3-22.8-21.2
					c-2.2-4.7-3.3-10.1-4-15.2c-1-7.2,1.6-13.9,4.9-20.2c4.8-9.3,9.8-18.4,14.8-27.7c0.1-0.1,0.1-0.2,0.1-0.3
					c1.6-11.1,10.2-15.2,19-18.9c3.3-1.4,7-2,10.6-2.3c2.9-0.3,6.1,2.6,6.2,4.8c0.2,2.9-2.2,5.8-5.5,6.5c-2.8,0.6-4.5-0.5-5.6-4
					c1.1-0.8,2.1-1.7,3.2-2.6c-0.2-0.4-0.3-0.9-0.5-1.3c-1.5,0.4-3.8,0.4-4.2,1.3c-0.9,1.7-1.4,4.2-0.7,5.8c1.3,3.2,4.5,3.8,7.8,3.5
					c4-0.3,6.7-2.6,7.9-6.1c1-3,0.6-6.1-2.1-8.4c-4.2-3.7-8.9-3-13.7-1.7c-0.5,0.1-1,0.4-2.4,0.9c1.5-2.8,2.7-4.7,3.6-6.8
					c2-4.9,3.9-9.8,5.9-14.7c1-2.6,0.4-4.9-2.1-6c-5.9-2.6-11.8-5-17.8-7.3c-1.5-0.6-3.2-0.6-4.9-0.8c2.1-5.2,4.4-6.2,9.3-4.5
					c6.7,2.4,12.9,1.5,18.7-2.8c2.3-1.7,5-2.9,7.7-4c2.3-0.9,2.2-2.1,0.8-3.3c-8.7-7.6-22.3-7.2-29.3-0.9c-0.8,0.7-1.2,2-1.8,2.9
					c-1.5,2.4-3.1,4.7-4.7,7.1c-0.5-0.2-1.1-0.4-1.6-0.5c0.2-3-0.1-6.2,0.6-9.1c1.7-6.6,3.8-13.1,5.8-19.6c0.9-2.9,2.4-4.2,5.8-4.5
					c2.9-0.2,5.9-2,8.6-3.4c2.4-1.2,4.4-3.2,6.7-4.5c2.2-1.2,2-2.4,0.5-3.8c-0.9-0.9-2.1-1.5-3.1-2.3c-0.6-0.5-1.6-1.1-1.6-1.7
					c-0.2-4.4-2.8-5.2-6.5-4.9c-0.8,0.1-1.6-0.9-2.4-1.5c-1.1-0.9-1.9-2.1-3.1-2.8c-1.6-0.9-2.8-0.5-3.2,1.7
					c-0.6,2.8-1.5,5.6-2.5,8.3c-1.5,4.1-3.1,8.2-0.4,12.5c0.3,0.5,0.5,1.4,0.3,2c-2.2,6.1-4.4,12.3-6.7,18.5
					c-2.8-5.7-5.5-11.4-8.4-17c-2.5-4.8-5.3-9.4-7.8-14.2c-6.5-12.1-8.7-25-5.9-38.6c3.9-18.9,15.6-32.1,32.2-41.1
					c4.3-2.3,9.3-3.3,14.3-4.1c-3.5,2.4-7.2,4.7-10.6,7.2c-6.4,4.7-11.1,10.7-13.5,18.5c-0.6,2-2.1,4-3.7,5.2
					c-5.7,4.4-8.9,9.7-9,17.1c0,3.4-1,6.9-1.6,10.3c-0.2,1-0.3,2-0.4,3.2c3.4,0.8,6.3,0.7,8.7-1.7c1.4-1.5,2.6-1.3,3.9,0
					c0.8,0.8,1.7,1.7,2.7,2.3c2.3,1.4,4.6,1.5,5.8-1.4c1.4-3.5,3-6.1,7.5-5.5c1.3,0.2,3.1-1.1,4.3-2.1c0.6-0.4,0.9-2.1,0.6-2.7
					c-3.5-5.4-7.1-10.7-10.7-16c-0.7-1-1.4-2.1-2.4-2.6c-4.3-2-3.2-5-1.7-8.2c7.7-16.7,28.4-28,44.7-23.2
					c8.6,2.5,16.5,7.4,24.6,11.3c3.8,1.9,7.3,4.1,11.2,6.4c-5.6,7-11.8,13.2-16.2,20.1c2.3,1.7,3.9,2.8,5.4,4.1
					c1.9,1.6,3.1,0.3,4.3-0.8c5.6-5.2,11.2-10.5,16.8-15.7c2.5-2.3,4.8-5,7.6-6.9c1.9-1.2,4.5-1.7,6.8-1.7c3.1-0.1,6.3,0.8,9.4,1
					c5.8,0.4,6.3,0.7,8.1,7c-1.3,0.1-2.6,0.2-3.8,0.2c-5.1,0-10.2-0.1-15.2,0.1c-1.7,0.1-3.3,0.9-5,1.3c1.6,0.5,3.2,1.3,4.8,1.4
					c5.8,0.2,11.6,0.2,17.3,0c3.4-0.1,4.4,1.2,4.1,4.3c-0.2,2.9,0,5.9-0.1,8.9c-0.3,8-5.1,13.1-12.8,14.8
					c-8.3,1.7-16.6,4.1-24.9,6.1c0.1,0.3-0.1,0.1,0-0.1c2.7-5.4,2.2-6.4-3.8-7.9c-6.9-1.7-13.8-2.1-20.6,0.2
					c-8.8,3-11.6,10.7-7.4,19c0.7,1.5,1.6,2.9,2.3,4.3c0.1,0.2-0.1,0.7-0.1,1c-13.7,0.4-23.6-14.3-20.3-23.6c1,0.2,2,0.5,3,0.8
					c3.7,0.8,5.9-1.1,4.5-4.6c-1.5-3.8-0.1-5.6,3.3-7.1c7.1-3,11.6-8.7,14.7-15.5c1.4-3,1.7-6-0.6-8.6c-2.3-2.5-5.2-1.6-7.9-0.4
					c-2.3,1-4.6,2.2-7.1,3.5c-0.8-3.2-1.3-6-2.2-8.7c-0.6-1.7-1.4-3.5-2.7-4.9c-2.9-3.4-7.2-2.8-9.2,1.2c-1,2-1.9,4.1-2.5,6.2
					c-0.5,2-0.6,4.1-0.9,6.6c-2.3-1.1-4.3-2.3-6.4-3c-1.9-0.6-3.9-0.9-5.9-0.9c-2.8,0-4.3,1.6-4.3,4.4c-0.2,7.4,4.5,12.1,9.5,16.5
					c2.1,1.8,4.6,3.1,7,4.7c-0.2,0.2-0.7,0.4-0.9,0.8c-0.7,1.5-2,3-1.8,4.4c0.2,1.1,2,2.6,3.3,2.9c2.3,0.6,3.3,1.7,3.3,3.8
					c-0.1,12.3,9.2,23.5,23,24.7c0.3,0,0.6,0.3,1.1,0.6c-2.7,5.1-8.3,8.1-10,13.7c0.3,0.3,0.6,0.6,0.9,0.8c0.8-0.5,1.7-0.9,2.3-1.6
					c14.1-18.5,32.9-30.1,55.3-35.5c13-3.1,26.2-3,39.3-0.1c21.8,4.8,39.7,16.1,54.1,33.1c1.2,1.4,1.5,4.3,5.3,3
					c-2-2.7-3.7-5.2-6-8.3c3.9-1.9,7.5-3.9,11.3-5.3c1.3-0.5,3.2,0.6,4.9,1c-0.4,1.5-0.5,3.1-1.1,4.5c-1.3,3-3.3,5.7-4.3,8.8
					c-1.4,4-0.4,7.9,2.4,11.4c0,0,0.9,1,2.4,2.3c1.6,1.5,3.9,3.3,6.5,4.9c0-0.1,0.1-0.2,0.1-0.3c0.1-0.1,0.1-0.3,0.2-0.4
					c3.3-5.1,4.4-10.8,3.9-16.5c-0.4-4.2-1.4-8.6-3.2-12.5c-3-6.3-10-8.1-16.3-4.8c-2.1,1.1-4.1,2.1-6.3,3.3
					c0.3-13.6,11.2-23.4,23.8-21.2c-0.3,1.1-0.7,2.2-0.9,3.2c-0.8,3.2,1,5.5,4.2,4.4c4.2-1.3,5.9,0.2,7.8,3.8
					c3.4,6.7,8.8,11.6,15.9,14.3c2.7,1,5.5,1.8,7.9-0.7c2.4-2.5,1.4-5.4,0.5-8c-0.9-2.3-2.3-4.3-3.7-6.9c1.6-0.4,3.1-0.6,4.5-1.1
					c3.2-1.2,6.6-2,9.3-3.9c3.4-2.3,3.1-6.7-0.6-8.7c-2.9-1.6-6.3-2.2-9.6-3.2c-1.1-0.3-2.3-0.3-3.9-0.4c1.4-3,3-5.7,3.7-8.5
					c0.5-2.2,0.2-5-0.8-6.8c-1.4-2.4-4.2-1.8-6.8-1.1c-8.5,2.5-13.2,8.9-17.3,16.3c-0.7-0.7-1.3-1.5-2-2c-2.6-2-5.4-1.3-6.3,1.8
					c-0.8,2.9-2.7,3.8-5.4,4c-11.3,0.8-19.2,7.4-22.3,18.4c-0.5,1.7-1.2,3.3-2,5.4c-3.1-2.6-5.9-4.9-8.8-7.3
					c-7.9-6.5-16.7-11.5-26.4-14.7c-2.3-0.8-2.4-1.8-1.3-3.6c5.1-8,5.1-16.2,0.4-24.3c-1.1-1.9-3.5-3.2-5.4-4.6
					c-1.9-1.5-4-2.9-5.9-4.3c0.2-0.5,0.4-0.9,0.6-1.4c2.8,0.2,5.8,0,8.5,0.7c6.8,1.7,13.6,3.8,20.3,5.8c2.8,0.8,3.7,2.8,4.1,5.8
					c0.3,2.6,1.8,5.2,3.1,7.6c1.3,2.4,3.2,4.4,4.5,6.7c1.4,2.6,2.9,3.2,4.6,0.9c1.9-2.6,3.5-5,7.1-5.4c0.6-0.1,1.5-1.8,1.5-2.7
					c-0.1-2.6,0.1-4.9,2.8-6.2c0.7-0.4,1.3-1.4,1.6-2.2c0.8-1.6,0.3-2.4-1.6-2.9c-4.1-1-8-2.6-12.1-3.5c-2.5-0.5-5.3-0.2-7.9-0.3
					c-1.8,0-3.6,0.4-5.2,0c-5.3-1.6-10.4-3.5-16.2-5.4c1.3-0.7,2.1-1.2,3-1.7c9.4-4.8,19.1-9.2,28.2-14.5c18.8-11,45.1-9.1,62.3,5.1
					c8.9,7.3,16.1,15.9,20,26.9c1.1,3.1,1.6,6.3,2.5,10.4c-2.9-4.6-5.1-8.5-7.8-11.9c-5.1-6.6-11.3-11.9-19.7-14.1
					c-1.2-0.3-2.7-0.9-3.3-1.9c-5.1-8.4-12.9-11-22.2-10.6c-2.3,0.1-4.8-0.8-7.1-1.8c-2.6-1.1-3.4-0.1-3.2,2.2
					c0.2,1.8,0.6,3.9,1.6,5.2c1.8,2.2,1.5,3.8-0.2,5.8c-3.4,4.1-3.2,5.5,1.6,7.9c2.4,1.2,3.3,2.8,3.6,5.4c0.3,2.1,1.4,4.2,2.5,6.1
					c0.3,0.4,2.3,0.3,3.1-0.2c3.9-2.3,7.8-4.8,11.5-7.4c2.7-1.9,5.4-3.8,7.5-6.3c1.4-1.7,2.5-2.1,4.4-1.5
					c7.2,1.9,12.5,6.7,17.1,12.1c6.4,7.5,10.2,16.3,10.2,26.4c0,7.4-3.4,13.6-6.8,19.8c-4.6,8.3-9.2,16.6-13.4,25.2
					c-1.7,3.6-2.2,7.8-3.5,11.7c-1.8-4.4-1.9-8.8-1.2-13.4c0.2-1.6,0.6-3.3,0.7-4.9c0.2-5.7-1.5-7.5-7.2-8.4
					c-1.2-0.2-2.4-0.8-3.4-1.5c-4.8-3.2-8.9-1.9-9.9,3.9c-0.7,4.2-0.6,8.6-0.4,12.9c0.2,3.4,2.8,4.8,5.9,4.8c3.2,0.1,4.4-2.1,4.9-5
					c0.4-3,1-6,1.7-9c0.3-1.1,1.2-2.1,1.8-3.2c1.3,0.9,2.8,1.8,3.9,2.9c0.4,0.4,0.2,1.6,0.1,2.4c-0.4,6-0.9,12.1-1.4,18.4
					c-5.4-1.2-10.9-0.1-16,3c-3.6,2.2-6.4,4.8-7.9,8.2c-0.9,2-1.4,4.3-1.3,7c0,0.9,0.1,1.9,0.1,2.9c0.3,4.4,0.6,8.9,1.7,13.1
					c1.3,5.1,4.9,9.4,11.5,8.9c0.9-0.1,1.8,0.2,2.9,0.3c-1.3,3.7-2.2,7.2-3.7,10.5c-1.4,3.1-1.1,4.9,2.5,5.5
					c0.7,0.1,1.4,0.7,2.1,1.1c-1.6,4.4-8.9,9.4-12.7,8.9c-4.2-0.5-5.7-1.9-6.1-5.7c-3,0.1-5,4-4.4,7.2h8.3c0.1,0.4,0.3,0.8,0.4,1.3
					c-2.1,3-4.3,5.9-6.1,9.2c-0.8,1.5-1.1,3.8-0.6,5.4c0.3,0.8,3.3,1.5,4.5,0.9c1.1-0.5,2.2-2.9,1.9-4.1c-1.1-5,0.2-9,5.3-11.2
					c5.1-2.3,8.9-5.9,12.8-9.7c1.9-1.9,5.4-2.1,9.1-3.4c-0.7,4-1,6.9-1.8,9.6c-1.6,5.2-3.4,10.2-5.5,15.3c-0.4,1-1.9,2-3,2.1
					c-4.2,0.3-7.7,2-11,4.4c-2.1,1.5-4.2,2.9-6.5,4.2c-1.5,0.9-2.3,1.8-0.8,3.2c1.2,1.1,2.5,2,3.7,3.1c0.7,0.7,1.8,1.5,1.8,2.2
					c0,3.4,2.4,4.2,4.9,4.3c2.2,0.1,3.6,0.5,5,2.5c0.8,1.2,2.9,1.6,4.1,2.2c1.7-5.5,3.6-10.4,4.7-15.5c0.5-2.4-0.4-5.2-0.7-7.8
					c-0.1-0.7-0.4-1.4-0.2-2c2-5.7,4-11.3,6-16.9c0.1-0.3,0.4-0.6,0.5-0.8C392.2,305.4,399.8,317,404.8,329.7z M384.6,369.7
					c0.1,1.4-0.3,2.7-0.4,4.1c-4.3-1-10.4-9.6-13.7-19.3c2.5,0.2,4.4,0.6,6.3,0.4c1-0.1,2.2-1,2.8-1.9c0.7-1,0.7-2.5,1.2-3.6
					c0.7-1.8,2.3-2.4,3.6-1c3.8,3.9,7.4,5,11.3-0.6c0.2,0.3,0.4,0.7,0.7,1c-1,6.3-1.6,12.8-3.1,19c-0.5,2.2-3.2,3.9-4.9,5.8
					c-0.3-0.2-0.6-0.3-0.9-0.5c-0.4-4.7-0.7-9.5-1.1-14.2c-0.1-1-0.9-2-1.4-3c-0.4,1-1,2-1,3C384.1,362.5,384.4,366.1,384.6,369.7z
					 M286.1,364.3c-0.7,0.8-1.5,1.5-2,2.4c-0.9,1.7-1.6,3.4-2.4,5.2c-2.2-5.3-1.7-9.9,1.9-13.8c2.4-2.6,3.6-2.4,5.2,0.7
					c3.1,6.3,1.3,13.1-4.6,15.3c1-2.2,2.1-4.3,2.8-6.5C287.2,366.6,286.4,365.4,286.1,364.3z M319.1,346.6c-2.9-0.5-5-0.9-7.2-1.1
					c-2.4-0.3-4.9-0.7-7.3-0.6c-1.2,0-2.4,0.7-3.6,1.2c1.2,0.7,2.3,1.7,3.6,1.9c2.8,0.5,5.6,0.5,8.4,0.9c1,0.1,2,0.7,2.9,1.5
					c-6.3,1.9-12.5,1.3-18.5-0.9c-2.4-0.9-0.9-2.6,0.3-3.5C304.8,340.5,309.9,339.5,319.1,346.6z M307.7,337.2
					c3.5-2.6,7.6-5.5,12.6-9.1c1.7,4.4,3.4,8.3,4.6,12.2c0.3,1.1-0.1,3.2-0.9,3.7c-0.8,0.5-2.6-0.1-3.8-0.6
					C316,341.5,311.9,339.3,307.7,337.2z M343.1,373.6c6.5,6.3,7.6,13.9,3,21.3c-0.6,0.9-2.2,2.2-2.6,2c-1.5-0.8-3.2-1.9-3.8-3.3
					C336.8,386.4,336,379.4,343.1,373.6z M324.7,385.5c-0.3,0.1-0.7,0.1-1.1,0.1c-2.7,0.1-3.6-1.8-2.8-3.9c2.8-8.3,8-14.5,16.7-17.1
					c2.7-0.8,4.5,0.7,4.1,3.3C340.5,374.3,331.1,384.3,324.7,385.5z M344.6,367.6c-0.2-2.7,0.9-3.7,3.4-3.2
					c5.3,0.9,9.4,3.9,12.5,7.9c2.1,2.7,3.6,6,4.9,9.2c0.8,2.1-0.3,3.8-2.8,3.7C356,385.1,344.8,373.8,344.6,367.6z M164.4,300.4
					c-1.1,5.7-2,10.8-3,15.9c-0.3,0-0.6-0.1-0.9-0.1c-1.5-6.4-1.4-12.7,1-18.9c0.1-0.3,2.4-0.4,3,0.1c3.9,3.3,7.5,10.1,3.2,16.3
					c-0.9,1.4-1.7,2.9-2.5,4.3c-0.2-0.1-0.4-0.3-0.6-0.4c0.4-5.2,0.8-10.4,1.2-15.6C165.8,301.8,165.3,301.4,164.4,300.4z
					 M136,341.4c0.6,0.5,0.7,2.5,0.3,2.9c-2.9,2.2-5.6,4.9-9.7,4.7c-3.1-0.8-6.2-1.3-9.1-2.4c-1.3-0.5-2.7-2.2-2.9-3.5
					c-0.1-0.9,1.6-2.5,2.9-3.1C123.8,337,130.2,335.9,136,341.4z M125.9,325.5c-1.2-3.1-0.1-5,3.6-4.9c1.5,0.8,3.8,1.9,6,3.2
					c4.9,2.9,8.7,6.8,10.5,12.3c0.5,1.4-0.1,3.1-0.1,4.7c-1.7-0.1-3.5,0.2-5-0.4C133.9,337.6,128.7,332.7,125.9,325.5z M134.3,349.3
					c2.1-1.8,4.7-3.2,7.2-4.3c1.3-0.5,3.5-0.4,4.5,0.3c0.7,0.6,0.7,2.9,0.2,4.2c-2.8,7.4-8.1,12.6-15.3,15.7c-3,1.3-4.7-0.1-4.6-4.5
					C127.3,356.6,130.5,352.7,134.3,349.3z M196.1,377.3c-6.6,1.4-10.8-2.9-15.6-4.2c1-1.6,2.2-2.7,2.6-4c0.4-1.5,0.1-3.2,0.1-5.1
					c3.5,1,6.5,1.2,6.7-3.8c3.8,4,8.6,7,8,13.8c-3.4-2.2-6.3-4.2-9.3-6.1c-0.2,0.3-0.5,0.6-0.7,0.9
					C188.6,373,193.5,373.6,196.1,377.3z M157.9,379.5c0.5,0.1,0.9,0.1,1.4,0.2c4.9,1.5,5.6,3.4,1.7,6.5c-3,2.4-2.8,4.1-0.3,6.4
					c0.6,0.6,0.9,1.6,1.4,2.4c-12,2.1-20.6-0.7-24.5-8.3c4.5,0,8.6,0,12.7,0c0.8,0,1.7,0.2,2.5-0.1c0.8-0.3,1.5-1,2.3-1.5
					c-0.8-0.5-1.6-1.3-2.4-1.3c-2.7,0-5.4,0.2-8.1,0.3c-2.4,0.1-4.8,0-7.2,0c-0.2-0.4-0.3-0.9-0.5-1.3c2.1-3.1,5.3-4.8,8.6-6.5
					c3.3-1.7,6.5-3.6,10.5-5.9c0,2.2,0.3,4.2-0.1,5.9C155.4,378.3,156,379.1,157.9,379.5z M142.9,225.6c-2.1,0.5-4.2,1.3-6.5,2
					c4.4-5.8,17.2-7.3,23-1.7c-11.5,8.5-16.8,9.9-23.1,4.9c4.7-1.5,8.6-2.7,12.8-4C147.1,223.8,144.9,225.1,142.9,225.6z M139,190
					c-1.4,1.8-2.8,3.7-4.2,5.5c-2.9-2.4-2.2-5.5,3.5-15.8c1,5,4.6,3.2,8,3.1c0.1,1.9,0.2,3.7,0.3,5.7c1.7,0.4,3.1,0.7,5.4,1.2
					c-4.7,4-7.9,8.5-14.4,8.2c1-2.5,1.9-4.8,2.8-7C140,190.5,139.5,190.3,139,190z M127.2,136.9c3.8,1.1,12.7,15.2,12.3,19.3
					c-0.2,0.1-0.4,0.3-0.6,0.3c-2.1,0.1-7.7,3.7-9.1,5.4c-0.5,0.6-1.9,0.8-2.8,0.7c-0.7-0.1-1.4-0.8-1.9-1.5
					c-2.3-3.1-4.7-3.1-7.2-0.2c-0.4,0.4-1,0.6-2.5,1.5c0.6-6.5,0.6-12.3,1.9-17.8c0.6-2.8,3.7-5,6.1-8.1c0.4,6.3,0.7,11.3,1.2,16.3
					c0.1,0.7,1.1,1.4,1.7,2.1c0.3-0.8,0.9-1.7,0.9-2.5C127.3,147.2,127.2,142.1,127.2,136.9z M193.2,164.9
					c5.8-0.8,11.6,3.1,17.2,0.2c0-0.4,0.1-0.8,0.1-1.2c-5.2-0.8-10.5-1.7-15.7-2.5c0-0.3,0.1-0.6,0.1-0.9c6.7-1.4,13.3-1,19.9,1.7
					C209.6,170.5,199.2,171.8,193.2,164.9z M203.5,173.7c-3.4,2.6-7.4,5.6-12.2,9.2c-1.9-4.3-3.9-8.3-5.4-12.3
					c-0.3-0.9,0.6-2.8,1.5-3.5c0.7-0.5,2.4,0,3.4,0.5C195,169.5,199.1,171.5,203.5,173.7z M169.8,135.7c-0.5,0.5-0.8,1.1-1.4,1.9
					c-6.5-5.6-8-14.5-3.5-21.2c0.6-0.9,2.1-2.1,2.6-1.9c1.4,0.6,3,1.7,3.6,3C173.8,123.7,175.3,130,169.8,135.7z M185.6,125.8
					c3.6-1.3,5.1,0.2,4.5,4c-1.2,6.4-10.2,15.5-16.7,16.8c-2.5,0.5-3.7-0.7-3.6-4.7c0.5-0.9,1.3-2.7,2.2-4.4
					C175.1,132,179.7,128,185.6,125.8z M166.5,144.2c0,0.7-0.1,1.4-0.3,2.3c-5,0.9-8.6-1.4-11.9-4c-4.1-3.1-7.2-7.1-8.6-12.1
					c-0.8-2.8,0.2-4.3,2.8-4.2C155.4,126.2,166.6,137.4,166.5,144.2z M344.9,206.6c0.1,1.2,0.9,2.3,1.4,3.4c0.5-1.2,1.4-2.3,1.6-3.5
					c0.7-4,1.2-8,2.4-11.9c1.7,6.9,2,13.7-1.4,20.3c-8.7-5.2-9.7-14.7-2.1-21.5c-0.4,2.5-0.9,5-1.3,7.6
					C345.2,202.9,344.8,204.8,344.9,206.6z M373.9,168.1c5.4-7.1,12.2-6.9,19.4-4c1.5,0.6,3.1,2.3,3.6,3.8c0.2,0.7-1.7,2.6-3.1,3.4
					C385.9,175.5,380.4,174.6,373.9,168.1z M385.5,186.6c0.3,3.5-1.5,4-3.8,3.8c-6-0.6-16.4-11-17.1-16.9c-0.3-2.6,0.8-4,3.4-3.6
					C375,170.8,384.8,179.6,385.5,186.6z M368.6,166.6c-0.5,0.1-0.9,0.1-2.4,0.2c-0.3-0.5-1-1.3-1.6-2.2c-0.2-0.3-0.1-0.7-0.1-1
					c0.2-6.6,10.4-17.5,17-17.9c2.5-0.2,3.9,0.5,3.5,3.3C384.1,155.3,374.8,165.3,368.6,166.6z M315.2,133.8
					c6.1-1.7,10.3,2.8,16.3,3.8c-4.8,2.1-3,5.7-3.1,9h-5.5c-0.6,1.7-1.1,3.1-1.9,5.4c-2.9-5.1-8.3-7.9-7.8-15.2
					c3.5,2.4,6.3,4.4,9.8,6.8C323,137.9,317.4,137.7,315.2,133.8z M352.5,131.5c-5.4-1.3-5.8-2.8-2.1-7c1.8-2,1.9-3.9,0-5.9
					c-0.6-0.7-1.1-1.4-2-2.6c14.7-0.2,20.5-0.6,24.9,8c-2.3,0-4.2-0.1-6.1,0c-2.9,0.1-5.9,0.2-8.8,0.5c-0.7,0.1-1.3,1.2-2,1.9
					c0.8,0.2,1.6,0.5,2.4,0.5c5.1,0,10.2,0,15.3,0c0.2,0.4,0.4,0.9,0.6,1.3c-1.9,1.6-3.5,3.5-5.6,4.8c-3.4,2.1-6.9,4-10.5,5.8
					c-1,0.5-2.1,0.6-3.2,0.9c-0.3-1.3-1.2-2.9-0.8-4C356.1,133,355.4,132.2,352.5,131.5z M372.7,199.8c-0.5,4.5-1.6,8.9-2.7,13.3
					c-0.1,0.2-2.9,0.3-3.2-0.2c-0.9-1.7-1.2-3.7-1.5-4.8c0.4-3.4,0.5-6.1,1.2-8.5c0.3-1.2,2.2-3,2.7-2.9
					C370.6,197.3,372.8,198.8,372.7,199.8z M359.2,321.1c5-2.8,7.6-8.9,15.3-7.8c-2.5,3.5-4.7,6.4-6.8,9.4c0.3,0.3,0.6,0.5,0.9,0.8
					c4-1.1,5.6-4.9,8.1-7.7c2.1,1.7,0.1,9.7-4.3,15.4c-0.7-6.3-5.2-1.7-7.8-3.5C365.5,323.6,364,321.2,359.2,321.1z M390,275.3
					c-3.5,2.7-7.8,4.4-12,6.1c-1.4,0.6-3.2,0.1-4.9,0.1c-0.1-0.3-0.3-0.6-0.4-0.9c5.8-4.4,11.6-8.7,18.4-13.8
					C390.7,270.4,391.4,274.2,390,275.3z M388,264.6c-5.1,4.6-10.6,8.8-15.9,13.2c-0.4-0.4-0.7-0.8-1.1-1.2
					c1.2-5.4,3.2-10.1,8.6-12.8c3.6-1.9,7-4.2,10.4-6.3c0.4,0.2,0.7,0.4,1.1,0.7C390.1,260.3,389.6,263.1,388,264.6z M375.5,247.4
					c-0.1,0.5-0.2,0.9-0.3,1.4c2.9,0.7,5.9,1.3,8.8,2c0,0.2-0.1,0.5-0.1,0.7c-1.6,0-3.2-0.1-4.8,0.1c-0.7,0.1-1.3,0.6-2,1
					c0.6,0.6,1.2,1.6,1.9,1.6c2.8,0.2,5.6,0.1,9,0.1c-6.6,6.2-13.8,10.1-22.8,9.4c-1.4-0.1-3.2-1.6-4-2.9
					c-3.7-6.3-4.8-13.3-3.8-20.4c1.2-7.8,10.5-15,18.2-14c2.4,0.3,5.3,1.5,6.7,3.3c4.2,5.4,7.7,11.4,11.9,17.8H375.5z M401.1,286.1
					c-3.4-0.5-5.4-2.8-6-5.6c-1.4-5.9-3.7-12.1,2.5-17.1c-0.7,3.5-1.5,6.9-1.9,10.2c-0.2,1.7,0.3,3.5,0.7,5.2
					c0.2,0.7,1.1,1.2,1.7,1.8c0.4-0.8,1.1-1.7,1.2-2.5c0-2.7-0.3-5.3-0.2-8c0-1.1,0.8-2.3,1.2-3.4c0.3,0.1,0.6,0.1,0.9,0.2V286.1z
					 M400.8,260.5c-2.5-3.3-4.5-1.8-6.4,1c-0.3-0.4-0.6-0.7-0.9-1.1c0.8-1.4,1.8-4,2.4-3.9c2,0.3,3.8,1.6,5.7,2.5
					C401.3,259.6,401.1,260,400.8,260.5z M400.4,252.8c-0.4-0.5-0.8-1-1.2-1.4c1.1-1,2.3-2,3.4-3c0.5,0.7,0.9,1.4,1.4,2.1
					C402.8,251.2,401.6,252,400.4,252.8z M411.3,276.1c-0.4,3.9-0.6,8.5-6.5,9.4c-0.6-6.6-2.4-13.1-0.4-19.7c0.3-0.1,0.7-0.1,1-0.1
					c0.7,3.5,1.2,7.1,2,10.6c0.2,1,1,1.9,1.5,2.8c0.5-1,1.5-2.1,1.4-3c-0.4-3.3-1.1-6.6-1.4-9.9
					C412.7,268.7,411.7,272.7,411.3,276.1z M414.3,265c7,5.1,13.9,10.1,20.4,14.8C425.3,281.5,413.3,273.5,414.3,265z M437.8,276.7
					c-6.7-0.5-23-14.4-24.4-21.4c1.8,1.3,3.1,2.4,4.6,3.2c4,2.2,8,4.4,12.1,6.2C434.3,266.6,437.8,271.8,437.8,276.7z M447.4,246.6
					c-0.5,3.6-1.2,7.2-2.2,10.7c-1.2,4-3.7,5.9-7.8,5.8c-5.9-0.1-10.9-2.7-16.2-5.7c2-0.9,3.3-1.4,4.7-2c-1.4-0.6-2.8-1.3-4.3-1.8
					c-1.4-0.5-2.8-0.7-4.2-1.9c4.1-0.9,8.2-1.8,12.3-2.8c-0.1-0.6-0.2-1.1-0.2-1.7c-6.2-0.9-12.7,2.9-18.8,0.2
					c3.5-5.8,6.7-11.7,10.5-17.3c4.9-7.1,11.1-5.2,16.5-2.5C445.6,231.7,448.7,237.8,447.4,246.6z"/>
			</g>
			<g>
				<path class="st8" d="M130.3,246.3c-2.8,0-5.1,2.3-5.1,5.1c0,2.8,2.3,5.1,5.1,5.1c2.8,0,5.1-2.3,5.1-5.1
					C135.4,248.6,133.1,246.3,130.3,246.3z M130.3,254.5c-1.7,0-3-1.4-3-3c0-1.7,1.4-3,3-3c1.7,0,3,1.4,3,3
					C133.3,253.1,131.9,254.5,130.3,254.5z"/>
			</g>
		</g>
		<g>
			<g>
				<path class="st8" d="M240,175.5l-3.9,0.6l-0.2-1.5l9.5-1.5l0.2,1.5l-3.9,0.6l2,12.3l-1.8,0.3L240,175.5z"/>
				<path class="st8" d="M260.8,186.5l-1.8,0l-0.1-6.3l-6.2,0.1l0.1,6.3l-1.8,0l-0.2-13.9l1.8,0l0.1,6.2l6.2-0.1l-0.1-6.2l1.8,0
					L260.8,186.5z"/>
				<path class="st8" d="M268.1,173.4l7.5,1.2l-0.2,1.5l-5.7-0.9l-0.7,4.5l5.1,0.8l-0.2,1.5l-5.1-0.8l-0.8,4.8l5.7,0.9l-0.2,1.5
					l-7.5-1.2L268.1,173.4z"/>
			</g>
		</g>
		<g>
			<path class="st8" d="M164.7,210.8v8.8H188V293h10.6v-73.3h23.2v-8.8H164.7z"/>
			<path class="st8" d="M293.5,301.4c-0.6,0-1.3,0-1.7,0c-3.8,0-7.2-1.2-16-3.8c-5.5-1.6-8.9-2.9-12.4-3.4
				c13.3-2.2,21.8-12.2,22.5-26.6c0.5-10.8,0.5-21.6,0-31.8c-0.7-16.3-11.7-26.8-28.4-26.8c-16.5,0-27.7,10.4-28.4,26.8
				c-0.5,10.2-0.5,21,0,31.8c0.6,14,8.8,23.8,21.4,26.4c4.3,1.5,10.2,5.3,20.5,10.2c4,1.9,7.6,3.6,11,4.6c1.5,0.5,3,0.8,4.5,0.9
				c2.8-1.6,5.5-3.4,8-5.4v-3C294.3,301.3,293.9,301.4,293.5,301.4z M239.7,267.5c-0.4-11.4-0.2-22.4,0-31.5
				c0.4-11.5,7.2-18.2,17.8-18.2c10.7,0,17.5,6.7,17.8,18.2c0.2,9,0.4,20.1,0,31.5c-0.4,11.5-7.2,18.4-17.8,18.4
				C246.9,285.9,240.1,279,239.7,267.5z"/>
			<path class="st8" d="M356.1,234.8c-0.2-7.2-2.3-12.4-5.7-16.1c-1.8-1.9-4-3.4-6.6-4.6c-5.5-2.5-12.6-3.4-20.6-3.4
				c-8.3,0-18.7,0.1-18.7,0.1V293h10.6v-30.5c0,0,3.9,0.1,9.3,0.1c17.4,0,27.5-6.8,30.7-17.9c0.8-2.6,1.1-5.5,1.1-8.6
				C356.1,235.6,356.1,235.2,356.1,234.8z M324.8,253.7c-5,0-9.7-0.1-9.7-0.1v-33.9c0,0,3.8-0.1,8.9-0.1c14.6,0,21.6,5.4,21.6,16.7
				C345.6,250,337.2,253.7,324.8,253.7z"/>
		</g>
		<g>
			<path class="st8" d="M209.1,306c-1.9-2-4.5-2.2-6.6-0.4c-1.3,1.1-2.7,2.4-3.9,3.7c-1.7,1.7-1.9,3.8-0.8,5.7
				c0.3,0.7,0.5,1.9,1.1,3.7c0.4,1.2,0.7,2.1,1.3,2.8c0.5,0.5,1.1,0.5,1.1,0.5l0.7-0.7c-0.1-0.1-0.2-0.2-0.3-0.3
				c-0.4-0.5-0.7-1-1.4-2.4c-0.4-0.9-0.7-1.4-1-1.9c1.8,1.4,4,1.3,5.9-0.3c1.4-1.2,2.7-2.4,3.9-3.7C211,310.6,211,308,209.1,306z
				 M207.8,311.3c-1.1,1.1-2.4,2.4-3.9,3.6c-1.5,1.3-3.1,1.2-4.3-0.1c-1.2-1.3-1.2-3,0.2-4.3c1.4-1.4,2.7-2.6,3.9-3.6
				c1.5-1.3,3.1-1.2,4.3,0.1C209.2,308.3,209.2,309.9,207.8,311.3z"/>
			<path class="st8" d="M221,316.4c0,0-4.5,6.3-5.5,7.8c-1.2,1.7-2.8,2-4.2,0.9c-1.5-1.1-1.7-2.6-0.5-4.3c1-1.5,5.5-7.8,5.5-7.8
				l-1.5-1c0,0-4.2,5.9-5.5,7.7c-1.7,2.5-1.1,5,1.1,6.6c2.2,1.6,4.8,1.3,6.6-1.1c1.3-1.8,5.5-7.8,5.5-7.8L221,316.4z"/>
			<path class="st8" d="M226.3,319.4l-6.2,12.4l1.6,0.8l6.2-12.4L226.3,319.4z"/>
			<path class="st8" d="M238.7,326l0.5-1.4l-7.2-2.4l-4.5,13.2l7.2,2.4l0.5-1.4l-5.5-1.9l1.6-4.6l4.9,1.7l0.5-1.4l-4.9-1.7l1.5-4.3
				L238.7,326z"/>
			<path class="st8" d="M241,325.1l-0.2,1.5l3.9,0.6l-2,12.3l1.8,0.3l2-12.3l3.9,0.6l0.2-1.5L241,325.1z"/>
			<path class="st8" d="M269.3,329.8c-0.4-3.4-2.8-4-6.1-3.6c-1.4,0.2-3.1,0.4-3.1,0.4l1.7,13.8l1.8-0.2l-0.6-5.1
				c0,0,0.7-0.1,1.6-0.2C268.1,334.5,269.6,332.5,269.3,329.8z M264.4,333.4c-0.8,0.1-1.6,0.2-1.6,0.2l-0.7-5.7c0,0,0.6-0.1,1.5-0.2
				c2.5-0.3,3.7,0.5,4,2.4C267.8,332.4,266.5,333.2,264.4,333.4z"/>
			<path class="st8" d="M282.4,334.6l-5.4,1.6l-3.5-11.9l-1.7,0.5l4,13.4l7.1-2.1L282.4,334.6z"/>
			<path class="st8" d="M285.7,319.4l-1.8,0.9l0.4,0.4l1.8,14.1l1.6-0.8l-0.6-3.9l4.7-2.3l2.8,2.8l1.7-0.8L285.7,319.4z
				 M286.9,328.5l-0.8-5.2l-0.3-1.6l1.1,1.2l3.8,3.8L286.9,328.5z"/>
			<path class="st8" d="M305.4,318.4l-1.3,0.9c1,1.3,0.8,2.8-0.7,3.9c-1.3,1-3,0.9-4.2-0.6c-1.2-1.5-2.4-3-3.3-4.3
				c-1.2-1.7-1-3.2,0.5-4.3c1.4-1.1,2.8-0.8,3.8,0.4l1.2-1c-1.2-1.8-3.6-2.3-5.8-0.5c-2.3,1.8-2.6,4.4-1.1,6.6
				c0.9,1.2,2.3,3.1,3.3,4.3c1.8,2.2,4.4,2.3,6.5,0.6C306.5,322.6,306.8,320.1,305.4,318.4z"/>
			<path class="st8" d="M315.8,310.8l-3.9,4.3l-3.6-3.3l3.5-3.8l-1.1-1l-3.5,3.8l-3.4-3.1l3.9-4.3l-1.1-1l-5.1,5.6l10.3,9.4l5.1-5.6
				L315.8,310.8z"/>
		</g>
		<g>
			<path class="st8" d="M256,194.1c-12.9,0-25,4-34.9,10.8h5.5c8.7-5,18.7-7.9,29.5-7.9c10.7,0,20.8,2.9,29.5,7.9h5.5
				C281,198.1,268.9,194.1,256,194.1z M293.8,301.2c-0.1,0.1-0.2,0.1-0.2,0.2c-3.5,2.9-7.4,5.4-11.5,7.5c-7.9,3.9-16.7,6.1-26.1,6.1
				c-14.4,0-27.5-5.2-37.8-13.7h-4.4c11.1,10.3,25.9,16.7,42.2,16.7c11.1,0,21.5-2.9,30.5-8.1c2.8-1.6,5.5-3.4,8-5.4
				c1.3-1,2.5-2.1,3.7-3.2H293.8z"/>
		</g>
	</g>
</g>
</svg>
